<svg width="294" height="157" viewBox="0 0 294 157" fill="none" xmlns="http://www.w3.org/2000/svg">
<g filter="url(#filter0_d_3022_2701)">
<rect x="48" y="32" width="198" height="61" rx="8" fill="white"/>
</g>
<path d="M66.988 51.512H63.844L63.34 53H61.192L64.24 44.576H66.616L69.664 53H67.492L66.988 51.512ZM66.46 49.928L65.416 46.844L64.384 49.928H66.46ZM74.6717 46.232C75.4557 46.232 76.0797 46.488 76.5437 47C77.0157 47.504 77.2517 48.2 77.2517 49.088V53H75.2117V49.364C75.2117 48.916 75.0957 48.568 74.8637 48.32C74.6317 48.072 74.3197 47.948 73.9277 47.948C73.5357 47.948 73.2237 48.072 72.9917 48.32C72.7597 48.568 72.6437 48.916 72.6437 49.364V53H70.5917V46.304H72.6437V47.192C72.8517 46.896 73.1317 46.664 73.4837 46.496C73.8357 46.32 74.2317 46.232 74.6717 46.232ZM82.7576 46.232C83.5416 46.232 84.1656 46.488 84.6296 47C85.1016 47.504 85.3376 48.2 85.3376 49.088V53H83.2976V49.364C83.2976 48.916 83.1816 48.568 82.9496 48.32C82.7176 48.072 82.4056 47.948 82.0136 47.948C81.6216 47.948 81.3096 48.072 81.0776 48.32C80.8456 48.568 80.7296 48.916 80.7296 49.364V53H78.6776V46.304H80.7296V47.192C80.9376 46.896 81.2176 46.664 81.5696 46.496C81.9216 46.32 82.3176 46.232 82.7576 46.232ZM86.3555 49.64C86.3555 48.952 86.4835 48.348 86.7395 47.828C87.0035 47.308 87.3595 46.908 87.8075 46.628C88.2555 46.348 88.7555 46.208 89.3075 46.208C89.7795 46.208 90.1915 46.304 90.5435 46.496C90.9035 46.688 91.1795 46.94 91.3715 47.252V46.304H93.4235V53H91.3715V52.052C91.1715 52.364 90.8915 52.616 90.5315 52.808C90.1795 53 89.7675 53.096 89.2955 53.096C88.7515 53.096 88.2555 52.956 87.8075 52.676C87.3595 52.388 87.0035 51.984 86.7395 51.464C86.4835 50.936 86.3555 50.328 86.3555 49.64ZM91.3715 49.652C91.3715 49.14 91.2275 48.736 90.9395 48.44C90.6595 48.144 90.3155 47.996 89.9075 47.996C89.4995 47.996 89.1515 48.144 88.8635 48.44C88.5835 48.728 88.4435 49.128 88.4435 49.64C88.4435 50.152 88.5835 50.56 88.8635 50.864C89.1515 51.16 89.4995 51.308 89.9075 51.308C90.3155 51.308 90.6595 51.16 90.9395 50.864C91.2275 50.568 91.3715 50.164 91.3715 49.652Z" fill="#931ABD"/>
<path d="M70.684 65.66V74H69.316V68.288L66.772 74H65.824L63.268 68.288V74H61.9V65.66H63.376L66.304 72.2L69.22 65.66H70.684ZM78.542 70.532C78.542 70.78 78.526 71.004 78.494 71.204H73.442C73.482 71.732 73.678 72.156 74.03 72.476C74.382 72.796 74.814 72.956 75.326 72.956C76.062 72.956 76.582 72.648 76.886 72.032H78.362C78.162 72.64 77.798 73.14 77.27 73.532C76.75 73.916 76.102 74.108 75.326 74.108C74.694 74.108 74.126 73.968 73.622 73.688C73.126 73.4 72.734 73 72.446 72.488C72.166 71.968 72.026 71.368 72.026 70.688C72.026 70.008 72.162 69.412 72.434 68.9C72.714 68.38 73.102 67.98 73.598 67.7C74.102 67.42 74.678 67.28 75.326 67.28C75.95 67.28 76.506 67.416 76.994 67.688C77.482 67.96 77.862 68.344 78.134 68.84C78.406 69.328 78.542 69.892 78.542 70.532ZM77.114 70.1C77.106 69.596 76.926 69.192 76.574 68.888C76.222 68.584 75.786 68.432 75.266 68.432C74.794 68.432 74.39 68.584 74.054 68.888C73.718 69.184 73.518 69.588 73.454 70.1H77.114ZM81.2563 68.348C81.4563 68.012 81.7203 67.752 82.0483 67.568C82.3843 67.376 82.7803 67.28 83.2363 67.28V68.696H82.8883C82.3523 68.696 81.9443 68.832 81.6643 69.104C81.3923 69.376 81.2563 69.848 81.2563 70.52V74H79.8883V67.388H81.2563V68.348ZM84.0378 70.688C84.0378 70.008 84.1738 69.412 84.4458 68.9C84.7258 68.38 85.1098 67.98 85.5978 67.7C86.0858 67.42 86.6458 67.28 87.2778 67.28C88.0778 67.28 88.7378 67.472 89.2578 67.856C89.7858 68.232 90.1418 68.772 90.3258 69.476H88.8498C88.7298 69.148 88.5378 68.892 88.2738 68.708C88.0098 68.524 87.6778 68.432 87.2778 68.432C86.7178 68.432 86.2698 68.632 85.9338 69.032C85.6058 69.424 85.4418 69.976 85.4418 70.688C85.4418 71.4 85.6058 71.956 85.9338 72.356C86.2698 72.756 86.7178 72.956 87.2778 72.956C88.0698 72.956 88.5938 72.608 88.8498 71.912H90.3258C90.1338 72.584 89.7738 73.12 89.2458 73.52C88.7178 73.912 88.0618 74.108 87.2778 74.108C86.6458 74.108 86.0858 73.968 85.5978 73.688C85.1098 73.4 84.7258 73 84.4458 72.488C84.1738 71.968 84.0378 71.368 84.0378 70.688ZM92.3851 66.512C92.1371 66.512 91.9291 66.428 91.7611 66.26C91.5931 66.092 91.5091 65.884 91.5091 65.636C91.5091 65.388 91.5931 65.18 91.7611 65.012C91.9291 64.844 92.1371 64.76 92.3851 64.76C92.6251 64.76 92.8291 64.844 92.9971 65.012C93.1651 65.18 93.2491 65.388 93.2491 65.636C93.2491 65.884 93.1651 66.092 92.9971 66.26C92.8291 66.428 92.6251 66.512 92.3851 66.512ZM93.0571 67.388V74H91.6891V67.388H93.0571ZM99.3383 68.36C99.5703 68.056 99.8863 67.8 100.286 67.592C100.686 67.384 101.138 67.28 101.642 67.28C102.218 67.28 102.742 67.424 103.214 67.712C103.694 67.992 104.07 68.388 104.342 68.9C104.614 69.412 104.75 70 104.75 70.664C104.75 71.328 104.614 71.924 104.342 72.452C104.07 72.972 103.694 73.38 103.214 73.676C102.742 73.964 102.218 74.108 101.642 74.108C101.138 74.108 100.69 74.008 100.298 73.808C99.9063 73.6 99.5863 73.344 99.3383 73.04V77.144H97.9703V67.388H99.3383V68.36ZM103.358 70.664C103.358 70.208 103.262 69.816 103.07 69.488C102.886 69.152 102.638 68.9 102.326 68.732C102.022 68.556 101.694 68.468 101.342 68.468C100.998 68.468 100.67 68.556 100.358 68.732C100.054 68.908 99.8063 69.164 99.6143 69.5C99.4303 69.836 99.3383 70.232 99.3383 70.688C99.3383 71.144 99.4303 71.544 99.6143 71.888C99.8063 72.224 100.054 72.48 100.358 72.656C100.67 72.832 100.998 72.92 101.342 72.92C101.694 72.92 102.022 72.832 102.326 72.656C102.638 72.472 102.886 72.208 103.07 71.864C103.262 71.52 103.358 71.12 103.358 70.664ZM105.647 70.664C105.647 70 105.783 69.412 106.055 68.9C106.335 68.388 106.711 67.992 107.183 67.712C107.663 67.424 108.191 67.28 108.767 67.28C109.287 67.28 109.739 67.384 110.123 67.592C110.515 67.792 110.827 68.044 111.059 68.348V67.388H112.439V74H111.059V73.016C110.827 73.328 110.511 73.588 110.111 73.796C109.711 74.004 109.255 74.108 108.743 74.108C108.175 74.108 107.655 73.964 107.183 73.676C106.711 73.38 106.335 72.972 106.055 72.452C105.783 71.924 105.647 71.328 105.647 70.664ZM111.059 70.688C111.059 70.232 110.963 69.836 110.771 69.5C110.587 69.164 110.343 68.908 110.039 68.732C109.735 68.556 109.407 68.468 109.055 68.468C108.703 68.468 108.375 68.556 108.071 68.732C107.767 68.9 107.519 69.152 107.327 69.488C107.143 69.816 107.051 70.208 107.051 70.664C107.051 71.12 107.143 71.52 107.327 71.864C107.519 72.208 107.767 72.472 108.071 72.656C108.383 72.832 108.711 72.92 109.055 72.92C109.407 72.92 109.735 72.832 110.039 72.656C110.343 72.48 110.587 72.224 110.771 71.888C110.963 71.544 111.059 71.144 111.059 70.688ZM115.604 68.36C115.836 68.056 116.152 67.8 116.552 67.592C116.952 67.384 117.404 67.28 117.908 67.28C118.484 67.28 119.008 67.424 119.48 67.712C119.96 67.992 120.336 68.388 120.608 68.9C120.88 69.412 121.016 70 121.016 70.664C121.016 71.328 120.88 71.924 120.608 72.452C120.336 72.972 119.96 73.38 119.48 73.676C119.008 73.964 118.484 74.108 117.908 74.108C117.404 74.108 116.956 74.008 116.564 73.808C116.172 73.6 115.852 73.344 115.604 73.04V77.144H114.236V67.388H115.604V68.36ZM119.624 70.664C119.624 70.208 119.528 69.816 119.336 69.488C119.152 69.152 118.904 68.9 118.592 68.732C118.288 68.556 117.96 68.468 117.608 68.468C117.264 68.468 116.936 68.556 116.624 68.732C116.32 68.908 116.072 69.164 115.88 69.5C115.696 69.836 115.604 70.232 115.604 70.688C115.604 71.144 115.696 71.544 115.88 71.888C116.072 72.224 116.32 72.48 116.624 72.656C116.936 72.832 117.264 72.92 117.608 72.92C117.96 72.92 118.288 72.832 118.592 72.656C118.904 72.472 119.152 72.208 119.336 71.864C119.528 71.52 119.624 71.12 119.624 70.664ZM121.913 70.664C121.913 70 122.049 69.412 122.321 68.9C122.601 68.388 122.977 67.992 123.449 67.712C123.929 67.424 124.457 67.28 125.033 67.28C125.553 67.28 126.005 67.384 126.389 67.592C126.781 67.792 127.093 68.044 127.325 68.348V67.388H128.705V74H127.325V73.016C127.093 73.328 126.777 73.588 126.377 73.796C125.977 74.004 125.521 74.108 125.009 74.108C124.441 74.108 123.921 73.964 123.449 73.676C122.977 73.38 122.601 72.972 122.321 72.452C122.049 71.924 121.913 71.328 121.913 70.664ZM127.325 70.688C127.325 70.232 127.229 69.836 127.037 69.5C126.853 69.164 126.609 68.908 126.305 68.732C126.001 68.556 125.673 68.468 125.321 68.468C124.969 68.468 124.641 68.556 124.337 68.732C124.033 68.9 123.785 69.152 123.593 69.488C123.409 69.816 123.317 70.208 123.317 70.664C123.317 71.12 123.409 71.52 123.593 71.864C123.785 72.208 124.033 72.472 124.337 72.656C124.649 72.832 124.977 72.92 125.321 72.92C125.673 72.92 126.001 72.832 126.305 72.656C126.609 72.48 126.853 72.224 127.037 71.888C127.229 71.544 127.325 71.144 127.325 70.688ZM134.315 66.512C134.067 66.512 133.859 66.428 133.691 66.26C133.523 66.092 133.439 65.884 133.439 65.636C133.439 65.388 133.523 65.18 133.691 65.012C133.859 64.844 134.067 64.76 134.315 64.76C134.555 64.76 134.759 64.844 134.927 65.012C135.095 65.18 135.179 65.388 135.179 65.636C135.179 65.884 135.095 66.092 134.927 66.26C134.759 66.428 134.555 66.512 134.315 66.512ZM134.987 75.296C134.987 75.944 134.823 76.412 134.495 76.7C134.175 76.996 133.707 77.144 133.091 77.144H132.383V75.992H132.851C133.131 75.992 133.327 75.936 133.439 75.824C133.559 75.72 133.619 75.544 133.619 75.296V67.388H134.987V75.296ZM136.999 65.66H138.487L137.227 68.516H136.267L136.999 65.66ZM139.233 70.664C139.233 70 139.369 69.412 139.641 68.9C139.921 68.388 140.297 67.992 140.769 67.712C141.249 67.424 141.777 67.28 142.353 67.28C142.873 67.28 143.325 67.384 143.709 67.592C144.101 67.792 144.413 68.044 144.645 68.348V67.388H146.025V74H144.645V73.016C144.413 73.328 144.097 73.588 143.697 73.796C143.297 74.004 142.841 74.108 142.329 74.108C141.761 74.108 141.241 73.964 140.769 73.676C140.297 73.38 139.921 72.972 139.641 72.452C139.369 71.924 139.233 71.328 139.233 70.664ZM144.645 70.688C144.645 70.232 144.549 69.836 144.357 69.5C144.173 69.164 143.929 68.908 143.625 68.732C143.321 68.556 142.993 68.468 142.641 68.468C142.289 68.468 141.961 68.556 141.657 68.732C141.353 68.9 141.105 69.152 140.913 69.488C140.729 69.816 140.637 70.208 140.637 70.664C140.637 71.12 140.729 71.52 140.913 71.864C141.105 72.208 141.353 72.472 141.657 72.656C141.969 72.832 142.297 72.92 142.641 72.92C142.993 72.92 143.321 72.832 143.625 72.656C143.929 72.48 144.173 72.224 144.357 71.888C144.549 71.544 144.645 71.144 144.645 70.688ZM148.518 66.512C148.27 66.512 148.062 66.428 147.894 66.26C147.726 66.092 147.642 65.884 147.642 65.636C147.642 65.388 147.726 65.18 147.894 65.012C148.062 64.844 148.27 64.76 148.518 64.76C148.758 64.76 148.962 64.844 149.13 65.012C149.298 65.18 149.382 65.388 149.382 65.636C149.382 65.884 149.298 66.092 149.13 66.26C148.962 66.428 148.758 66.512 148.518 66.512ZM149.19 67.388V74H147.822V67.388H149.19ZM155.471 68.348C155.671 68.012 155.935 67.752 156.263 67.568C156.599 67.376 156.995 67.28 157.451 67.28V68.696H157.103C156.567 68.696 156.159 68.832 155.879 69.104C155.607 69.376 155.471 69.848 155.471 70.52V74H154.103V67.388H155.471V68.348ZM164.769 70.532C164.769 70.78 164.753 71.004 164.721 71.204H159.669C159.709 71.732 159.905 72.156 160.257 72.476C160.609 72.796 161.041 72.956 161.553 72.956C162.289 72.956 162.809 72.648 163.113 72.032H164.589C164.389 72.64 164.025 73.14 163.497 73.532C162.977 73.916 162.329 74.108 161.553 74.108C160.921 74.108 160.353 73.968 159.849 73.688C159.353 73.4 158.961 73 158.673 72.488C158.393 71.968 158.253 71.368 158.253 70.688C158.253 70.008 158.389 69.412 158.661 68.9C158.941 68.38 159.329 67.98 159.825 67.7C160.329 67.42 160.905 67.28 161.553 67.28C162.177 67.28 162.733 67.416 163.221 67.688C163.709 67.96 164.089 68.344 164.361 68.84C164.633 69.328 164.769 69.892 164.769 70.532ZM163.341 70.1C163.333 69.596 163.153 69.192 162.801 68.888C162.449 68.584 162.013 68.432 161.493 68.432C161.021 68.432 160.617 68.584 160.281 68.888C159.945 69.184 159.745 69.588 159.681 70.1H163.341ZM168.899 72.956C169.691 72.956 170.215 72.608 170.471 71.912H171.947C171.771 72.52 171.455 73.02 170.999 73.412C170.551 73.796 169.987 74.02 169.307 74.084V74.576C169.771 74.576 170.147 74.684 170.435 74.9C170.723 75.124 170.867 75.436 170.867 75.836C170.867 76.236 170.723 76.552 170.435 76.784C170.147 77.024 169.783 77.144 169.343 77.144H167.759V76.28H169.067C169.291 76.28 169.459 76.248 169.571 76.184C169.683 76.12 169.739 76.004 169.739 75.836C169.739 75.668 169.683 75.552 169.571 75.488C169.459 75.424 169.291 75.392 169.067 75.392H168.407V74.072C167.863 74.008 167.383 73.828 166.967 73.532C166.551 73.228 166.227 72.836 165.995 72.356C165.771 71.868 165.659 71.312 165.659 70.688C165.659 70.008 165.795 69.412 166.067 68.9C166.347 68.38 166.731 67.98 167.219 67.7C167.707 67.42 168.267 67.28 168.899 67.28C169.699 67.28 170.359 67.472 170.879 67.856C171.407 68.232 171.763 68.772 171.947 69.476H170.471C170.351 69.148 170.159 68.892 169.895 68.708C169.631 68.524 169.299 68.432 168.899 68.432C168.339 68.432 167.891 68.632 167.555 69.032C167.227 69.424 167.063 69.976 167.063 70.688C167.063 71.4 167.227 71.956 167.555 72.356C167.891 72.756 168.339 72.956 168.899 72.956ZM179.298 67.388V74H177.93V73.22C177.714 73.492 177.43 73.708 177.078 73.868C176.734 74.02 176.366 74.096 175.974 74.096C175.454 74.096 174.986 73.988 174.57 73.772C174.162 73.556 173.838 73.236 173.598 72.812C173.366 72.388 173.25 71.876 173.25 71.276V67.388H174.606V71.072C174.606 71.664 174.754 72.12 175.05 72.44C175.346 72.752 175.75 72.908 176.262 72.908C176.774 72.908 177.178 72.752 177.474 72.44C177.778 72.12 177.93 71.664 177.93 71.072V67.388H179.298Z" fill="#333333"/>
<defs>
<filter id="filter0_d_3022_2701" x="0" y="0" width="294" height="157" filterUnits="userSpaceOnUse" color-interpolation-filters="sRGB">
<feFlood flood-opacity="0" result="BackgroundImageFix"/>
<feColorMatrix in="SourceAlpha" type="matrix" values="0 0 0 0 0 0 0 0 0 0 0 0 0 0 0 0 0 0 127 0" result="hardAlpha"/>
<feOffset dy="16"/>
<feGaussianBlur stdDeviation="24"/>
<feColorMatrix type="matrix" values="0 0 0 0 0 0 0 0 0 0 0 0 0 0 0 0 0 0 0.175 0"/>
<feBlend mode="normal" in2="BackgroundImageFix" result="effect1_dropShadow_3022_2701"/>
<feBlend mode="normal" in="SourceGraphic" in2="effect1_dropShadow_3022_2701" result="shape"/>
</filter>
</defs>
</svg>
