<svg width="171" height="36" viewBox="0 0 171 36" fill="none" xmlns="http://www.w3.org/2000/svg">
<g clip-path="url(#clip0_3036_8365)">
<path d="M0 9.5H27V26.5H0V9.5Z" fill="#CE1126"/>
<path d="M0 9.5H9V26.5H0V9.5Z" fill="#007A5E"/>
<path d="M18 9.5H27V26.5H18V9.5ZM12.096 19.8275L15.774 17.303H11.226L14.904 19.8247L13.5 15.7447L12.096 19.8275Z" fill="#FCD116"/>
</g>
<path d="M39.792 17.552C39.792 15.888 40.152 14.408 40.872 13.112C41.592 11.8 42.592 10.784 43.872 10.064C45.168 9.328 46.632 8.96 48.264 8.96C50.264 8.96 51.976 9.488 53.4 10.544C54.824 11.6 55.776 13.04 56.256 14.864H51.744C51.408 14.16 50.928 13.624 50.304 13.256C49.696 12.888 49 12.704 48.216 12.704C46.952 12.704 45.928 13.144 45.144 14.024C44.36 14.904 43.968 16.08 43.968 17.552C43.968 19.024 44.36 20.2 45.144 21.08C45.928 21.96 46.952 22.4 48.216 22.4C49 22.4 49.696 22.216 50.304 21.848C50.928 21.48 51.408 20.944 51.744 20.24H56.256C55.776 22.064 54.824 23.504 53.4 24.56C51.976 25.6 50.264 26.12 48.264 26.12C46.632 26.12 45.168 25.76 43.872 25.04C42.592 24.304 41.592 23.288 40.872 21.992C40.152 20.696 39.792 19.216 39.792 17.552ZM57.9533 19.28C57.9533 17.904 58.2093 16.696 58.7213 15.656C59.2493 14.616 59.9613 13.816 60.8573 13.256C61.7533 12.696 62.7533 12.416 63.8573 12.416C64.8013 12.416 65.6253 12.608 66.3293 12.992C67.0493 13.376 67.6013 13.88 67.9853 14.504V12.608H72.0893V26H67.9853V24.104C67.5853 24.728 67.0253 25.232 66.3053 25.616C65.6013 26 64.7773 26.192 63.8333 26.192C62.7453 26.192 61.7533 25.912 60.8573 25.352C59.9613 24.776 59.2493 23.968 58.7213 22.928C58.2093 21.872 57.9533 20.656 57.9533 19.28ZM67.9853 19.304C67.9853 18.28 67.6973 17.472 67.1213 16.88C66.5613 16.288 65.8733 15.992 65.0573 15.992C64.2413 15.992 63.5453 16.288 62.9693 16.88C62.4093 17.456 62.1293 18.256 62.1293 19.28C62.1293 20.304 62.4093 21.12 62.9693 21.728C63.5453 22.32 64.2413 22.616 65.0573 22.616C65.8733 22.616 66.5613 22.32 67.1213 21.728C67.6973 21.136 67.9853 20.328 67.9853 19.304ZM92.1463 12.464C93.8103 12.464 95.1303 12.968 96.1063 13.976C97.0983 14.984 97.5943 16.384 97.5943 18.176V26H93.5143V18.728C93.5143 17.864 93.2823 17.2 92.8183 16.736C92.3703 16.256 91.7463 16.016 90.9463 16.016C90.1463 16.016 89.5143 16.256 89.0503 16.736C88.6023 17.2 88.3783 17.864 88.3783 18.728V26H84.2983V18.728C84.2983 17.864 84.0663 17.2 83.6023 16.736C83.1543 16.256 82.5303 16.016 81.7303 16.016C80.9303 16.016 80.2983 16.256 79.8343 16.736C79.3863 17.2 79.1623 17.864 79.1623 18.728V26H75.0583V12.608H79.1623V14.288C79.5783 13.728 80.1223 13.288 80.7943 12.968C81.4663 12.632 82.2263 12.464 83.0743 12.464C84.0823 12.464 84.9783 12.68 85.7623 13.112C86.5623 13.544 87.1863 14.16 87.6343 14.96C88.0983 14.224 88.7303 13.624 89.5303 13.16C90.3303 12.696 91.2023 12.464 92.1463 12.464ZM113.089 19.088C113.089 19.472 113.065 19.872 113.017 20.288H103.729C103.793 21.12 104.057 21.76 104.521 22.208C105.001 22.64 105.585 22.856 106.273 22.856C107.297 22.856 108.009 22.424 108.409 21.56H112.777C112.553 22.44 112.145 23.232 111.553 23.936C110.977 24.64 110.249 25.192 109.369 25.592C108.489 25.992 107.505 26.192 106.417 26.192C105.105 26.192 103.937 25.912 102.913 25.352C101.889 24.792 101.089 23.992 100.513 22.952C99.9366 21.912 99.6486 20.696 99.6486 19.304C99.6486 17.912 99.9286 16.696 100.489 15.656C101.065 14.616 101.865 13.816 102.889 13.256C103.913 12.696 105.089 12.416 106.417 12.416C107.713 12.416 108.865 12.688 109.873 13.232C110.881 13.776 111.665 14.552 112.225 15.56C112.801 16.568 113.089 17.744 113.089 19.088ZM108.889 18.008C108.889 17.304 108.649 16.744 108.169 16.328C107.689 15.912 107.089 15.704 106.369 15.704C105.681 15.704 105.097 15.904 104.617 16.304C104.153 16.704 103.865 17.272 103.753 18.008H108.889ZM119.358 14.84C119.838 14.104 120.438 13.528 121.158 13.112C121.878 12.68 122.678 12.464 123.558 12.464V16.808H122.43C121.406 16.808 120.638 17.032 120.126 17.48C119.614 17.912 119.358 18.68 119.358 19.784V26H115.254V12.608H119.358V14.84ZM131.615 26.192C130.303 26.192 129.119 25.912 128.063 25.352C127.023 24.792 126.199 23.992 125.591 22.952C124.999 21.912 124.703 20.696 124.703 19.304C124.703 17.928 125.007 16.72 125.615 15.68C126.223 14.624 127.055 13.816 128.111 13.256C129.167 12.696 130.351 12.416 131.663 12.416C132.975 12.416 134.159 12.696 135.215 13.256C136.271 13.816 137.103 14.624 137.711 15.68C138.319 16.72 138.623 17.928 138.623 19.304C138.623 20.68 138.311 21.896 137.687 22.952C137.079 23.992 136.239 24.792 135.167 25.352C134.111 25.912 132.927 26.192 131.615 26.192ZM131.615 22.64C132.399 22.64 133.063 22.352 133.607 21.776C134.167 21.2 134.447 20.376 134.447 19.304C134.447 18.232 134.175 17.408 133.631 16.832C133.103 16.256 132.447 15.968 131.663 15.968C130.863 15.968 130.199 16.256 129.671 16.832C129.143 17.392 128.879 18.216 128.879 19.304C128.879 20.376 129.135 21.2 129.647 21.776C130.175 22.352 130.831 22.64 131.615 22.64ZM146.897 26.192C145.585 26.192 144.401 25.912 143.345 25.352C142.305 24.792 141.481 23.992 140.873 22.952C140.281 21.912 139.985 20.696 139.985 19.304C139.985 17.928 140.289 16.72 140.896 15.68C141.505 14.624 142.337 13.816 143.393 13.256C144.449 12.696 145.633 12.416 146.945 12.416C148.257 12.416 149.441 12.696 150.497 13.256C151.553 13.816 152.385 14.624 152.993 15.68C153.601 16.72 153.905 17.928 153.905 19.304C153.905 20.68 153.593 21.896 152.969 22.952C152.361 23.992 151.521 24.792 150.449 25.352C149.393 25.912 148.209 26.192 146.897 26.192ZM146.897 22.64C147.681 22.64 148.345 22.352 148.889 21.776C149.449 21.2 149.729 20.376 149.729 19.304C149.729 18.232 149.457 17.408 148.913 16.832C148.385 16.256 147.729 15.968 146.945 15.968C146.145 15.968 145.481 16.256 144.953 16.832C144.425 17.392 144.161 18.216 144.161 19.304C144.161 20.376 144.417 21.2 144.929 21.776C145.457 22.352 146.113 22.64 146.897 22.64ZM164.242 12.464C165.81 12.464 167.058 12.976 167.986 14C168.93 15.008 169.402 16.4 169.402 18.176V26H165.322V18.728C165.322 17.832 165.09 17.136 164.626 16.64C164.162 16.144 163.538 15.896 162.754 15.896C161.97 15.896 161.346 16.144 160.882 16.64C160.418 17.136 160.186 17.832 160.186 18.728V26H156.082V12.608H160.186V14.384C160.602 13.792 161.162 13.328 161.866 12.992C162.57 12.64 163.362 12.464 164.242 12.464Z" fill="white"/>
<defs>
<clipPath id="clip0_3036_8365">
<rect width="27" height="17" fill="white" transform="translate(0 9.5)"/>
</clipPath>
</defs>
</svg>
