<svg width="294" height="172" viewBox="0 0 294 172" fill="none" xmlns="http://www.w3.org/2000/svg">
<g filter="url(#filter0_d_3022_4900)">
<rect x="48" y="32" width="198" height="76" rx="8" fill="white"/>
</g>
<path d="M61.396 48.776C61.396 47.944 61.576 47.204 61.936 46.556C62.296 45.9 62.796 45.392 63.436 45.032C64.084 44.664 64.816 44.48 65.632 44.48C66.632 44.48 67.488 44.744 68.2 45.272C68.912 45.8 69.388 46.52 69.628 47.432H67.372C67.204 47.08 66.964 46.812 66.652 46.628C66.348 46.444 66 46.352 65.608 46.352C64.976 46.352 64.464 46.572 64.072 47.012C63.68 47.452 63.484 48.04 63.484 48.776C63.484 49.512 63.68 50.1 64.072 50.54C64.464 50.98 64.976 51.2 65.608 51.2C66 51.2 66.348 51.108 66.652 50.924C66.964 50.74 67.204 50.472 67.372 50.12H69.628C69.388 51.032 68.912 51.752 68.2 52.28C67.488 52.8 66.632 53.06 65.632 53.06C64.816 53.06 64.084 52.88 63.436 52.52C62.796 52.152 62.296 51.644 61.936 50.996C61.576 50.348 61.396 49.608 61.396 48.776ZM75.0006 46.232C75.7686 46.232 76.3846 46.488 76.8486 47C77.3126 47.504 77.5446 48.2 77.5446 49.088V53H75.5046V49.364C75.5046 48.916 75.3886 48.568 75.1566 48.32C74.9246 48.072 74.6126 47.948 74.2206 47.948C73.8286 47.948 73.5166 48.072 73.2846 48.32C73.0526 48.568 72.9366 48.916 72.9366 49.364V53H70.8846V44.12H72.9366V47.204C73.1446 46.908 73.4286 46.672 73.7886 46.496C74.1486 46.32 74.5526 46.232 75.0006 46.232ZM85.2826 49.544C85.2826 49.736 85.2706 49.936 85.2466 50.144H80.6026C80.6346 50.56 80.7666 50.88 80.9986 51.104C81.2386 51.32 81.5306 51.428 81.8746 51.428C82.3866 51.428 82.7426 51.212 82.9426 50.78H85.1266C85.0146 51.22 84.8106 51.616 84.5146 51.968C84.2266 52.32 83.8626 52.596 83.4226 52.796C82.9826 52.996 82.4906 53.096 81.9466 53.096C81.2906 53.096 80.7066 52.956 80.1946 52.676C79.6826 52.396 79.2826 51.996 78.9946 51.476C78.7066 50.956 78.5626 50.348 78.5626 49.652C78.5626 48.956 78.7026 48.348 78.9826 47.828C79.2706 47.308 79.6706 46.908 80.1826 46.628C80.6946 46.348 81.2826 46.208 81.9466 46.208C82.5946 46.208 83.1706 46.344 83.6746 46.616C84.1786 46.888 84.5706 47.276 84.8506 47.78C85.1386 48.284 85.2826 48.872 85.2826 49.544ZM83.1826 49.004C83.1826 48.652 83.0626 48.372 82.8226 48.164C82.5826 47.956 82.2826 47.852 81.9226 47.852C81.5786 47.852 81.2866 47.952 81.0466 48.152C80.8146 48.352 80.6706 48.636 80.6146 49.004H83.1826ZM88.4171 47.42C88.6571 47.052 88.9571 46.764 89.3171 46.556C89.6771 46.34 90.0771 46.232 90.5171 46.232V48.404H89.9531C89.4411 48.404 89.0571 48.516 88.8011 48.74C88.5451 48.956 88.4171 49.34 88.4171 49.892V53H86.3651V46.304H88.4171V47.42ZM92.5299 45.608C92.1699 45.608 91.8739 45.504 91.6419 45.296C91.4179 45.08 91.3059 44.816 91.3059 44.504C91.3059 44.184 91.4179 43.92 91.6419 43.712C91.8739 43.496 92.1699 43.388 92.5299 43.388C92.8819 43.388 93.1699 43.496 93.3939 43.712C93.6259 43.92 93.7419 44.184 93.7419 44.504C93.7419 44.816 93.6259 45.08 93.3939 45.296C93.1699 45.504 92.8819 45.608 92.5299 45.608ZM93.5499 46.304V53H91.4979V46.304H93.5499ZM101.349 49.544C101.349 49.736 101.337 49.936 101.313 50.144H96.669C96.701 50.56 96.833 50.88 97.065 51.104C97.305 51.32 97.597 51.428 97.941 51.428C98.453 51.428 98.809 51.212 99.009 50.78H101.193C101.081 51.22 100.877 51.616 100.581 51.968C100.293 52.32 99.929 52.596 99.489 52.796C99.049 52.996 98.557 53.096 98.013 53.096C97.357 53.096 96.773 52.956 96.261 52.676C95.749 52.396 95.349 51.996 95.061 51.476C94.773 50.956 94.629 50.348 94.629 49.652C94.629 48.956 94.769 48.348 95.049 47.828C95.337 47.308 95.737 46.908 96.249 46.628C96.761 46.348 97.349 46.208 98.013 46.208C98.661 46.208 99.237 46.344 99.741 46.616C100.245 46.888 100.637 47.276 100.917 47.78C101.205 48.284 101.349 48.872 101.349 49.544ZM99.249 49.004C99.249 48.652 99.129 48.372 98.889 48.164C98.649 47.956 98.349 47.852 97.989 47.852C97.645 47.852 97.353 47.952 97.113 48.152C96.881 48.352 96.737 48.636 96.681 49.004H99.249Z" fill="#931ABD"/>
<path d="M70.684 66.66V75H69.316V69.288L66.772 75H65.824L63.268 69.288V75H61.9V66.66H63.376L66.304 73.2L69.22 66.66H70.684ZM78.542 71.532C78.542 71.78 78.526 72.004 78.494 72.204H73.442C73.482 72.732 73.678 73.156 74.03 73.476C74.382 73.796 74.814 73.956 75.326 73.956C76.062 73.956 76.582 73.648 76.886 73.032H78.362C78.162 73.64 77.798 74.14 77.27 74.532C76.75 74.916 76.102 75.108 75.326 75.108C74.694 75.108 74.126 74.968 73.622 74.688C73.126 74.4 72.734 74 72.446 73.488C72.166 72.968 72.026 72.368 72.026 71.688C72.026 71.008 72.162 70.412 72.434 69.9C72.714 69.38 73.102 68.98 73.598 68.7C74.102 68.42 74.678 68.28 75.326 68.28C75.95 68.28 76.506 68.416 76.994 68.688C77.482 68.96 77.862 69.344 78.134 69.84C78.406 70.328 78.542 70.892 78.542 71.532ZM77.114 71.1C77.106 70.596 76.926 70.192 76.574 69.888C76.222 69.584 75.786 69.432 75.266 69.432C74.794 69.432 74.39 69.584 74.054 69.888C73.718 70.184 73.518 70.588 73.454 71.1H77.114ZM81.2563 69.348C81.4563 69.012 81.7203 68.752 82.0483 68.568C82.3843 68.376 82.7803 68.28 83.2363 68.28V69.696H82.8883C82.3523 69.696 81.9443 69.832 81.6643 70.104C81.3923 70.376 81.2563 70.848 81.2563 71.52V75H79.8883V68.388H81.2563V69.348ZM84.0378 71.688C84.0378 71.008 84.1738 70.412 84.4458 69.9C84.7258 69.38 85.1098 68.98 85.5978 68.7C86.0858 68.42 86.6458 68.28 87.2778 68.28C88.0778 68.28 88.7378 68.472 89.2578 68.856C89.7858 69.232 90.1418 69.772 90.3258 70.476H88.8498C88.7298 70.148 88.5378 69.892 88.2738 69.708C88.0098 69.524 87.6778 69.432 87.2778 69.432C86.7178 69.432 86.2698 69.632 85.9338 70.032C85.6058 70.424 85.4418 70.976 85.4418 71.688C85.4418 72.4 85.6058 72.956 85.9338 73.356C86.2698 73.756 86.7178 73.956 87.2778 73.956C88.0698 73.956 88.5938 73.608 88.8498 72.912H90.3258C90.1338 73.584 89.7738 74.12 89.2458 74.52C88.7178 74.912 88.0618 75.108 87.2778 75.108C86.6458 75.108 86.0858 74.968 85.5978 74.688C85.1098 74.4 84.7258 74 84.4458 73.488C84.1738 72.968 84.0378 72.368 84.0378 71.688ZM92.3851 67.512C92.1371 67.512 91.9291 67.428 91.7611 67.26C91.5931 67.092 91.5091 66.884 91.5091 66.636C91.5091 66.388 91.5931 66.18 91.7611 66.012C91.9291 65.844 92.1371 65.76 92.3851 65.76C92.6251 65.76 92.8291 65.844 92.9971 66.012C93.1651 66.18 93.2491 66.388 93.2491 66.636C93.2491 66.884 93.1651 67.092 92.9971 67.26C92.8291 67.428 92.6251 67.512 92.3851 67.512ZM93.0571 68.388V75H91.6891V68.388H93.0571ZM105.974 68.28C106.494 68.28 106.958 68.388 107.366 68.604C107.782 68.82 108.106 69.14 108.338 69.564C108.578 69.988 108.698 70.5 108.698 71.1V75H107.342V71.304C107.342 70.712 107.194 70.26 106.898 69.948C106.602 69.628 106.198 69.468 105.686 69.468C105.174 69.468 104.766 69.628 104.462 69.948C104.166 70.26 104.018 70.712 104.018 71.304V75H102.662V71.304C102.662 70.712 102.514 70.26 102.218 69.948C101.922 69.628 101.518 69.468 101.006 69.468C100.494 69.468 100.086 69.628 99.7823 69.948C99.4863 70.26 99.3383 70.712 99.3383 71.304V75H97.9703V68.388H99.3383V69.144C99.5623 68.872 99.8463 68.66 100.19 68.508C100.534 68.356 100.902 68.28 101.294 68.28C101.822 68.28 102.294 68.392 102.71 68.616C103.126 68.84 103.446 69.164 103.67 69.588C103.87 69.188 104.182 68.872 104.606 68.64C105.03 68.4 105.486 68.28 105.974 68.28ZM113.307 75.108C112.683 75.108 112.119 74.968 111.615 74.688C111.111 74.4 110.715 74 110.427 73.488C110.139 72.968 109.995 72.368 109.995 71.688C109.995 71.016 110.143 70.42 110.439 69.9C110.735 69.38 111.139 68.98 111.651 68.7C112.163 68.42 112.735 68.28 113.367 68.28C113.999 68.28 114.571 68.42 115.083 68.7C115.595 68.98 115.999 69.38 116.295 69.9C116.591 70.42 116.739 71.016 116.739 71.688C116.739 72.36 116.587 72.956 116.283 73.476C115.979 73.996 115.563 74.4 115.035 74.688C114.515 74.968 113.939 75.108 113.307 75.108ZM113.307 73.92C113.659 73.92 113.987 73.836 114.291 73.668C114.603 73.5 114.855 73.248 115.047 72.912C115.239 72.576 115.335 72.168 115.335 71.688C115.335 71.208 115.243 70.804 115.059 70.476C114.875 70.14 114.631 69.888 114.327 69.72C114.023 69.552 113.695 69.468 113.343 69.468C112.991 69.468 112.663 69.552 112.359 69.72C112.063 69.888 111.827 70.14 111.651 70.476C111.475 70.804 111.387 71.208 111.387 71.688C111.387 72.4 111.567 72.952 111.927 73.344C112.295 73.728 112.755 73.92 113.307 73.92ZM121.427 68.28C121.947 68.28 122.411 68.388 122.819 68.604C123.235 68.82 123.559 69.14 123.791 69.564C124.023 69.988 124.139 70.5 124.139 71.1V75H122.783V71.304C122.783 70.712 122.635 70.26 122.339 69.948C122.043 69.628 121.639 69.468 121.127 69.468C120.615 69.468 120.207 69.628 119.903 69.948C119.607 70.26 119.459 70.712 119.459 71.304V75H118.091V68.388H119.459V69.144C119.683 68.872 119.967 68.66 120.311 68.508C120.663 68.356 121.035 68.28 121.427 68.28ZM128.546 71.688C128.546 71.008 128.682 70.412 128.954 69.9C129.234 69.38 129.618 68.98 130.106 68.7C130.594 68.42 131.154 68.28 131.786 68.28C132.586 68.28 133.246 68.472 133.766 68.856C134.294 69.232 134.65 69.772 134.834 70.476H133.358C133.238 70.148 133.046 69.892 132.782 69.708C132.518 69.524 132.186 69.432 131.786 69.432C131.226 69.432 130.778 69.632 130.442 70.032C130.114 70.424 129.95 70.976 129.95 71.688C129.95 72.4 130.114 72.956 130.442 73.356C130.778 73.756 131.226 73.956 131.786 73.956C132.578 73.956 133.102 73.608 133.358 72.912H134.834C134.642 73.584 134.282 74.12 133.754 74.52C133.226 74.912 132.57 75.108 131.786 75.108C131.154 75.108 130.594 74.968 130.106 74.688C129.618 74.4 129.234 74 128.954 73.488C128.682 72.968 128.546 72.368 128.546 71.688ZM139.617 68.28C140.121 68.28 140.569 68.388 140.961 68.604C141.361 68.82 141.673 69.14 141.897 69.564C142.129 69.988 142.245 70.5 142.245 71.1V75H140.889V71.304C140.889 70.712 140.741 70.26 140.445 69.948C140.149 69.628 139.745 69.468 139.233 69.468C138.721 69.468 138.313 69.628 138.009 69.948C137.713 70.26 137.565 70.712 137.565 71.304V75H136.197V66.12H137.565V69.156C137.797 68.876 138.089 68.66 138.441 68.508C138.801 68.356 139.193 68.28 139.617 68.28ZM150.05 71.532C150.05 71.78 150.034 72.004 150.002 72.204H144.95C144.99 72.732 145.186 73.156 145.538 73.476C145.89 73.796 146.322 73.956 146.834 73.956C147.57 73.956 148.09 73.648 148.394 73.032H149.87C149.67 73.64 149.306 74.14 148.778 74.532C148.258 74.916 147.61 75.108 146.834 75.108C146.202 75.108 145.634 74.968 145.13 74.688C144.634 74.4 144.242 74 143.954 73.488C143.674 72.968 143.534 72.368 143.534 71.688C143.534 71.008 143.67 70.412 143.942 69.9C144.222 69.38 144.61 68.98 145.106 68.7C145.61 68.42 146.186 68.28 146.834 68.28C147.458 68.28 148.014 68.416 148.502 68.688C148.99 68.96 149.37 69.344 149.642 69.84C149.914 70.328 150.05 70.892 150.05 71.532ZM148.622 71.1C148.614 70.596 148.434 70.192 148.082 69.888C147.73 69.584 147.294 69.432 146.774 69.432C146.302 69.432 145.898 69.584 145.562 69.888C145.226 70.184 145.026 70.588 144.962 71.1H148.622ZM152.764 69.348C152.964 69.012 153.228 68.752 153.556 68.568C153.892 68.376 154.288 68.28 154.744 68.28V69.696H154.396C153.86 69.696 153.452 69.832 153.172 70.104C152.9 70.376 152.764 70.848 152.764 71.52V75H151.396V68.388H152.764V69.348ZM156.698 67.512C156.45 67.512 156.242 67.428 156.074 67.26C155.906 67.092 155.822 66.884 155.822 66.636C155.822 66.388 155.906 66.18 156.074 66.012C156.242 65.844 156.45 65.76 156.698 65.76C156.938 65.76 157.142 65.844 157.31 66.012C157.478 66.18 157.562 66.388 157.562 66.636C157.562 66.884 157.478 67.092 157.31 67.26C157.142 67.428 156.938 67.512 156.698 67.512ZM157.37 68.388V75H156.002V68.388H157.37ZM162.979 67.512C162.731 67.512 162.523 67.428 162.355 67.26C162.187 67.092 162.103 66.884 162.103 66.636C162.103 66.388 162.187 66.18 162.355 66.012C162.523 65.844 162.731 65.76 162.979 65.76C163.219 65.76 163.423 65.844 163.591 66.012C163.759 66.18 163.843 66.388 163.843 66.636C163.843 66.884 163.759 67.092 163.591 67.26C163.423 67.428 163.219 67.512 162.979 67.512ZM163.651 76.296C163.651 76.944 163.487 77.412 163.159 77.7C162.839 77.996 162.371 78.144 161.755 78.144H161.047V76.992H161.515C161.795 76.992 161.991 76.936 162.103 76.824C162.223 76.72 162.283 76.544 162.283 76.296V68.388H163.651V76.296ZM171.507 71.532C171.507 71.78 171.491 72.004 171.459 72.204H166.407C166.447 72.732 166.643 73.156 166.995 73.476C167.347 73.796 167.779 73.956 168.291 73.956C169.027 73.956 169.547 73.648 169.851 73.032H171.327C171.127 73.64 170.763 74.14 170.235 74.532C169.715 74.916 169.067 75.108 168.291 75.108C167.659 75.108 167.091 74.968 166.587 74.688C166.091 74.4 165.699 74 165.411 73.488C165.131 72.968 164.991 72.368 164.991 71.688C164.991 71.008 165.127 70.412 165.399 69.9C165.679 69.38 166.067 68.98 166.563 68.7C167.067 68.42 167.643 68.28 168.291 68.28C168.915 68.28 169.471 68.416 169.959 68.688C170.447 68.96 170.827 69.344 171.099 69.84C171.371 70.328 171.507 70.892 171.507 71.532ZM170.079 71.1C170.071 70.596 169.891 70.192 169.539 69.888C169.187 69.584 168.751 69.432 168.231 69.432C167.759 69.432 167.355 69.584 167.019 69.888C166.683 70.184 166.483 70.588 166.419 71.1H170.079ZM178.526 73.776L180.398 68.388H181.85L179.33 75H177.698L175.19 68.388H176.654L178.526 73.776ZM182.428 71.664C182.428 71 182.564 70.412 182.836 69.9C183.116 69.388 183.492 68.992 183.964 68.712C184.444 68.424 184.972 68.28 185.548 68.28C186.068 68.28 186.52 68.384 186.904 68.592C187.296 68.792 187.608 69.044 187.84 69.348V68.388H189.22V75H187.84V74.016C187.608 74.328 187.292 74.588 186.892 74.796C186.492 75.004 186.036 75.108 185.524 75.108C184.956 75.108 184.436 74.964 183.964 74.676C183.492 74.38 183.116 73.972 182.836 73.452C182.564 72.924 182.428 72.328 182.428 71.664ZM187.84 71.688C187.84 71.232 187.744 70.836 187.552 70.5C187.368 70.164 187.124 69.908 186.82 69.732C186.516 69.556 186.188 69.468 185.836 69.468C185.484 69.468 185.156 69.556 184.852 69.732C184.548 69.9 184.3 70.152 184.108 70.488C183.924 70.816 183.832 71.208 183.832 71.664C183.832 72.12 183.924 72.52 184.108 72.864C184.3 73.208 184.548 73.472 184.852 73.656C185.164 73.832 185.492 73.92 185.836 73.92C186.188 73.92 186.516 73.832 186.82 73.656C187.124 73.48 187.368 73.224 187.552 72.888C187.744 72.544 187.84 72.144 187.84 71.688ZM191.713 67.512C191.465 67.512 191.257 67.428 191.089 67.26C190.921 67.092 190.837 66.884 190.837 66.636C190.837 66.388 190.921 66.18 191.089 66.012C191.257 65.844 191.465 65.76 191.713 65.76C191.953 65.76 192.157 65.844 192.325 66.012C192.493 66.18 192.577 66.388 192.577 66.636C192.577 66.884 192.493 67.092 192.325 67.26C192.157 67.428 191.953 67.512 191.713 67.512ZM192.385 68.388V75H191.017V68.388H192.385ZM196.581 75.108C196.061 75.108 195.593 75.016 195.177 74.832C194.769 74.64 194.445 74.384 194.205 74.064C193.965 73.736 193.837 73.372 193.821 72.972H195.237C195.261 73.252 195.393 73.488 195.633 73.68C195.881 73.864 196.189 73.956 196.557 73.956C196.941 73.956 197.237 73.884 197.445 73.74C197.661 73.588 197.769 73.396 197.769 73.164C197.769 72.916 197.649 72.732 197.409 72.612C197.177 72.492 196.805 72.36 196.293 72.216C195.797 72.08 195.393 71.948 195.081 71.82C194.769 71.692 194.497 71.496 194.265 71.232C194.041 70.968 193.929 70.62 193.929 70.188C193.929 69.836 194.033 69.516 194.241 69.228C194.449 68.932 194.745 68.7 195.129 68.532C195.521 68.364 195.969 68.28 196.473 68.28C197.225 68.28 197.829 68.472 198.285 68.856C198.749 69.232 198.997 69.748 199.029 70.404H197.661C197.637 70.108 197.517 69.872 197.301 69.696C197.085 69.52 196.793 69.432 196.425 69.432C196.065 69.432 195.789 69.5 195.597 69.636C195.405 69.772 195.309 69.952 195.309 70.176C195.309 70.352 195.373 70.5 195.501 70.62C195.629 70.74 195.785 70.836 195.969 70.908C196.153 70.972 196.425 71.056 196.785 71.16C197.265 71.288 197.657 71.42 197.961 71.556C198.273 71.684 198.541 71.876 198.765 72.132C198.989 72.388 199.105 72.728 199.113 73.152C199.113 73.528 199.009 73.864 198.801 74.16C198.593 74.456 198.297 74.688 197.913 74.856C197.537 75.024 197.093 75.108 196.581 75.108ZM63.268 87.36C63.5 87.056 63.816 86.8 64.216 86.592C64.616 86.384 65.068 86.28 65.572 86.28C66.148 86.28 66.672 86.424 67.144 86.712C67.624 86.992 68 87.388 68.272 87.9C68.544 88.412 68.68 89 68.68 89.664C68.68 90.328 68.544 90.924 68.272 91.452C68 91.972 67.624 92.38 67.144 92.676C66.672 92.964 66.148 93.108 65.572 93.108C65.068 93.108 64.62 93.008 64.228 92.808C63.836 92.6 63.516 92.344 63.268 92.04V96.144H61.9V86.388H63.268V87.36ZM67.288 89.664C67.288 89.208 67.192 88.816 67 88.488C66.816 88.152 66.568 87.9 66.256 87.732C65.952 87.556 65.624 87.468 65.272 87.468C64.928 87.468 64.6 87.556 64.288 87.732C63.984 87.908 63.736 88.164 63.544 88.5C63.36 88.836 63.268 89.232 63.268 89.688C63.268 90.144 63.36 90.544 63.544 90.888C63.736 91.224 63.984 91.48 64.288 91.656C64.6 91.832 64.928 91.92 65.272 91.92C65.624 91.92 65.952 91.832 66.256 91.656C66.568 91.472 66.816 91.208 67 90.864C67.192 90.52 67.288 90.12 67.288 89.664ZM72.9008 93.108C72.2768 93.108 71.7128 92.968 71.2088 92.688C70.7048 92.4 70.3088 92 70.0208 91.488C69.7328 90.968 69.5888 90.368 69.5888 89.688C69.5888 89.016 69.7368 88.42 70.0328 87.9C70.3288 87.38 70.7328 86.98 71.2448 86.7C71.7568 86.42 72.3288 86.28 72.9608 86.28C73.5928 86.28 74.1648 86.42 74.6768 86.7C75.1888 86.98 75.5928 87.38 75.8888 87.9C76.1848 88.42 76.3328 89.016 76.3328 89.688C76.3328 90.36 76.1808 90.956 75.8768 91.476C75.5728 91.996 75.1568 92.4 74.6288 92.688C74.1088 92.968 73.5328 93.108 72.9008 93.108ZM72.9008 91.92C73.2528 91.92 73.5808 91.836 73.8848 91.668C74.1968 91.5 74.4488 91.248 74.6408 90.912C74.8328 90.576 74.9288 90.168 74.9288 89.688C74.9288 89.208 74.8368 88.804 74.6528 88.476C74.4688 88.14 74.2248 87.888 73.9208 87.72C73.6168 87.552 73.2888 87.468 72.9368 87.468C72.5848 87.468 72.2568 87.552 71.9528 87.72C71.6568 87.888 71.4208 88.14 71.2448 88.476C71.0688 88.804 70.9808 89.208 70.9808 89.688C70.9808 90.4 71.1608 90.952 71.5208 91.344C71.8888 91.728 72.3488 91.92 72.9008 91.92ZM83.6732 86.388V93H82.3052V92.22C82.0892 92.492 81.8052 92.708 81.4532 92.868C81.1092 93.02 80.7412 93.096 80.3492 93.096C79.8292 93.096 79.3612 92.988 78.9452 92.772C78.5372 92.556 78.2132 92.236 77.9732 91.812C77.7412 91.388 77.6252 90.876 77.6252 90.276V86.388H78.9812V90.072C78.9812 90.664 79.1292 91.12 79.4252 91.44C79.7212 91.752 80.1252 91.908 80.6372 91.908C81.1492 91.908 81.5532 91.752 81.8492 91.44C82.1532 91.12 82.3052 90.664 82.3052 90.072V86.388H83.6732ZM88.0341 91.776L89.9061 86.388H91.3581L88.8381 93H87.2061L84.6981 86.388H86.1621L88.0341 91.776ZM95.2602 93.108C94.6362 93.108 94.0722 92.968 93.5682 92.688C93.0642 92.4 92.6682 92 92.3802 91.488C92.0922 90.968 91.9482 90.368 91.9482 89.688C91.9482 89.016 92.0962 88.42 92.3922 87.9C92.6882 87.38 93.0922 86.98 93.6042 86.7C94.1162 86.42 94.6882 86.28 95.3202 86.28C95.9522 86.28 96.5242 86.42 97.0362 86.7C97.5482 86.98 97.9522 87.38 98.2482 87.9C98.5442 88.42 98.6922 89.016 98.6922 89.688C98.6922 90.36 98.5402 90.956 98.2362 91.476C97.9322 91.996 97.5162 92.4 96.9882 92.688C96.4682 92.968 95.8922 93.108 95.2602 93.108ZM95.2602 91.92C95.6122 91.92 95.9402 91.836 96.2442 91.668C96.5562 91.5 96.8082 91.248 97.0002 90.912C97.1922 90.576 97.2882 90.168 97.2882 89.688C97.2882 89.208 97.1962 88.804 97.0122 88.476C96.8282 88.14 96.5842 87.888 96.2802 87.72C95.9762 87.552 95.6482 87.468 95.2962 87.468C94.9442 87.468 94.6162 87.552 94.3122 87.72C94.0162 87.888 93.7802 88.14 93.6042 88.476C93.4282 88.804 93.3402 89.208 93.3402 89.688C93.3402 90.4 93.5202 90.952 93.8802 91.344C94.2482 91.728 94.7082 91.92 95.2602 91.92ZM100.741 85.512C100.493 85.512 100.285 85.428 100.117 85.26C99.9485 85.092 99.8645 84.884 99.8645 84.636C99.8645 84.388 99.9485 84.18 100.117 84.012C100.285 83.844 100.493 83.76 100.741 83.76C100.981 83.76 101.185 83.844 101.353 84.012C101.521 84.18 101.605 84.388 101.605 84.636C101.605 84.884 101.521 85.092 101.353 85.26C101.185 85.428 100.981 85.512 100.741 85.512ZM101.413 86.388V93H100.045V86.388H101.413ZM104.577 87.348C104.777 87.012 105.041 86.752 105.369 86.568C105.705 86.376 106.101 86.28 106.557 86.28V87.696H106.209C105.673 87.696 105.265 87.832 104.985 88.104C104.713 88.376 104.577 88.848 104.577 89.52V93H103.209V86.388H104.577V87.348ZM113.703 87.504H112.479V93H111.099V87.504H110.319V86.388H111.099V85.92C111.099 85.16 111.299 84.608 111.699 84.264C112.107 83.912 112.743 83.736 113.607 83.736V84.876C113.191 84.876 112.899 84.956 112.731 85.116C112.563 85.268 112.479 85.536 112.479 85.92V86.388H113.703V87.504ZM114.46 89.664C114.46 89 114.596 88.412 114.868 87.9C115.148 87.388 115.524 86.992 115.996 86.712C116.476 86.424 117.004 86.28 117.58 86.28C118.1 86.28 118.552 86.384 118.936 86.592C119.328 86.792 119.64 87.044 119.872 87.348V86.388H121.252V93H119.872V92.016C119.64 92.328 119.324 92.588 118.924 92.796C118.524 93.004 118.068 93.108 117.556 93.108C116.988 93.108 116.468 92.964 115.996 92.676C115.524 92.38 115.148 91.972 114.868 91.452C114.596 90.924 114.46 90.328 114.46 89.664ZM119.872 89.688C119.872 89.232 119.776 88.836 119.584 88.5C119.4 88.164 119.156 87.908 118.852 87.732C118.548 87.556 118.22 87.468 117.868 87.468C117.516 87.468 117.188 87.556 116.884 87.732C116.58 87.9 116.332 88.152 116.14 88.488C115.956 88.816 115.864 89.208 115.864 89.664C115.864 90.12 115.956 90.52 116.14 90.864C116.332 91.208 116.58 91.472 116.884 91.656C117.196 91.832 117.524 91.92 117.868 91.92C118.22 91.92 118.548 91.832 118.852 91.656C119.156 91.48 119.4 91.224 119.584 90.888C119.776 90.544 119.872 90.144 119.872 89.688ZM123.744 85.512C123.496 85.512 123.288 85.428 123.12 85.26C122.952 85.092 122.868 84.884 122.868 84.636C122.868 84.388 122.952 84.18 123.12 84.012C123.288 83.844 123.496 83.76 123.744 83.76C123.984 83.76 124.188 83.844 124.356 84.012C124.524 84.18 124.608 84.388 124.608 84.636C124.608 84.884 124.524 85.092 124.356 85.26C124.188 85.428 123.984 85.512 123.744 85.512ZM124.416 86.388V93H123.048V86.388H124.416ZM127.581 87.348C127.781 87.012 128.045 86.752 128.373 86.568C128.709 86.376 129.105 86.28 129.561 86.28V87.696H129.213C128.677 87.696 128.269 87.832 127.989 88.104C127.717 88.376 127.581 88.848 127.581 89.52V93H126.213V86.388H127.581V87.348ZM136.878 89.532C136.878 89.78 136.862 90.004 136.83 90.204H131.778C131.818 90.732 132.014 91.156 132.366 91.476C132.718 91.796 133.15 91.956 133.662 91.956C134.398 91.956 134.918 91.648 135.222 91.032H136.698C136.498 91.64 136.134 92.14 135.606 92.532C135.086 92.916 134.438 93.108 133.662 93.108C133.03 93.108 132.462 92.968 131.958 92.688C131.462 92.4 131.07 92 130.782 91.488C130.502 90.968 130.362 90.368 130.362 89.688C130.362 89.008 130.498 88.412 130.77 87.9C131.05 87.38 131.438 86.98 131.934 86.7C132.438 86.42 133.014 86.28 133.662 86.28C134.286 86.28 134.842 86.416 135.33 86.688C135.818 86.96 136.198 87.344 136.47 87.84C136.742 88.328 136.878 88.892 136.878 89.532ZM135.45 89.1C135.442 88.596 135.262 88.192 134.91 87.888C134.558 87.584 134.122 87.432 133.602 87.432C133.13 87.432 132.726 87.584 132.39 87.888C132.054 88.184 131.854 88.588 131.79 89.1H135.45ZM142.709 84.12V93H141.341V84.12H142.709ZM150.565 89.532C150.565 89.78 150.549 90.004 150.517 90.204H145.465C145.505 90.732 145.701 91.156 146.053 91.476C146.405 91.796 146.837 91.956 147.349 91.956C148.085 91.956 148.605 91.648 148.909 91.032H150.385C150.185 91.64 149.821 92.14 149.293 92.532C148.773 92.916 148.125 93.108 147.349 93.108C146.717 93.108 146.149 92.968 145.645 92.688C145.149 92.4 144.757 92 144.469 91.488C144.189 90.968 144.049 90.368 144.049 89.688C144.049 89.008 144.185 88.412 144.457 87.9C144.737 87.38 145.125 86.98 145.621 86.7C146.125 86.42 146.701 86.28 147.349 86.28C147.973 86.28 148.529 86.416 149.017 86.688C149.505 86.96 149.885 87.344 150.157 87.84C150.429 88.328 150.565 88.892 150.565 89.532ZM149.137 89.1C149.129 88.596 148.949 88.192 148.597 87.888C148.245 87.584 147.809 87.432 147.289 87.432C146.817 87.432 146.413 87.584 146.077 87.888C145.741 88.184 145.541 88.588 145.477 89.1H149.137ZM154.312 93.108C153.792 93.108 153.324 93.016 152.908 92.832C152.5 92.64 152.176 92.384 151.936 92.064C151.696 91.736 151.568 91.372 151.552 90.972H152.968C152.992 91.252 153.124 91.488 153.364 91.68C153.612 91.864 153.92 91.956 154.288 91.956C154.672 91.956 154.968 91.884 155.176 91.74C155.392 91.588 155.5 91.396 155.5 91.164C155.5 90.916 155.38 90.732 155.14 90.612C154.908 90.492 154.536 90.36 154.024 90.216C153.528 90.08 153.124 89.948 152.812 89.82C152.5 89.692 152.228 89.496 151.996 89.232C151.772 88.968 151.66 88.62 151.66 88.188C151.66 87.836 151.764 87.516 151.972 87.228C152.18 86.932 152.476 86.7 152.86 86.532C153.252 86.364 153.7 86.28 154.204 86.28C154.956 86.28 155.56 86.472 156.016 86.856C156.48 87.232 156.728 87.748 156.76 88.404H155.392C155.368 88.108 155.248 87.872 155.032 87.696C154.816 87.52 154.524 87.432 154.156 87.432C153.796 87.432 153.52 87.5 153.328 87.636C153.136 87.772 153.04 87.952 153.04 88.176C153.04 88.352 153.104 88.5 153.232 88.62C153.36 88.74 153.516 88.836 153.7 88.908C153.884 88.972 154.156 89.056 154.516 89.16C154.996 89.288 155.388 89.42 155.692 89.556C156.004 89.684 156.272 89.876 156.496 90.132C156.72 90.388 156.836 90.728 156.844 91.152C156.844 91.528 156.74 91.864 156.532 92.16C156.324 92.456 156.028 92.688 155.644 92.856C155.268 93.024 154.824 93.108 154.312 93.108ZM160.983 89.688C160.983 89.008 161.119 88.412 161.391 87.9C161.671 87.38 162.055 86.98 162.543 86.7C163.031 86.42 163.591 86.28 164.223 86.28C165.023 86.28 165.683 86.472 166.203 86.856C166.731 87.232 167.087 87.772 167.271 88.476H165.795C165.675 88.148 165.483 87.892 165.219 87.708C164.955 87.524 164.623 87.432 164.223 87.432C163.663 87.432 163.215 87.632 162.879 88.032C162.551 88.424 162.387 88.976 162.387 89.688C162.387 90.4 162.551 90.956 162.879 91.356C163.215 91.756 163.663 91.956 164.223 91.956C165.015 91.956 165.539 91.608 165.795 90.912H167.271C167.079 91.584 166.719 92.12 166.191 92.52C165.663 92.912 165.007 93.108 164.223 93.108C163.591 93.108 163.031 92.968 162.543 92.688C162.055 92.4 161.671 92 161.391 91.488C161.119 90.968 160.983 90.368 160.983 89.688ZM171.502 93.108C170.878 93.108 170.314 92.968 169.81 92.688C169.306 92.4 168.91 92 168.622 91.488C168.334 90.968 168.19 90.368 168.19 89.688C168.19 89.016 168.338 88.42 168.634 87.9C168.93 87.38 169.334 86.98 169.846 86.7C170.358 86.42 170.93 86.28 171.562 86.28C172.194 86.28 172.766 86.42 173.278 86.7C173.79 86.98 174.194 87.38 174.49 87.9C174.786 88.42 174.934 89.016 174.934 89.688C174.934 90.36 174.782 90.956 174.478 91.476C174.174 91.996 173.758 92.4 173.23 92.688C172.71 92.968 172.134 93.108 171.502 93.108ZM171.502 91.92C171.854 91.92 172.182 91.836 172.486 91.668C172.798 91.5 173.05 91.248 173.242 90.912C173.434 90.576 173.53 90.168 173.53 89.688C173.53 89.208 173.438 88.804 173.254 88.476C173.07 88.14 172.826 87.888 172.522 87.72C172.218 87.552 171.89 87.468 171.538 87.468C171.186 87.468 170.858 87.552 170.554 87.72C170.258 87.888 170.022 88.14 169.846 88.476C169.67 88.804 169.582 89.208 169.582 89.688C169.582 90.4 169.762 90.952 170.122 91.344C170.49 91.728 170.95 91.92 171.502 91.92ZM182.275 86.388V93H180.907V92.22C180.691 92.492 180.407 92.708 180.055 92.868C179.711 93.02 179.343 93.096 178.951 93.096C178.431 93.096 177.963 92.988 177.547 92.772C177.139 92.556 176.815 92.236 176.575 91.812C176.343 91.388 176.227 90.876 176.227 90.276V86.388H177.583V90.072C177.583 90.664 177.731 91.12 178.027 91.44C178.323 91.752 178.727 91.908 179.239 91.908C179.751 91.908 180.155 91.752 180.451 91.44C180.755 91.12 180.907 90.664 180.907 90.072V86.388H182.275ZM185.448 87.348C185.648 87.012 185.912 86.752 186.24 86.568C186.576 86.376 186.972 86.28 187.428 86.28V87.696H187.08C186.544 87.696 186.136 87.832 185.856 88.104C185.584 88.376 185.448 88.848 185.448 89.52V93H184.08V86.388H185.448V87.348ZM191.085 93.108C190.565 93.108 190.097 93.016 189.681 92.832C189.273 92.64 188.949 92.384 188.709 92.064C188.469 91.736 188.341 91.372 188.325 90.972H189.741C189.765 91.252 189.897 91.488 190.137 91.68C190.385 91.864 190.693 91.956 191.061 91.956C191.445 91.956 191.741 91.884 191.949 91.74C192.165 91.588 192.273 91.396 192.273 91.164C192.273 90.916 192.153 90.732 191.913 90.612C191.681 90.492 191.309 90.36 190.797 90.216C190.301 90.08 189.897 89.948 189.585 89.82C189.273 89.692 189.001 89.496 188.769 89.232C188.545 88.968 188.433 88.62 188.433 88.188C188.433 87.836 188.537 87.516 188.745 87.228C188.953 86.932 189.249 86.7 189.633 86.532C190.025 86.364 190.473 86.28 190.977 86.28C191.729 86.28 192.333 86.472 192.789 86.856C193.253 87.232 193.501 87.748 193.533 88.404H192.165C192.141 88.108 192.021 87.872 191.805 87.696C191.589 87.52 191.297 87.432 190.929 87.432C190.569 87.432 190.293 87.5 190.101 87.636C189.909 87.772 189.813 87.952 189.813 88.176C189.813 88.352 189.877 88.5 190.005 88.62C190.133 88.74 190.289 88.836 190.473 88.908C190.657 88.972 190.929 89.056 191.289 89.16C191.769 89.288 192.161 89.42 192.465 89.556C192.777 89.684 193.045 89.876 193.269 90.132C193.493 90.388 193.609 90.728 193.617 91.152C193.617 91.528 193.513 91.864 193.305 92.16C193.097 92.456 192.801 92.688 192.417 92.856C192.041 93.024 191.597 93.108 191.085 93.108ZM201.155 89.532C201.155 89.78 201.139 90.004 201.107 90.204H196.055C196.095 90.732 196.291 91.156 196.643 91.476C196.995 91.796 197.427 91.956 197.939 91.956C198.675 91.956 199.195 91.648 199.499 91.032H200.975C200.775 91.64 200.411 92.14 199.883 92.532C199.363 92.916 198.715 93.108 197.939 93.108C197.307 93.108 196.739 92.968 196.235 92.688C195.739 92.4 195.347 92 195.059 91.488C194.779 90.968 194.639 90.368 194.639 89.688C194.639 89.008 194.775 88.412 195.047 87.9C195.327 87.38 195.715 86.98 196.211 86.7C196.715 86.42 197.291 86.28 197.939 86.28C198.563 86.28 199.119 86.416 199.607 86.688C200.095 86.96 200.475 87.344 200.747 87.84C201.019 88.328 201.155 88.892 201.155 89.532ZM199.727 89.1C199.719 88.596 199.539 88.192 199.187 87.888C198.835 87.584 198.399 87.432 197.879 87.432C197.407 87.432 197.003 87.584 196.667 87.888C196.331 88.184 196.131 88.588 196.067 89.1H199.727ZM204.902 93.108C204.382 93.108 203.914 93.016 203.498 92.832C203.09 92.64 202.766 92.384 202.526 92.064C202.286 91.736 202.158 91.372 202.142 90.972H203.558C203.582 91.252 203.714 91.488 203.954 91.68C204.202 91.864 204.51 91.956 204.878 91.956C205.262 91.956 205.558 91.884 205.766 91.74C205.982 91.588 206.09 91.396 206.09 91.164C206.09 90.916 205.97 90.732 205.73 90.612C205.498 90.492 205.126 90.36 204.614 90.216C204.118 90.08 203.714 89.948 203.402 89.82C203.09 89.692 202.818 89.496 202.586 89.232C202.362 88.968 202.25 88.62 202.25 88.188C202.25 87.836 202.354 87.516 202.562 87.228C202.77 86.932 203.066 86.7 203.45 86.532C203.842 86.364 204.29 86.28 204.794 86.28C205.546 86.28 206.15 86.472 206.606 86.856C207.07 87.232 207.318 87.748 207.35 88.404H205.982C205.958 88.108 205.838 87.872 205.622 87.696C205.406 87.52 205.114 87.432 204.746 87.432C204.386 87.432 204.11 87.5 203.918 87.636C203.726 87.772 203.63 87.952 203.63 88.176C203.63 88.352 203.694 88.5 203.822 88.62C203.95 88.74 204.106 88.836 204.29 88.908C204.474 88.972 204.746 89.056 205.106 89.16C205.586 89.288 205.978 89.42 206.282 89.556C206.594 89.684 206.862 89.876 207.086 90.132C207.31 90.388 207.426 90.728 207.434 91.152C207.434 91.528 207.33 91.864 207.122 92.16C206.914 92.456 206.618 92.688 206.234 92.856C205.858 93.024 205.414 93.108 204.902 93.108Z" fill="#333333"/>
<defs>
<filter id="filter0_d_3022_4900" x="0" y="0" width="294" height="172" filterUnits="userSpaceOnUse" color-interpolation-filters="sRGB">
<feFlood flood-opacity="0" result="BackgroundImageFix"/>
<feColorMatrix in="SourceAlpha" type="matrix" values="0 0 0 0 0 0 0 0 0 0 0 0 0 0 0 0 0 0 127 0" result="hardAlpha"/>
<feOffset dy="16"/>
<feGaussianBlur stdDeviation="24"/>
<feColorMatrix type="matrix" values="0 0 0 0 0 0 0 0 0 0 0 0 0 0 0 0 0 0 0.175 0"/>
<feBlend mode="normal" in2="BackgroundImageFix" result="effect1_dropShadow_3022_4900"/>
<feBlend mode="normal" in="SourceGraphic" in2="effect1_dropShadow_3022_4900" result="shape"/>
</filter>
</defs>
</svg>
