<svg width="69" height="95" viewBox="0 0 69 95" fill="none" xmlns="http://www.w3.org/2000/svg">
<g style="mix-blend-mode:plus-lighter" filter="url(#filter0_f_3036_8358)">
<path d="M34.27 14C31.5897 14.0183 28.9393 14.5644 26.47 15.6071C24.0008 16.6497 21.7611 18.1685 19.8788 20.0768C17.9966 21.9851 16.5086 24.2454 15.4999 26.7287C14.4912 29.212 13.9815 31.8697 14 34.55C14.08 45.82 34.72 80.25 34.72 80.25C34.72 80.25 54.89 45.54 54.81 34.25C54.7704 28.8413 52.5843 23.6697 48.7326 19.8723C44.8809 16.075 39.6787 13.9627 34.27 14ZM34.47 43.56C32.5358 43.5738 30.6409 43.0137 29.025 41.9506C27.409 40.8875 26.1446 39.3691 25.3917 37.5873C24.6387 35.8056 24.431 33.8407 24.7948 31.9409C25.1586 30.0411 26.0775 28.2919 27.4354 26.9144C28.7933 25.5369 30.5292 24.593 32.4236 24.2021C34.318 23.8111 36.2857 23.9907 38.078 24.7181C39.8703 25.4455 41.4067 26.688 42.4928 28.2886C43.579 29.8891 44.1661 31.7758 44.18 33.71C44.1933 36.3022 43.179 38.7942 41.3592 40.6403C39.5393 42.4864 37.0622 43.5362 34.47 43.56Z" fill="#FFAD00"/>
</g>
<path d="M34.27 14C31.5897 14.0183 28.9393 14.5644 26.47 15.6071C24.0008 16.6497 21.7611 18.1685 19.8788 20.0768C17.9966 21.9851 16.5086 24.2454 15.4999 26.7287C14.4912 29.212 13.9815 31.8697 14 34.55C14.08 45.82 34.72 80.25 34.72 80.25C34.72 80.25 54.89 45.54 54.81 34.25C54.7704 28.8413 52.5843 23.6697 48.7326 19.8723C44.8809 16.075 39.6787 13.9627 34.27 14ZM34.47 43.56C32.5358 43.5738 30.6409 43.0137 29.025 41.9506C27.409 40.8875 26.1446 39.3691 25.3917 37.5873C24.6387 35.8056 24.431 33.8407 24.7948 31.9409C25.1586 30.0411 26.0775 28.2919 27.4354 26.9144C28.7933 25.5369 30.5292 24.593 32.4236 24.2021C34.318 23.8111 36.2857 23.9907 38.078 24.7181C39.8703 25.4455 41.4067 26.688 42.4928 28.2886C43.579 29.8891 44.1661 31.7758 44.18 33.71C44.1933 36.3022 43.179 38.7942 41.3592 40.6403C39.5393 42.4864 37.0622 43.5362 34.47 43.56Z" fill="url(#paint0_linear_3036_8358)"/>
<defs>
<filter id="filter0_f_3036_8358" x="-0.000488281" y="-0.000488281" width="68.8107" height="94.2505" filterUnits="userSpaceOnUse" color-interpolation-filters="sRGB">
<feFlood flood-opacity="0" result="BackgroundImageFix"/>
<feBlend mode="normal" in="SourceGraphic" in2="BackgroundImageFix" result="shape"/>
<feGaussianBlur stdDeviation="7" result="effect1_foregroundBlur_3036_8358"/>
</filter>
<linearGradient id="paint0_linear_3036_8358" x1="14.0926" y1="47.2675" x2="54.9116" y2="46.9825" gradientUnits="userSpaceOnUse">
<stop stop-color="#FFC853"/>
<stop offset="0.41" stop-color="#FFBB54"/>
<stop offset="0.99" stop-color="#FFA157"/>
</linearGradient>
</defs>
</svg>
