<svg width="75" height="26" viewBox="0 0 75 26" fill="none" xmlns="http://www.w3.org/2000/svg">
<g clip-path="url(#clip0_2904_2819)">
<path d="M20.0114 11.7486V24.2625C20.0114 24.5932 19.88 24.9103 19.646 25.1441C19.4121 25.3779 19.0948 25.5093 18.7639 25.5093H1.25217C1.08734 25.5093 0.924132 25.4767 0.771909 25.4136C0.619686 25.3504 0.481443 25.2578 0.365108 25.1411C0.248773 25.0244 0.156636 24.8859 0.0939819 24.7336C0.0313281 24.5812 -0.000609513 24.418 9.59622e-07 24.2532V21.7505C9.59622e-07 21.4186 0.131925 21.1003 0.366751 20.8656C0.601578 20.6309 0.920071 20.4991 1.25217 20.4991H13.7738C13.938 20.4997 14.1007 20.4679 14.2526 20.4055C14.4045 20.3431 14.5426 20.2514 14.6589 20.1356C14.7753 20.0197 14.8676 19.8821 14.9306 19.7305C14.9936 19.5789 15.026 19.4164 15.026 19.2523V16.7495C15.026 16.5854 14.9936 16.4229 14.9306 16.2714C14.8676 16.1198 14.7753 15.9821 14.6589 15.8663C14.5426 15.7505 14.4045 15.6587 14.2526 15.5964C14.1007 15.534 13.938 15.5022 13.7738 15.5028H1.25217C1.08773 15.5028 0.924902 15.4704 0.772983 15.4075C0.621063 15.3446 0.483026 15.2525 0.366751 15.1363C0.250477 15.0201 0.158243 14.8821 0.0953163 14.7303C0.0323891 14.5785 9.59622e-07 14.4157 9.59622e-07 14.2514V11.7486C-1.75098e-07 11.5845 0.0324211 11.422 0.095405 11.2704C0.158389 11.1189 0.250696 10.9812 0.367031 10.8654C0.483366 10.7495 0.62144 10.6578 0.773333 10.5954C0.925226 10.533 1.08795 10.5012 1.25217 10.5019H18.7639C18.9279 10.5012 19.0904 10.5331 19.242 10.5955C19.3937 10.6579 19.5315 10.7498 19.6474 10.8657C19.7634 10.9815 19.8552 11.1192 19.9177 11.2708C19.9802 11.4223 20.0121 11.5847 20.0114 11.7486Z" fill="white"/>
<path d="M18.7593 0.5H1.25216C0.560613 0.5 0 1.06027 0 1.75139V4.24954C0 4.94066 0.560613 5.50093 1.25216 5.50093H18.7593C19.4508 5.50093 20.0114 4.94066 20.0114 4.24954V1.75139C20.0114 1.06027 19.4508 0.5 18.7593 0.5Z" fill="#00FFFF"/>
<path d="M38.5806 18.3254C38.581 18.4623 38.5541 18.598 38.5016 18.7245C38.449 18.851 38.3718 18.9659 38.2745 19.0623C38.1781 19.1594 38.0631 19.2361 37.9364 19.2878C37.8098 19.3396 37.6739 19.3653 37.5371 19.3636H28.9435C28.8719 19.3636 28.801 19.3777 28.7348 19.4053C28.6687 19.4328 28.6087 19.4732 28.5582 19.524C28.5078 19.5749 28.4679 19.6352 28.4409 19.7015C28.4139 19.7678 28.4003 19.8389 28.4009 19.9105V21.2221C28.4003 21.3296 28.421 21.4362 28.4617 21.5357C28.5025 21.6352 28.5625 21.7257 28.6384 21.8019C28.7142 21.8781 28.8044 21.9386 28.9037 21.9799C29.0031 22.0212 29.1096 22.0425 29.2172 22.0425H32.9273C33.0349 22.0425 33.1414 22.0212 33.2407 21.9799C33.34 21.9386 33.4302 21.8781 33.5061 21.8019C33.5819 21.7257 33.642 21.6352 33.6827 21.5357C33.7235 21.4362 33.7441 21.3296 33.7435 21.2221C33.7434 21.1481 33.7584 21.0748 33.7877 21.0068C33.817 20.9388 33.8599 20.8775 33.9137 20.8267C33.9676 20.7759 34.0313 20.7367 34.1009 20.7114C34.1706 20.6861 34.2446 20.6754 34.3186 20.6798H38.0287C38.1003 20.6792 38.1714 20.6928 38.2378 20.7198C38.3041 20.7467 38.3645 20.7866 38.4154 20.837C38.4662 20.8874 38.5066 20.9474 38.5342 21.0135C38.5617 21.0796 38.5759 21.1505 38.5759 21.2221V21.7505C38.5699 22.743 38.1726 23.6932 37.4703 24.3951C36.768 25.0969 35.8173 25.4939 34.8241 25.5H27.325C26.3318 25.4939 25.3811 25.0969 24.6788 24.3951C23.9765 23.6932 23.5792 22.743 23.5732 21.7505V14.256C23.5792 13.2635 23.9765 12.3133 24.6788 11.6114C25.3811 10.9096 26.3318 10.5126 27.325 10.5065H34.8287C35.8219 10.5126 36.7727 10.9096 37.475 11.6114C38.1773 12.3133 38.5745 13.2635 38.5806 14.256V18.3254ZM29.2172 14.1263C29.0007 14.1263 28.7931 14.2122 28.64 14.3652C28.4869 14.5181 28.4009 14.7256 28.4009 14.942V16.1609C28.3984 16.2337 28.4106 16.3062 28.4368 16.3741C28.4629 16.4421 28.5025 16.5041 28.5532 16.5564C28.6038 16.6087 28.6645 16.6503 28.7315 16.6788C28.7986 16.7072 28.8707 16.7218 28.9435 16.7217H33.2102C33.3545 16.7205 33.4925 16.6623 33.5941 16.5599C33.6958 16.4575 33.7528 16.3191 33.7528 16.1748V14.942C33.7528 14.8341 33.7314 14.7272 33.6898 14.6277C33.6482 14.5281 33.5872 14.4377 33.5104 14.3619C33.4337 14.286 33.3426 14.2261 33.2425 14.1857C33.1424 14.1452 33.0352 14.125 32.9273 14.1263H29.2172Z" fill="white"/>
<path d="M46.0657 25.5H42.3278C42.1839 25.5 42.0459 25.4429 41.9441 25.3412C41.8424 25.2395 41.7852 25.1016 41.7852 24.9577V11.0534C41.7852 10.9096 41.8424 10.7716 41.9441 10.67C42.0459 10.5683 42.1839 10.5111 42.3278 10.5111H46.0657C46.2096 10.5111 46.3477 10.5683 46.4494 10.67C46.5512 10.7716 46.6083 10.9096 46.6083 11.0534V11.5169C47.2911 10.8558 48.2085 10.4924 49.159 10.5065H52.9758C53.9686 10.5126 54.9189 10.9097 55.6204 11.6117C56.322 12.3137 56.7182 13.2639 56.723 14.256V24.9577C56.723 25.1016 56.6659 25.2395 56.5641 25.3412C56.4624 25.4429 56.3243 25.5 56.1804 25.5H52.4703C52.3987 25.5006 52.3276 25.487 52.2613 25.4601C52.1949 25.4331 52.1345 25.3932 52.0836 25.3428C52.0328 25.2924 51.9924 25.2324 51.9648 25.1663C51.9373 25.1002 51.9231 25.0293 51.9231 24.9577V15.7948C51.9237 15.6893 51.9034 15.5848 51.8633 15.4872C51.8232 15.3896 51.7641 15.301 51.6895 15.2264C51.6148 15.1519 51.5261 15.0928 51.4285 15.0527C51.3309 15.0127 51.2263 14.9923 51.1208 14.993H47.3875C47.187 14.993 46.9947 15.0725 46.8529 15.2142C46.7112 15.3559 46.6315 15.5481 46.6315 15.7484V24.9577C46.6316 25.0309 46.6168 25.1034 46.5881 25.1707C46.5594 25.2381 46.5174 25.2989 46.4645 25.3496C46.4116 25.4003 46.349 25.4397 46.2805 25.4656C46.212 25.4914 46.1389 25.5031 46.0657 25.5Z" fill="white"/>
<path d="M67.5612 10.5065C68.1879 10.5042 68.8046 10.6639 69.3513 10.97C69.4339 11.0187 69.5278 11.0449 69.6237 11.0459C69.7196 11.047 69.8141 11.0228 69.8977 10.9759C69.9813 10.9289 70.0511 10.8609 70.1001 10.7785C70.1491 10.6961 70.1755 10.6023 70.1768 10.5065V4.27271C70.1805 4.13132 70.2392 3.99693 70.3406 3.89823C70.442 3.79952 70.5779 3.7443 70.7194 3.74435H74.4574C74.6013 3.74435 74.7393 3.80148 74.8411 3.90317C74.9428 4.00487 75 4.1428 75 4.28662V24.9577C75 25.1016 74.9428 25.2395 74.8411 25.3412C74.7393 25.4429 74.6013 25.5 74.4574 25.5H70.7194C70.5755 25.5 70.4375 25.4429 70.3358 25.3412C70.234 25.2395 70.1768 25.1016 70.1768 24.9577V24.4433C69.8336 24.7851 69.4253 25.0547 68.9761 25.2362C68.5268 25.4177 68.0457 25.5074 67.5612 25.5H63.7444C63.2518 25.5006 62.7638 25.404 62.3086 25.2157C61.8534 25.0275 61.4399 24.7512 61.0917 24.4029C60.7436 24.0545 60.4677 23.6409 60.2799 23.1857C60.092 22.7306 59.996 22.2428 59.9972 21.7505V14.256C60.0021 13.2639 60.3983 12.3137 61.0998 11.6117C61.8014 10.9097 62.7517 10.5126 63.7444 10.5065H67.5612ZM65.6366 15.0069C65.4201 15.0069 65.2125 15.0928 65.0594 15.2458C64.9064 15.3988 64.8204 15.6062 64.8204 15.8226V20.7447C64.8204 20.9116 64.9131 20.9996 65.094 20.9996H69.3745C69.5873 20.9996 69.7914 20.9152 69.9418 20.7648C70.0923 20.6144 70.1768 20.4105 70.1768 20.1978V15.2803C70.1768 15.0996 70.0887 15.0069 69.9171 15.0069H65.6366Z" fill="white"/>
</g>
<defs>
<clipPath id="clip0_2904_2819">
<rect width="75" height="25" fill="white" transform="translate(0 0.5)"/>
</clipPath>
</defs>
</svg>
