<svg width="126" height="155" viewBox="0 0 126 155" fill="none" xmlns="http://www.w3.org/2000/svg">
<g clip-path="url(#clip0_2427_7837)">
<path d="M35.182 53.5283C35.182 53.5283 30.8045 59.9364 29.5613 62.6279C28.3181 65.3195 28.1439 65.2428 29.5613 67.5631C30.9786 69.8834 32.3959 72.3611 33.8254 73.7169C35.2548 75.0728 35.2022 75.9202 35.2022 75.9202C34.6935 76.8165 34.4876 77.8522 34.615 78.8741C34.7527 79.7578 35.2427 81.4688 35.2427 81.4688C34.9909 81.445 34.7377 81.495 34.514 81.6126C34.2903 81.7301 34.1059 81.9101 33.9833 82.1305C33.4123 83.2766 36.2024 84.0998 37.2958 81.8158C38.3892 79.5318 38.4418 77.724 38.7901 76.8201C38.9925 76.2915 36.1903 70.0892 33.218 65.2226C34.121 64.3308 37.5428 60.8847 37.5064 59.9767C37.397 57.3054 39.0897 56.345 39.0897 56.345L35.182 53.5283Z" fill="#FFC4B2"/>
<path d="M41.1874 125.95C42.6897 125.199 44.1192 124.283 43.6616 123.428C43.5306 123.243 43.3596 123.09 43.1613 122.979C42.963 122.869 42.7423 122.804 42.5156 122.79C41.1266 123.246 40.4342 123.557 40.4342 123.557C40.4342 123.557 40.4585 121.62 40.4828 119.974C40.5557 115.438 36.5021 114.13 36.8382 118.238C36.9597 119.618 36.1336 124.965 36.0283 125.631C36.3847 125.788 37.1257 126.107 37.6765 126.357C38.4702 126.708 39.685 126.708 41.1874 125.95Z" fill="#FFC4B2"/>
<path d="M35.9879 127.818C36.49 129.029 37.6482 128.9 39.9928 128.06C41.8709 127.43 43.6449 126.525 45.2572 125.377C46.7393 124.287 46.7555 124.142 46.9498 123.404C47.2212 122.371 45.7107 121.79 43.1919 122.572L42.5035 122.79C42.7302 122.804 42.9509 122.869 43.1492 122.979C43.3475 123.09 43.5185 123.243 43.6495 123.428C44.1071 124.283 42.6776 125.199 41.1753 125.95C39.6729 126.7 38.4378 126.7 37.6846 126.353C37.1339 126.103 36.3928 125.784 36.0365 125.627C35.8947 126.636 35.6841 127.112 35.9879 127.818Z" fill="#231F20"/>
<path d="M50.724 131.329C52.2304 130.578 53.6599 129.658 53.2023 128.803C53.0698 128.619 52.8979 128.467 52.699 128.357C52.5 128.247 52.2791 128.183 52.0522 128.169C50.6633 128.625 49.9708 128.936 49.9708 128.936C49.9708 128.936 50.0032 127.274 50.0639 124.836C50.2138 118.848 45.5042 121.096 45.8606 125.203C45.8958 127.143 45.8038 129.083 45.5852 131.01C45.9456 131.168 46.6826 131.486 47.2333 131.737C47.9866 132.076 49.2176 132.076 50.724 131.329Z" fill="#FFC4B2"/>
<path d="M45.5244 133.193C46.0265 134.404 47.1887 134.279 49.5334 133.436C51.4105 132.805 53.1843 131.902 54.7977 130.756C56.2758 129.667 56.292 129.521 56.4863 128.783C56.7617 127.75 55.2472 127.169 52.7325 127.948L52.04 128.169C52.2669 128.183 52.4878 128.247 52.6867 128.357C52.8856 128.467 53.0576 128.619 53.1901 128.803C53.6476 129.659 52.2182 130.579 50.7118 131.329C49.2054 132.08 47.9743 132.076 47.2211 131.733C46.6704 131.482 45.9334 131.164 45.573 131.006C45.4312 132.011 45.2206 132.479 45.5244 133.193Z" fill="#231F20"/>
<path d="M44.8481 39.3482C45.4677 39.7759 47.7921 40.3086 48.44 45.4011C49.0151 49.9166 48.0148 51.0909 47.0956 51.4541C46.5854 51.6639 44.7793 51.6599 44.7793 51.6599L44.8481 55.4732C44.8481 55.4732 42.6047 56.357 40.4504 55.4732L38.3001 54.5895C38.3001 54.5895 39.1383 53.1449 39.0007 50.643C38.8265 47.5439 37.721 43.1252 38.5026 41.4869C39.9118 38.5411 43.1595 38.1779 44.8481 39.3482Z" fill="#FFC4B2"/>
<path d="M37.15 52.2207C37.15 52.2207 43.2769 53.9841 44.8441 54.5087C46.3221 55.0091 47.5005 56.022 49.0474 59.109C50.5944 62.196 49.4524 66.8729 49.4524 66.8729L49.8573 76.4043C49.8573 76.4043 46.2735 78.6277 43.4227 78.9021C39.523 79.2734 36.4454 76.2267 36.4454 76.2267C36.4454 76.2267 35.8461 71.7879 35.0321 68.3982C34.3559 65.5735 33.7687 60.8441 34.1372 58.4956C34.858 53.8106 37.15 52.2207 37.15 52.2207Z" fill="#E5556C"/>
<path d="M48.5939 43.6537C48.4319 45.4051 46.9741 45.9256 45.7066 47.2613C44.4391 48.597 44.2933 50.3927 43.9046 51.5831C43.5158 52.7735 44.0666 58.1082 42.1147 62.1031C40.0333 66.3765 37.3606 67.3006 37.3606 67.3006C37.3606 67.3006 33.6432 61.6068 32.319 54.7024C30.9948 47.798 35.1941 38.4684 40.3532 37.3829C45.8241 36.2328 48.9422 40.0623 48.5939 43.6537Z" fill="#231F20"/>
<path d="M41.0133 37.2702C41.0133 37.2702 45.0628 37.5002 45.1721 42.3224C45.2612 46.6321 45.7148 47.2616 45.7148 47.2616C46.1064 46.8628 46.4128 46.3889 46.6154 45.8687C46.8179 45.3485 46.9124 44.7928 46.8932 44.2351C46.8932 41.7413 46.4558 37.7786 44.1881 36.8626C43.3944 36.5357 41.6815 36.3178 41.0133 37.2702Z" fill="#FFCE00"/>
<path d="M47.0957 46.1596C47.0957 46.1596 45.7512 43.8636 45.1721 46.1596C44.9986 46.7141 45.0385 47.313 45.2841 47.8397C45.5296 48.3664 45.9633 48.7831 46.5004 49.0086L47.0957 46.1596Z" fill="#FFC4B2"/>
<path d="M52.7487 89.9871C52.0669 85.4794 51.02 81.0342 49.6184 76.6948L43.9977 79.1523L36.4454 77.5826C36.4454 77.5826 33.3151 84.5838 34.3437 89.6885C35.4857 95.3904 36.6479 99.2401 36.7127 101.617C35.0119 106.592 35.4047 115.03 36.5507 122.084C39.1788 123.367 40.4949 121.62 40.4949 121.62C40.4949 121.62 43.7345 102.069 43.4308 99.2401C43.1489 97.1878 43.0244 95.117 43.0582 93.0459C44.1597 97.2426 45.6094 101.338 46.2978 103.586C44.9534 106.766 45.6661 126.474 45.6742 126.587C45.6742 126.587 48.1039 128.072 50.0881 126.559C51.5703 115.587 53.3277 109.679 53.2872 102.347C53.2832 101.807 53.3925 94.6277 52.7487 89.9871Z" fill="#7D85B4"/>
<path d="M36.4454 77.5829C36.4454 77.5829 41.6207 80.448 45.0101 79.6934C48.8976 78.8258 50.3919 77.5789 50.3919 77.5789L49.8655 76.4046C49.8655 76.4046 46.7595 77.8412 43.8196 77.7524C40.5921 77.6555 36.4454 76.2271 36.4454 76.2271V77.5829Z" fill="#6671A3"/>
<path d="M48.189 46.4905C47.9784 47.9392 46.8608 48.9803 45.6905 48.8108C44.5202 48.6413 43.7427 47.3339 43.9532 45.8812C44.1638 44.4284 45.2774 43.3954 46.4477 43.5609C47.618 43.7263 48.4117 45.0418 48.189 46.4905Z" fill="#FFCE00"/>
<path d="M45.0749 84.0152C45.2531 83.9385 52.6799 81.8159 52.6799 81.8159C52.6799 81.8159 54.8788 86.4525 53.6963 89.2046C52.7609 91.3755 46.3708 93.2156 44.1922 92.0293C41.7098 90.6855 44.1395 84.0152 44.1395 84.0152H45.0749Z" fill="#231F20"/>
<path d="M45.6014 84.7978C45.6014 84.7978 45.3584 87.5015 47.0673 88.4296C48.7762 89.3577 52.4531 88.3529 52.9188 86.7792C53.3845 85.2054 52.6799 82.9053 52.6799 82.9053L45.6014 84.7978Z" fill="#442739"/>
<path d="M49.4564 87.6587L51.0479 87.1099C51.0479 87.1099 51.8294 88.841 50.6429 89.2324C49.4564 89.6239 49.4564 87.6587 49.4564 87.6587Z" fill="white"/>
<path d="M56.1625 84.0917C55.6968 82.4978 52.2952 75.9606 51.3031 73.5555C50.6673 70.0852 50.1895 63.7175 50.0882 62.4544C49.8088 58.6168 49.3188 56.3329 47.5128 56.0746C46.4518 55.9253 44.7146 58.976 44.4756 61.381C44.3582 62.5714 45.9132 71.4693 46.881 75.3391C47.1726 76.4892 48.7762 77.8773 50.0356 79.6932C51.6959 82.0862 53.5992 83.4662 53.7733 85.1167C53.9474 86.7671 53.4615 88.813 53.3076 89.5959C52.9026 91.6418 54.5589 90.8065 55.1906 89.6524C56.3852 87.4773 56.6282 85.6857 56.1625 84.0917Z" fill="#FFC4B2"/>
<path d="M46.3789 55.0737C45.3098 55.1947 43.2729 55.7556 43.0704 61.9942C42.8518 68.6283 44.1881 85.0398 44.1881 85.0398L45.6135 85.1165C45.6135 85.1165 44.6255 62.1153 45.0021 60.2268C45.6216 57.0833 47.0956 56.03 48.6102 56.6959C48.4279 55.0737 46.9134 55.0172 46.3789 55.0737Z" fill="#231F20"/>
<path d="M48.8045 47.9071C48.7635 47.6491 48.64 47.4113 48.4522 47.2291C48.6628 46.9467 49.011 46.3494 48.6101 45.8047C48.6915 45.6868 48.7467 45.553 48.7721 45.4122C48.7974 45.2714 48.7922 45.1268 48.757 44.9881C48.7217 44.8495 48.6571 44.7199 48.5676 44.6081C48.478 44.4963 48.3655 44.4048 48.2376 44.3399C48.203 44.0679 48.1516 43.7984 48.0837 43.5328C47.8572 43.4702 47.6178 43.4702 47.3912 43.5328C47.4084 43.3287 47.4084 43.1235 47.3912 42.9194C47.2493 42.9785 47.1205 43.0648 47.0121 43.1736C46.9037 43.2823 46.8179 43.4112 46.7595 43.553C46.7312 43.6095 46.719 43.6498 46.6988 43.6982L45.5973 43.6418C45.301 43.4954 44.9884 43.3843 44.6659 43.3109C44.4041 43.2659 44.135 43.3253 43.9168 43.4763L44.3663 44.2148C44.0874 44.1545 43.7988 44.1545 43.5199 44.2148C43.5199 44.5537 43.9249 44.9613 43.9249 44.9613C43.684 45.1395 43.5044 45.3876 43.4106 45.6715C43.3769 46.0746 43.4451 46.4797 43.609 46.8498C43.5008 47.0997 43.4338 47.3655 43.4106 47.6367C43.4311 47.8797 43.5014 48.1159 43.6171 48.3308C43.6171 48.3308 43.8844 48.0201 44.0221 48.0483C44.3055 49.2185 45.0871 49.0006 45.0871 49.0006C45.0871 49.0006 45.2248 49.5736 45.6257 49.6422C45.8889 49.4929 46.0306 48.9522 46.0306 48.9522C46.0306 48.9522 46.3465 49.4808 46.6745 49.5736C46.8332 49.3814 46.9691 49.1715 47.0794 48.9482C47.0794 48.9482 47.4844 49.1136 48.023 48.581C48.2243 48.3502 48.3363 48.0554 48.3388 47.7497C48.4905 47.8121 48.6461 47.8646 48.8045 47.9071Z" fill="#FFCE00"/>
<path d="M7.09468 48.0203C7.09468 48.0203 5.66926 46.1076 3.19907 49.7878C2.1705 51.3293 1.82629 62.2972 2.51471 66.7764C2.66977 68.0262 3.17359 69.2077 3.96891 70.1864C4.76422 71.1651 5.81912 71.9018 7.01369 72.3128C7.01369 72.3128 11.5734 56.2685 11.5208 55.8892C11.4681 55.5098 7.09468 48.0203 7.09468 48.0203Z" fill="#FFC4B2"/>
<path d="M17.2954 127.411C19.0529 126.604 20.8468 126.66 21.8106 126.083C22.7744 125.506 23.2522 124.207 23.4304 123.718C23.7503 122.758 23.1713 122.439 23.1713 122.439C22.3558 122.299 21.528 122.243 20.7011 122.274C19.4579 122.358 16.8743 122.379 16.8743 122.379C16.7351 123.173 16.3582 123.907 15.7931 124.485C14.809 125.55 12.3267 123.843 11.8651 124.219C11.4034 124.594 11.2374 126.523 11.1038 127.043C11.1038 127.043 12.5818 127.814 13.5335 128.387C14.4851 128.96 16.2669 127.887 17.2954 127.411Z" fill="#FFBE28"/>
<path d="M11.047 128.282C11.3021 128.98 12.7721 129.36 13.7035 129.372C15.7525 129.404 17.6396 128.121 18.6236 127.996C19.6077 127.871 22.4342 127.189 23.6733 125.296C24.9125 123.403 24.3334 122.225 23.1591 122.439C23.1591 122.439 23.7381 122.758 23.4182 123.718C23.2522 124.206 22.7744 125.51 21.7984 126.083C20.8225 126.656 19.0407 126.595 17.2832 127.411C16.2547 127.887 14.481 128.964 13.5172 128.387C12.5534 127.81 11.0875 127.043 11.0875 127.043C10.9562 127.444 10.9422 127.874 11.047 128.282Z" fill="#231F20"/>
<path d="M16.4935 123.48C17.4299 123.638 18.3834 123.669 19.3282 123.573C20.4215 123.384 21.0452 122.988 20.7091 122.29C19.4325 122.246 18.1545 122.281 16.8823 122.395L16.4935 123.48Z" fill="#231F20"/>
<path d="M21.3287 124.739C21.3287 124.739 18.4414 125.03 17.6842 125.252C16.9269 125.474 16.4936 126.406 15.8862 126.757C15.2788 127.108 14.0234 126.951 14.0234 126.951C14.291 127.239 14.6459 127.433 15.034 127.502C15.4221 127.571 15.8223 127.512 16.1737 127.334C17.4129 126.708 17.5465 125.926 18.6277 125.901C19.7089 125.877 21.1708 125.445 21.3287 124.739Z" fill="white"/>
<path d="M7.66565 120.849C9.42313 120.042 11.2211 120.098 12.1849 119.525C13.1487 118.952 13.6265 117.645 13.8047 117.157C14.1246 116.196 13.5496 115.878 13.5496 115.878C12.7328 115.737 11.9036 115.682 11.0753 115.712C9.83618 115.797 7.25261 115.817 7.25261 115.817C7.11164 116.613 6.73182 117.347 6.16329 117.923C5.17926 118.993 2.69692 117.286 2.23528 117.657C1.77364 118.028 1.60761 119.961 1.47803 120.482C1.47803 120.482 2.95609 121.253 3.90772 121.826C4.85935 122.399 6.63708 121.325 7.66565 120.849Z" fill="#FFBE28"/>
<path d="M1.4173 121.721C1.67242 122.423 3.14643 122.799 4.07782 122.811C6.12686 122.843 8.01392 121.564 8.99795 121.435C9.98198 121.305 12.8045 120.628 14.0477 118.735C15.2909 116.842 14.7037 115.664 13.5334 115.878C13.5334 115.878 14.1084 116.197 13.7885 117.157C13.6265 117.645 13.1487 118.949 12.1687 119.526C11.1887 120.103 9.40695 120.034 7.64947 120.849C6.6209 121.326 4.84722 122.403 3.88344 121.826C2.91966 121.249 1.45374 120.486 1.45374 120.482C1.32221 120.883 1.30956 121.313 1.4173 121.721Z" fill="#231F20"/>
<path d="M6.88416 116.903C7.82057 117.06 8.77402 117.092 9.7188 116.996C10.8122 116.806 11.4358 116.414 11.0997 115.712C9.82449 115.668 8.54777 115.703 7.27696 115.817L6.88416 116.903Z" fill="#231F20"/>
<path d="M11.703 118.182C11.703 118.182 8.8157 118.469 8.05845 118.695C7.30119 118.921 6.87195 119.845 6.26047 120.196C5.649 120.547 4.39771 120.389 4.39771 120.389C4.66386 120.681 5.0182 120.878 5.40698 120.951C5.79577 121.024 6.19778 120.968 6.55204 120.793C7.79118 120.151 7.93696 119.385 9.02628 119.352C10.1156 119.32 11.541 118.884 11.703 118.182Z" fill="white"/>
<path d="M1.34854 118.182C3.47453 119.594 6.09455 118.783 8.04236 117.032C8.18004 113.436 9.66215 107.052 10.1521 100.983C10.5368 96.266 9.57306 89.8821 9.77554 87.8847C10.9904 91.5164 11.938 98.6751 12.841 102.952C11.7031 111.063 11.7436 120.417 11.8489 124.219C12.288 124.637 12.8185 124.948 13.3987 125.128C13.9789 125.307 14.593 125.35 15.1927 125.253C15.7924 125.156 16.3613 124.922 16.8547 124.569C17.3482 124.215 17.7527 123.753 18.0365 123.218C18.6358 120.018 19.6158 112.427 20.2273 100.217C20.5391 94.0022 19.6158 83.3611 18.6358 77.1225C18.2208 74.8076 17.6334 72.5268 16.8784 70.2988L4.38161 70.6176C3.18694 73.2582 2.39921 76.0634 2.04505 78.9384C1.61581 82.8405 2.21918 92.1258 3.08982 98.5338C1.21491 106.705 1.30805 117.294 1.34854 118.182Z" fill="#D2A08F"/>
<path d="M12.9908 34.6311C13.6306 35.075 16.0117 35.6197 16.6799 40.8535C17.2711 45.4901 16.2466 46.6966 15.299 47.0921C14.7767 47.306 12.9179 47.3019 12.9179 47.3019L12.9908 51.2162C12.9908 51.2162 10.6867 52.1241 8.47564 51.2162L6.26462 50.3082C6.26462 50.3082 7.13121 48.8273 6.98543 46.2729C6.80725 43.0729 5.66934 38.5413 6.47924 36.8545C7.92086 33.8079 11.2576 33.4326 12.9908 34.6311Z" fill="#FFC4B2"/>
<path d="M3.1991 74.2495C4.25197 75.4884 9.01822 76.5174 10.6664 76.7151C13.1487 77.0097 16.9714 76.0977 18.1336 74.2697C17.672 70.1013 17.7287 62.9144 17.7287 62.9144C17.7287 62.9144 18.8949 58.1124 17.3237 54.9406C15.7525 51.7689 14.5255 50.7278 13.007 50.2193C11.3872 49.6745 5.71788 49.8158 5.71788 49.8158C5.71788 49.8158 2.35275 53.4112 3.43397 58.1648C5.02137 65.1984 3.68099 70.0004 3.1991 74.2495Z" fill="#FFBE28"/>
<path d="M7.09473 50.651C7.09473 50.651 8.80361 52.7534 11.0632 52.1562C12.2519 51.8546 13.4238 51.4909 14.5741 51.0667C14.4224 50.7047 14.1714 50.3926 13.8497 50.1664C13.5281 49.9401 13.149 49.8088 12.7559 49.7875C10.9906 49.5535 9.24379 49.1975 7.52802 48.7222L7.09473 50.651Z" fill="#FEAD2A"/>
<path d="M16.8499 39.0579C16.6798 40.8536 15.2018 41.3903 13.8816 42.7623C12.5615 44.1343 11.8569 45.4498 8.98579 47.4917C7.93292 48.2382 8.20018 54.037 6.19164 58.153C4.04945 62.5474 5.2967 63.3545 5.2967 63.3545C5.2967 63.3545 -0.777543 61.3933 1.6886 54.614C2.59569 52.1363 6.0742 50.1146 6.19164 47.5038C6.24428 46.2932 4.63663 45.0826 4.11829 42.8228C2.4985 35.6723 5.81908 33.6385 8.97769 32.9767C14.5781 31.7823 17.1941 35.3656 16.8499 39.0579Z" fill="#6D362F"/>
<path d="M15.299 41.628C15.299 41.628 13.9181 39.2713 13.3269 41.628C13.1472 42.1974 13.1876 42.8131 13.4401 43.3544C13.6925 43.8957 14.1389 44.3234 14.6916 44.5535L15.299 41.628Z" fill="#FFC4B2"/>
<path d="M5.66934 46.1074C5.66934 46.1074 5.58835 47.6045 5.90421 47.9394C6.30916 48.3914 7.92896 48.9039 8.49589 48.6819C9.12438 48.2955 9.58625 47.69 9.79173 46.9831C8.39022 46.8384 7.00824 46.5448 5.66934 46.1074Z" fill="#FEAD2A"/>
<path d="M11.6018 72.8092C11.7476 73.1199 13.5172 76.0374 15.299 73.8906C17.0808 71.7438 16.6434 65.5698 16.6434 65.5698L18.1336 67.305C18.1336 67.305 17.9433 76.0091 14.5741 76.796C11.205 77.5829 10.6664 74.9398 10.6664 74.9398L11.6018 72.8092Z" fill="#894D43"/>
<path d="M23.7179 80.3712C23.2279 79.774 21.442 73.6968 20.0328 67.3009C18.5385 60.5014 19.3525 53.2661 15.8173 53.2661C13.2499 53.2661 12.6708 54.5897 12.4198 55.9092C12.0553 57.822 14.4891 65.9975 15.9833 69.5687C16.8783 71.7155 17.2468 73.9834 18.3604 76.1907C19.2067 77.8693 20.3851 79.0154 20.8225 80.4197C21.0776 81.2267 20.7253 82.3284 20.8225 83.1395C21.1302 85.3508 22.0009 85.0925 21.7093 86.0893C21.4177 87.086 20.4418 87.655 20.8994 88.1957C21.357 88.7364 23.0578 87.8406 23.6207 86.0893C24.1835 84.3379 25.042 81.9894 23.7179 80.3712Z" fill="#FFC4B2"/>
<path d="M15.8173 52.4146C15.8173 52.4146 12.0351 52.919 10.6663 57.3013C9.2976 61.6836 9.69445 66.8004 9.69445 66.8004L11.6018 67.6075C11.6018 67.6075 12.1161 58.8751 12.9705 56.9543C14.5903 53.3507 17.5221 54.0771 17.5221 54.0771L15.8173 52.4146Z" fill="#894D43"/>
<path d="M1.09339 68.6365C2.08147 64.6012 4.73794 62.4948 9.64187 64.799C14.5458 67.1031 13.416 72.6315 13.003 75.9687C12.5899 79.3059 10.5733 85.5606 5.39395 84.5719C0.692492 83.6721 -1.47399 79.092 1.09339 68.6365Z" fill="#B27767"/>
<path d="M3.19905 71.2554C3.19905 71.2554 2.62402 73.039 4.09399 73.4425C5.56396 73.846 5.6247 72.0544 5.6247 72.0544L3.19905 71.2554Z" fill="#FFBE28"/>
<path d="M2.46213 65.5698C2.46213 65.5698 1.14605 69.936 3.19914 71.2556C5.25223 72.5751 8.30555 72.793 9.64188 71.1829C10.5348 70.0649 11.3173 68.8635 11.9784 67.5955C11.0676 67.9276 10.2614 68.4943 9.64188 69.2379C9.06013 69.8786 8.3092 70.3433 7.47494 70.5788C6.64068 70.8143 5.75675 70.8111 4.92422 70.5696C2.23941 69.8795 2.46213 65.5698 2.46213 65.5698Z" fill="#995C4F"/>
<path d="M1.48214 75.23C2.6966 76.0982 4.08942 76.6867 5.55998 76.9531C6.97698 77.2193 8.41983 77.3235 9.86054 77.2638C9.86054 77.2638 8.09901 83.9341 4.00903 82.2756C0.255145 80.7543 1.48214 75.23 1.48214 75.23Z" fill="#995C4F"/>
<path d="M18.6277 77.5947C18.2034 78.7494 17.5507 79.8074 16.7082 80.7059C15.9803 81.4811 15.2098 82.2153 14.4 82.9052L14.7402 84.6888C15.5771 84.1995 16.3405 83.595 17.0079 82.8931C18.6277 81.1337 19.0326 79.8182 19.0326 79.8182L18.6277 77.5947Z" fill="#B27767"/>
<path d="M99.2572 17.4688C97.6374 20.4912 95.6734 25.2852 94.2156 28.7676C93.1911 31.2171 92.2597 32.4478 92.5674 34.4171C95.5317 33.4768 94.9364 34.4695 96.6169 36.8382C97.7548 36.5961 100.018 35.9747 101.335 34.0135C103.323 31.0395 104.202 26.3828 104.202 26.3828L105.627 15.1566C105.627 15.1566 101.675 12.9573 99.2572 17.4688Z" fill="#8912A9"/>
<path d="M96.1552 97.6098C96.1552 97.6098 94.8634 99.0101 93.1343 100.689C91.5388 102.242 91.0407 102.686 89.5586 104.131C88.692 104.97 89.4088 105.745 91.0569 105.68C93.2948 105.46 95.5 104.985 97.6292 104.264C99.339 103.551 100.986 102.696 102.553 101.71C103.254 101.299 103.775 100.643 104.015 99.8696V95.7939L96.1552 97.6098Z" fill="#231F20"/>
<path d="M116.079 104.821C116.079 104.821 115.779 107.476 115.597 110.809C115.415 114.142 115.884 117.088 116.909 117.455C117.933 117.823 120.841 117.774 122.501 113.146C123.49 110.21 123.72 107.073 123.169 104.026L116.079 104.821Z" fill="#231F20"/>
<path d="M119.978 56.6556C120.59 47.1525 115.334 42.1608 115.334 42.1608C115.739 38.9608 100.853 43.44 100.853 43.44C100.853 43.44 97.6617 60.6505 96.3132 69.7138C94.7784 80.0119 94.337 95.794 94.337 95.794C94.337 95.794 95.3697 98.7357 99.2207 98.7196C102.173 98.7196 104.611 96.2984 104.611 96.2984L105.19 76.7353L108.611 59.8072C108.611 59.8072 109.199 75.6054 111.369 80.1612C115.334 88.5022 114.402 105.374 114.402 105.374C114.402 105.374 117.796 107.23 121.594 106.77C124.396 106.431 125.571 103.348 125.571 103.348C125.571 103.348 125.64 88.2641 121.242 78.3978C120.873 70.9244 119.699 61.0178 119.978 56.6556Z" fill="#4A0B5E"/>
<path d="M121.238 42.7741C120.225 37.7864 123.396 29.5504 122.979 23.7516C122.299 21.5201 120.076 20.5678 118.435 19.5146C117.274 18.7678 116.153 17.9596 115.078 17.0934L107.21 16.9481C107.21 16.9481 106.044 14.5754 103.566 16.9481C98.3014 21.964 98.9453 33.965 99.249 39.3602C99.5203 44.2671 98.6173 44.6827 99.986 46.7206C99.8078 48.6898 111.547 52.9067 118.01 50.7559C122.323 49.279 121.416 43.6618 121.238 42.7741Z" fill="#6E0E8E"/>
<path d="M107.603 22.1621C107.603 22.1621 105.461 30.4062 106.044 32.6055C106.627 34.8047 107.619 39.4655 107.465 42.2902C107.312 45.1149 107.012 48.4561 107.465 49.6829C107.718 50.3993 108.169 51.0301 108.765 51.5028C108.765 51.5028 107.955 47.98 108.178 45.7565C108.401 43.5331 108.684 41.8423 108.178 38.5737C107.923 36.9111 107.538 35.6763 107.275 34.4294C106.972 33.1062 106.907 31.7401 107.081 30.3941C107.486 27.7428 108.027 25.1137 108.701 22.5172L107.603 22.1621Z" fill="#8912A9"/>
<path d="M106.595 20.8867C106.444 21.8325 106.395 22.7916 106.449 23.7477C106.579 24.8332 107.344 25.3619 108.664 24.4741C109.525 23.8499 110.266 23.0779 110.855 22.1942L106.595 20.8867Z" fill="#FFCE00"/>
<path d="M107.478 23.0215C106.585 24.6767 105.941 26.4537 105.566 28.2956C104.853 31.671 104.405 35.0965 104.226 38.5413C104.015 42.0358 103.562 42.9801 103.562 42.9801L104.983 47.0154L108.053 45.1269C108.053 45.1269 108.555 39.1385 108.652 35.8739C108.749 32.6094 108.012 29.6111 108.02 27.1617C108.028 24.7123 108.053 23.8931 108.053 23.8931L107.478 23.0215Z" fill="#FFCE00"/>
<path d="M108.097 15.8263L107.389 19.9343C107.442 20.8367 107.692 21.7166 108.122 22.5128C109.582 22.1176 110.998 21.5769 112.349 20.8987C113.483 20.2861 114.5 19.4803 115.354 18.5179L114.07 11.5005L108.097 15.8263Z" fill="#F9B1A0"/>
<path d="M114.771 3.80912C113.07 1.65023 108.182 -0.169688 104.995 4.5274C101.654 9.45451 104.813 17.5049 107.737 17.0368C109.377 16.7745 113.066 15.2855 114.682 12.6545C116.504 9.68452 116.091 5.48781 114.771 3.80912Z" fill="#754C29"/>
<path d="M102.825 5.6493C103.465 6.76708 105.773 8.57893 108.518 8.82912C109.882 8.94833 111.255 8.81145 112.568 8.42559L112.224 10.6733C112.503 10.6918 112.783 10.6645 113.054 10.5925C113.394 9.4667 114.41 9.57565 114.73 10.2092C115.111 10.9517 114.682 12.6546 114.682 12.6546C115.516 12.1209 116.208 11.3926 116.697 10.5328C117.186 9.67289 117.458 8.70727 117.488 7.71941C117.565 5.5807 117.253 0.274276 111.892 0.956243C108.121 -1.08562 103.703 -0.000124146 102.825 5.6493Z" fill="#231F20"/>
<path d="M121.161 21.2622C119.618 21.2622 117.492 26.2862 116.646 30.3336C115.818 33.7538 114.745 37.1103 113.434 40.3774C115.431 40.4904 114.066 45.361 115.682 46.7169C117.492 46.9227 120.173 44.7921 120.562 44.0697C122.27 40.9061 125.085 35.3616 125.623 32.4561C126.863 25.7656 124.955 21.2703 121.161 21.2622Z" fill="#8912A9"/>
<path d="M106.137 16.5005L103.987 19.6319L108.121 22.5131C108.121 22.5131 107.534 19.1638 107.923 16.9444C107.614 17.0445 107.282 17.0559 106.966 16.9775C106.651 16.899 106.363 16.7337 106.137 16.5005Z" fill="#8912A9"/>
<path d="M114.876 15.9478C114.876 15.9478 112.301 18.2398 110.976 19.2849C109.652 20.3301 108.101 22.5132 108.101 22.5132L113.442 22.723C113.442 22.723 115.706 18.2842 115.682 17.687C115.658 17.0897 114.876 15.9478 114.876 15.9478Z" fill="#8912A9"/>
<path d="M92.0936 29.7888C92.8752 28.9817 95.0579 28.8365 96.5481 30.0551C98.0383 31.2738 98.4878 36.217 96.4266 37.4639C94.2885 38.7552 93.0291 38.271 92.2435 37.363C91.3445 36.3502 90.5751 34.3325 90.9233 32.1172C91.1143 31.2566 91.5164 30.4566 92.0936 29.7888Z" fill="#EDE6EC"/>
<path d="M110.956 39.7719C111.742 38.9649 114.196 38.7389 115.674 39.9535C117.152 41.1681 117.962 46.0872 115.901 47.3341C113.762 48.6254 111.9 48.238 111.11 47.3341C110.215 46.3212 109.446 44.3036 109.794 42.0882C109.986 41.2333 110.385 40.4381 110.956 39.7719Z" fill="#EDE6EC"/>
<path d="M104.319 13.8493C104.319 13.8493 105.473 15.8145 107.388 15.8669C108.964 15.9274 110.013 15.1285 110.932 13.8493C111.304 13.3206 112.224 10.6735 112.224 10.6735L113.054 10.5928C113.054 10.5928 112.414 16.5448 108.328 17.4165C104.242 18.2881 104.319 13.8493 104.319 13.8493Z" fill="#231F20"/>
<path d="M99.982 46.7168L99.8929 48.678C99.8929 48.678 105.587 52.5478 112.22 52.3097C118.853 52.0716 119.695 51.3211 119.695 51.3211L120.011 49.4285C120.011 49.4285 118.006 50.736 110.932 50.1468C103.857 49.5576 99.982 46.7168 99.982 46.7168Z" fill="#492B3A"/>
<path d="M111.017 28.001L110.737 29.1672L115.467 30.3334L115.682 29.1672L111.017 28.001Z" fill="#8912A9"/>
<path d="M92.697 31.1406C92.697 31.1406 88.8743 32.557 86.2664 33.3802C83.6585 34.2034 81.407 34.9661 80.1921 34.9621C78.9773 34.958 77.0416 34.9217 76.0009 34.5061C75.0898 34.1429 75.0169 34.8531 75.928 35.5552C76.912 36.3058 77.8839 36.1767 77.7624 36.7658C77.6612 37.242 75.3327 37.3832 73.9964 39.6551C73.2108 40.9908 73.5915 42.9116 75.7579 42.6776C77.9244 42.4435 81.0911 39.6511 82.0711 39.1709C83.0511 38.6907 84.6223 38.2952 87.5339 37.8998C89.2873 37.6617 94.8958 36.6528 94.8958 36.6528C94.8958 36.6528 96.22 32.2826 92.697 31.1406Z" fill="#754C29"/>
<path d="M112.062 41.0068C112.062 41.0068 108.178 42.1609 105.627 43.2505C103.076 44.34 100.768 44.8323 99.5527 44.8283C98.3379 44.8242 96.0297 44.5902 94.9404 44.8283C93.851 45.0663 94.5759 45.6676 95.7907 45.9097C97.0056 46.1518 97.9167 46.7168 97.4875 46.9549C97.0582 47.193 94.5192 47.9718 93.2396 49.937C92.3973 51.2363 92.5714 53.0482 94.7581 52.8141C96.9449 52.5801 99.8888 50.0782 101.496 49.2994C102.476 48.8232 103.562 48.5771 106.473 48.1816C108.227 47.9435 114.26 46.515 114.26 46.515C114.26 46.515 115.581 42.1529 112.062 41.0068Z" fill="#754C29"/>
<path d="M59.7745 142.087C59.116 142.881 58.6615 143.823 58.4504 144.831C58.0778 146.32 58.6083 147.527 59.6652 147.934C60.7221 148.342 62.5687 147.482 63.4758 146.611C64.6056 145.525 65.9946 145.311 68.1489 144.153C70.3032 142.995 71.6598 140.965 70.4814 139.67C69.6189 138.726 68.6713 138.508 66.9421 139.012C66.0553 139.27 61.4551 141.595 61.4551 141.595L59.7745 142.087Z" fill="#98B74E"/>
<path d="M62.8724 140.981C62.8724 140.981 64.6097 140.307 65.5978 139.952C66.7559 139.549 67.6468 140.279 66.2497 141.228C64.8526 142.176 62.9129 143.294 62.9129 143.294L62.8724 140.981Z" fill="white"/>
<path d="M60.1836 147.058C60.5885 147.462 61.3458 147.607 62.2974 147.159C63.249 146.711 64.2209 145.61 64.6097 145.388C64.9984 145.166 66.3631 145.053 68.4526 143.798C69.5129 143.096 70.3612 142.119 70.9066 140.973C70.9066 140.973 71.263 142.628 68.9143 144.145C67.7057 144.988 66.3504 145.6 64.9174 145.949C64.1075 146.239 61.7021 148.854 59.4587 148.027C57.9604 147.478 58.333 145.88 58.333 145.88C59.0258 146.139 59.6562 146.541 60.1836 147.058Z" fill="#231F20"/>
<path d="M69.5865 141.562C69.5865 141.562 67.2338 142.265 66.0027 142.822C64.7717 143.378 64.1562 144.383 63.1681 145.166C62.5313 145.647 61.8104 146.005 61.0421 146.223C61.0421 146.223 62.3825 146.558 64.1197 145.166C65.857 143.774 66.4117 143.742 67.6428 143.395C68.8738 143.047 69.5865 141.562 69.5865 141.562Z" fill="#839E38"/>
<path d="M72.3685 148.903C71.7104 149.695 71.256 150.636 71.0444 151.643C70.6718 153.136 71.2023 154.342 72.2592 154.746C73.3161 155.149 75.1627 154.294 76.0698 153.426C77.1996 152.337 78.5886 152.127 80.7429 150.965C82.8972 149.802 84.2538 147.781 83.0754 146.485C82.2129 145.541 81.2653 145.323 79.5361 145.824C78.6534 146.082 74.0491 148.41 74.0491 148.41L72.3685 148.903Z" fill="#98B74E"/>
<path d="M75.4663 147.785C75.4663 147.785 77.2035 147.107 78.1916 146.752C79.3498 146.348 80.2407 147.079 78.8436 148.027C77.4465 148.975 75.5068 150.093 75.5068 150.093L75.4663 147.785Z" fill="white"/>
<path d="M72.7815 153.862C73.1865 154.266 73.9397 154.407 74.8913 153.959C75.8429 153.511 76.8148 152.413 77.2036 152.187C77.5923 151.961 78.957 151.853 81.0465 150.602C82.1058 149.898 82.9539 148.922 83.5005 147.777C83.5005 147.777 83.8569 149.431 81.5082 150.945C80.2987 151.787 78.9438 152.4 77.5113 152.752C76.7014 153.039 74.296 155.658 72.0526 154.831C70.5543 154.278 70.9268 152.684 70.9268 152.684C71.6207 152.944 72.2524 153.345 72.7815 153.862Z" fill="#231F20"/>
<path d="M82.1804 148.366C82.1804 148.366 79.8277 149.068 78.5966 149.625C77.3656 150.182 76.75 151.187 75.762 151.966C75.1248 152.447 74.4041 152.807 73.636 153.027C73.636 153.027 74.9764 153.358 76.7136 151.966C78.4508 150.574 79.0056 150.541 80.2367 150.194C81.4677 149.847 82.1804 148.366 82.1804 148.366Z" fill="#839E38"/>
<path d="M61.6779 80.7828C61.7919 82.8797 61.7919 84.9811 61.6779 87.0779C61.4673 89.4103 61.8115 90.8106 63.3463 91.4603C64.881 92.1099 69.9632 88.7768 69.9632 88.7768L68.3434 80.7788L61.6779 80.7828Z" fill="#F9B1A0"/>
<path d="M69.963 72.6717C69.963 72.6717 68.4566 68.0149 64.7999 69.3668C62.265 70.307 61.2364 72.0785 61.0299 76.2873C60.8865 78.328 60.8865 80.3762 61.0299 82.4169C61.0299 82.4169 63.1194 85.0439 65.4479 84.1763C66.1058 83.9534 66.7019 83.5794 67.188 83.0845C67.6741 82.5896 68.0366 81.9877 68.2461 81.3274L69.963 72.6717Z" fill="#839E38"/>
<path d="M80.759 79.7696C80.759 79.7696 83.3507 77.8044 83.9986 80.044C84.6466 82.2836 83.7881 82.9696 84.4036 83.9865C85.0191 85.0034 86.9183 91.7908 85.339 94.5792C83.7597 97.3676 78.7019 89.6198 78.7019 89.6198L80.759 79.7696Z" fill="#F9B1A0"/>
<path d="M79.0907 100.418H72.2795L63.5771 95.6567C62.7662 97.701 62.0898 99.7957 61.5524 101.928C60.9206 104.752 61.4957 106.29 62.3177 108.788C62.8158 110.301 63.1276 119.586 63.0304 122.338C60.8234 127.628 59.2441 142.773 59.2441 142.773C59.6697 143.348 60.2051 143.833 60.8194 144.2C61.4337 144.568 62.115 144.811 62.8239 144.916C66.189 145.319 67.4282 142.773 67.4282 142.773C67.4282 142.773 68.1976 139.198 68.8171 134.129C69.3233 129.997 70.6678 125.845 70.7164 124.384C70.8257 120.982 70.7164 116.858 71.1901 112.476C71.6558 115.301 73.5186 125.389 73.6198 127.156C73.4781 127.963 73.0124 129.271 72.5143 132.188C71.4615 138.354 71.2144 148.673 71.2144 148.673C71.2144 148.673 72.3969 151.626 74.7416 151.695C78.4347 151.796 79.5645 149.233 79.5645 149.233C79.5645 149.233 81.9618 129.283 82.1967 126.034C82.4315 122.786 79.0907 100.418 79.0907 100.418Z" fill="#442D37"/>
<path d="M68.8941 70.5692C68.8941 70.5692 66.7964 69.968 64.4801 71.9211C62.7591 73.3778 61.9937 77.7803 62.9373 83.4338C63.8808 89.0872 62.9778 97.2345 62.9778 97.2345C62.9778 97.2345 65.6261 100.677 69.6189 102.267C75.5798 104.639 79.3377 102.113 79.3377 102.113C79.3377 102.113 80.755 89.5271 80.7591 85.0641C80.7591 81.7793 80.2408 78.547 77.9852 76.251C77.1753 75.4439 75.5555 74.7579 74.4864 74.2051C70.4086 72.1107 68.8941 70.5692 68.8941 70.5692Z" fill="#98B74E"/>
<path d="M68.894 71.6387C68.2649 72.0346 67.7053 72.5308 67.2377 73.1075C66.6749 73.9146 65.8123 75.3633 68.3392 76.2026C69.2126 76.522 70.1438 76.654 71.0719 76.59C72 76.526 72.9041 76.2675 73.725 75.8314C74.3357 75.4873 74.9277 75.1115 75.4987 74.7055L71.6436 72.3206L68.894 71.6387Z" fill="#839E38"/>
<path d="M63.0951 95.9917L62.6213 98.2636C62.6213 98.2636 67.2216 105.66 74.9156 104.785C77.1955 104.522 79.4956 103.082 79.4956 103.082L79.4308 101.419C79.4308 101.419 78.1552 102.202 74.5107 101.992C71.5266 101.807 68.6446 100.84 66.1565 99.1877C64.894 98.382 63.8441 97.2859 63.0951 95.9917Z" fill="#839E38"/>
<path d="M73.8709 57.0835C72.2106 57.0835 69.5986 57.4265 68.2016 60.3602C67.4281 61.9743 68.5215 66.3566 68.6956 69.4275C68.8333 71.9011 67.9991 73.3296 67.9991 73.3296C67.9991 73.3296 67.2337 74.629 69.4407 75.2948C71.6477 75.9606 74.4823 74.2053 74.4823 74.2053L74.4135 70.4323C74.4135 70.4323 76.7096 70.0933 77.1105 69.7261C78.0742 68.8424 78.5885 66.2154 78.139 62.8298C77.4749 57.7856 75.3449 57.0956 73.8709 57.0835Z" fill="#FFC4B2"/>
<path d="M68.6996 69.4274C68.6996 69.4274 72.7491 68.2733 73.964 66.7116C75.1788 65.15 75.7255 62.6118 75.7255 62.6118C75.7255 62.6118 78.4711 61.8047 79.2567 61.2317C79.869 60.6989 80.3973 60.0772 80.8238 59.3876H78.8639L80.0382 58.0317C80.0382 58.0317 77.6855 57.6282 76.7986 56.6032C75.9118 55.5782 73.0731 54.4443 71.2103 55.3926C69.3476 56.3409 68.6915 58.7096 68.6915 58.7096C68.6915 58.7096 66.602 59.1132 65.7233 60.5094C64.8445 61.9056 66.2133 65.4325 67.3876 66.6067C68.1178 67.382 68.5778 68.3711 68.6996 69.4274Z" fill="#231F20"/>
<path d="M79.9086 93.6592C79.9086 93.6592 79.0056 100.378 75.7498 101.891C72.494 103.404 71.5424 103.554 71.5424 103.554L72.2227 105.257C72.2227 105.257 76.1466 105.22 78.4225 102.585C80.6983 99.9502 81.6337 93.6592 81.6337 93.6592H79.9086Z" fill="#231F20"/>
<path d="M77.5762 77.3488C76.0212 77.821 74.4905 80.8636 74.4945 84.2734C74.4945 86.1539 75.762 87.6631 76.576 89.5839C78.872 94.9831 79.7143 96.1493 81.6459 96.8474C82.553 97.1743 83.4115 97.6545 84.3024 96.9644C85.3067 96.1574 85.4929 94.059 85.4929 92.3198C85.4929 90.3022 83.3872 87.4492 82.5085 84.6527C81.6297 81.8563 80.2084 76.5458 77.5762 77.3488Z" fill="#FFC4B2"/>
<path d="M78.7019 76.2026C78.7019 76.2026 79.8196 76.6707 80.8239 78.4019C81.6453 79.9103 82.2816 81.5117 82.719 83.1716C83.0509 84.1866 83.4737 85.1698 83.9825 86.1093C83.3534 87.5555 82.1778 88.6965 80.7105 89.2851C79.2935 89.9473 77.7589 90.3231 76.1953 90.3908C76.1953 90.3908 74.041 87.0172 73.5145 84.7655C72.9881 82.5139 73.2796 79.1161 74.7294 77.7401C76.1791 76.364 78.7019 76.2026 78.7019 76.2026Z" fill="#839E38"/>
<path d="M76.5881 75.2667C75.4916 75.5869 74.4859 76.1594 73.6524 76.9382C72.8188 77.717 72.1807 78.6801 71.7894 79.7499C70.1291 83.9627 70.2951 89.2853 70.2951 89.2853L72.5669 89.6202C72.5669 89.6202 72.3037 81.8765 74.4945 79.2939C76.6852 76.7113 78.7019 76.2029 78.7019 76.2029C78.7019 76.2029 77.9122 74.9317 76.5881 75.2667Z" fill="#231F20"/>
<path d="M70.1332 86.759C68.6916 86.7187 66.4886 88.3247 65.4479 90.1164C64.4072 91.9081 64.2331 99.4904 64.5692 102.779C64.9053 106.068 67.9424 109.123 71.5424 108.772C75.1424 108.421 77.3534 105.947 77.2117 103.953C77.07 101.96 74.9804 96.1694 74.7537 92.5457C74.5269 88.922 74.4621 86.9084 70.1332 86.759Z" fill="#442739"/>
<path d="M66.278 98.0298C66.278 98.0298 65.6747 99.999 66.9381 100.314C68.2015 100.629 68.3392 98.2638 68.3392 98.2638L66.278 98.0298Z" fill="white"/>
<path d="M64.5368 95.33C64.5368 95.33 66.1566 97.1701 68.149 97.2751C70.1413 97.38 71.7935 96.3833 72.0932 95.0193C72.3929 93.6554 71.8826 91.1212 72.7249 90.3707C73.5672 89.6201 73.1785 91.4037 73.1299 92.3439C73.0813 93.2841 74.3123 95.7901 70.8055 97.7956C66.756 100.104 64.472 96.3792 64.472 96.3792L64.5368 95.33Z" fill="#231F20"/>
</g>
<defs>
<clipPath id="clip0_2427_7837">
<rect width="126" height="155" fill="white"/>
</clipPath>
</defs>
</svg>
