<svg width="48" height="121" viewBox="0 0 48 121" fill="none" xmlns="http://www.w3.org/2000/svg">
<g clip-path="url(#clip0_2423_1969)">
<path d="M36.7373 71.4319L48.0206 77.4429V69.8341C48.0478 68.8853 47.8454 67.944 47.4308 67.0906L42.5636 57.8428C41.5378 55.8494 39.2504 55.4949 36.7578 56.9334L36.7373 71.4319Z" fill="url(#paint0_linear_2423_1969)"/>
<path d="M11.2832 71.4319L-1.60073e-05 77.4429V69.8341C-0.0272438 68.8853 0.175117 67.944 0.589791 67.0906L5.45698 57.8428C6.48273 55.8494 8.77015 55.4949 11.2627 56.9334L11.2832 71.4319Z" fill="url(#paint1_linear_2423_1969)"/>
<path style="mix-blend-mode:screen" d="M29.9878 97.1508C29.9878 103.537 27.3055 120.27 24.0026 120.27C20.6997 120.27 18.0122 103.557 18.0122 97.1508C18.0122 91.5302 20.6945 90.1738 24.0026 90.1738C27.3106 90.1738 29.9878 91.5302 29.9878 97.1508Z" fill="url(#paint2_linear_2423_1969)"/>
<path style="mix-blend-mode:screen" d="M29.6699 97.0738C29.6699 103.306 27.1055 119.859 24.0026 119.859C20.8997 119.859 18.361 103.306 18.361 97.0738C18.361 91.5867 20.8946 90.2612 24.0026 90.2612C27.1106 90.2612 29.6699 91.5867 29.6699 97.0738Z" fill="url(#paint3_linear_2423_1969)"/>
<path style="mix-blend-mode:screen" d="M29.3468 96.997C29.3468 103.075 26.9516 119.469 24.0026 119.469C21.0536 119.469 18.6533 103.075 18.6533 96.997C18.6533 91.6435 21.0484 90.354 24.0026 90.354C26.9568 90.354 29.3468 91.6435 29.3468 96.997Z" fill="url(#paint4_linear_2423_1969)"/>
<path style="mix-blend-mode:screen" d="M29.0287 96.9195C29.0287 102.848 26.7772 119.083 24.0025 119.083C21.2278 119.083 18.9763 102.848 18.9763 96.9195C18.9763 91.6996 21.2278 90.4409 24.0076 90.4409C26.7874 90.4409 29.0287 91.6996 29.0287 96.9195Z" fill="url(#paint5_linear_2423_1969)"/>
<path style="mix-blend-mode:screen" d="M28.721 96.8373C28.721 102.617 26.613 118.693 24.0128 118.693C21.4125 118.693 19.2943 102.617 19.2943 96.8373C19.2943 91.7511 21.3971 90.5283 24.0025 90.5283C26.6079 90.5283 28.721 91.7511 28.721 96.8373Z" fill="url(#paint6_linear_2423_1969)"/>
<path style="mix-blend-mode:screen" d="M28.3876 96.7604C28.3876 102.412 26.4233 118.303 24.0025 118.303C21.5817 118.303 19.6123 102.376 19.6123 96.7604C19.6123 91.8077 21.5766 90.5952 24.0025 90.5952C26.4284 90.5952 28.3876 91.8077 28.3876 96.7604Z" fill="url(#paint7_linear_2423_1969)"/>
<path style="mix-blend-mode:screen" d="M28.0696 96.6833C28.0696 102.16 26.2489 117.912 24.0025 117.912C21.7561 117.912 19.9303 102.16 19.9303 96.6833C19.9303 91.8642 21.751 90.7031 24.0025 90.7031C26.254 90.7031 28.0696 91.8642 28.0696 96.6833Z" fill="url(#paint8_linear_2423_1969)"/>
<path style="mix-blend-mode:screen" d="M27.7517 96.6063C27.7517 101.929 26.0694 117.527 24.0025 117.527C21.9356 117.527 20.2534 101.929 20.2534 96.6063C20.2534 91.9208 21.9305 90.7905 24.0025 90.7905C26.0746 90.7905 27.7517 91.9208 27.7517 96.6063Z" fill="url(#paint9_linear_2423_1969)"/>
<path style="mix-blend-mode:screen" d="M27.4286 96.5293C27.4286 101.698 25.8899 117.136 24.0025 117.136C22.1152 117.136 20.5714 101.724 20.5714 96.5293C20.5714 91.9774 22.11 90.8779 24.0025 90.8779C25.8951 90.8779 27.4286 91.9774 27.4286 96.5293Z" fill="url(#paint10_linear_2423_1969)"/>
<path style="mix-blend-mode:screen" d="M27.1106 96.4521C27.1106 101.472 25.7156 116.746 24.0026 116.746C22.2896 116.746 20.8894 101.472 20.8894 96.4521C20.8894 92.0337 22.2844 90.9702 24.0026 90.9702C25.7207 90.9702 27.1106 92.0337 27.1106 96.4521Z" fill="url(#paint11_linear_2423_1969)"/>
<path style="mix-blend-mode:screen" d="M26.7926 96.3751C26.7926 101.24 25.5412 116.361 24.0026 116.361C22.4639 116.361 21.2125 101.24 21.2125 96.3751C21.2125 92.0903 22.4588 91.0576 24.0026 91.0576C25.5463 91.0576 26.7926 92.0903 26.7926 96.3751Z" fill="url(#paint12_linear_2423_1969)"/>
<path style="mix-blend-mode:screen" d="M26.4695 96.3237C26.4695 101.04 25.3668 115.996 24.0026 115.996C22.6383 115.996 21.5408 101.014 21.5408 96.3237C21.5408 92.1725 22.6435 91.186 24.0128 91.186C25.3822 91.186 26.4695 92.1468 26.4695 96.3237Z" fill="url(#paint13_linear_2423_1969)"/>
<path d="M29.362 88.2373H18.6378V89.7786V89.8197C18.6378 91.5459 21.0381 92.9485 24.0025 92.9485C26.9669 92.9485 29.362 91.5459 29.362 89.8197V89.7786V88.2373Z" fill="url(#paint14_linear_2423_1969)"/>
<path d="M36.809 74.7969H11.1909V82.4211C11.1909 82.4571 11.1909 82.4879 11.1909 82.5239C11.1909 86.634 16.9249 89.9992 24.0128 89.9992C31.1007 89.9992 36.8347 86.6494 36.8347 82.5239C36.8347 82.4879 36.8347 82.4571 36.8347 82.4211L36.809 74.7969Z" fill="url(#paint15_linear_2423_1969)"/>
<g style="mix-blend-mode:multiply" opacity="0.5">
<path d="M36.809 75.064H11.1909V81.1418C11.1909 81.1726 11.1909 81.1983 11.1909 81.224C11.1909 84.5172 16.9249 87.1837 24.0128 87.1837C31.1007 87.1837 36.8347 84.5172 36.8347 81.224C36.8347 81.1983 36.8347 81.1726 36.8347 81.1418L36.809 75.064Z" fill="#C7BCD6"/>
</g>
<path d="M44.0303 49.5712C45.3988 38.6867 42.7585 27.6757 36.6038 18.6015C36.3406 18.2213 36.0739 17.8463 35.8038 17.4763L24.0025 1.27734L12.2064 17.4763C11.9328 17.8463 11.6661 18.2213 11.4063 18.6015C5.24806 27.6744 2.604 38.6854 3.96958 49.5712L6.98529 74.8279C6.98529 74.8741 6.98529 74.9204 6.98529 74.9666C6.98529 80.4485 14.6015 84.8925 24.0025 84.8925C33.4035 84.8925 41.03 80.4331 41.03 74.9512C41.03 74.9049 41.03 74.8587 41.03 74.8125L44.0303 49.5712Z" fill="url(#paint16_linear_2423_1969)"/>
<path d="M35.8038 17.4763L24.0025 1.27734L12.2064 17.4763C12.1397 17.5637 12.0781 17.6613 12.0115 17.7486C14.063 20.4305 18.6789 22.3006 24.0128 22.3006C29.3467 22.3006 33.9677 20.4305 36.0089 17.7486C35.932 17.6613 35.8704 17.5637 35.8038 17.4763Z" fill="url(#paint17_linear_2423_1969)"/>
<path opacity="0.3" d="M35.8038 17.4763L24.0025 1.27734L12.2064 17.4763C12.1397 17.5637 12.0781 17.6613 12.0115 17.7486C14.063 20.4305 18.6789 22.3006 24.0128 22.3006C29.3467 22.3006 33.9677 20.4305 36.0089 17.7486C35.932 17.6613 35.8704 17.5637 35.8038 17.4763Z" fill="url(#paint18_linear_2423_1969)"/>
<path style="mix-blend-mode:multiply" opacity="0.5" d="M44.0303 49.5712C45.3988 38.6867 42.7585 27.6757 36.6038 18.6015C36.3406 18.2213 36.0739 17.8463 35.8038 17.4763L24.0025 1.27734L12.2064 17.4763C11.9328 17.8463 11.6661 18.2213 11.4063 18.6015C5.24806 27.6744 2.604 38.6854 3.96958 49.5712L6.98529 74.8279C6.98529 74.8741 6.98529 74.9204 6.98529 74.9666C6.98529 80.4485 14.6015 84.8925 24.0025 84.8925C33.4035 84.8925 41.03 80.4331 41.03 74.9512C41.03 74.9049 41.03 74.8587 41.03 74.8125L44.0303 49.5712Z" fill="url(#paint19_radial_2423_1969)"/>
<path style="mix-blend-mode:color-dodge" opacity="0.7" d="M31.9932 35.5195C28.6133 21.9047 21.6023 6.23491 23.2743 5.4694C26.2028 4.13875 38.4656 19.4078 41.8301 33.0226C44.8048 45.0087 41.4454 74.8482 38.3528 75.6188C35.2602 76.3895 34.973 47.5159 31.9932 35.5195Z" fill="url(#paint20_radial_2423_1969)"/>
<path d="M21.4227 56.25C21.4227 58.6082 20.6124 60.2779 19.2943 61.0845C19.2533 61.0845 18.0224 61.8912 17.9813 61.9117C16.612 62.6824 17.4685 60.9356 15.417 59.7282C11.2217 57.3032 7.81616 51.4258 7.81616 46.6015C7.81616 44.2177 5.61593 44.1971 6.96479 43.4008L8.53419 42.5376C9.90356 41.7927 11.7756 41.9314 13.8373 43.1233C18.0224 45.5689 21.4227 51.4463 21.4227 56.25Z" fill="url(#paint21_linear_2423_1969)"/>
<path d="M19.9251 57.1543C19.9251 61.9785 16.5196 63.9206 12.3295 61.4956C8.13926 59.0706 4.72864 53.1932 4.72864 48.3689C4.72864 43.5447 8.129 41.6026 12.3089 44.0276C16.4889 46.4526 19.9251 52.33 19.9251 57.1543Z" fill="url(#paint22_linear_2423_1969)"/>
<path d="M18.4943 56.327C18.4943 60.247 15.7351 61.8243 12.3398 59.8514C8.94458 57.8786 6.15454 53.1108 6.15454 49.1959C6.15454 45.2811 8.91381 43.6987 12.309 45.6715C15.7043 47.6444 18.4943 52.4121 18.4943 56.327Z" fill="url(#paint23_linear_2423_1969)"/>
<path style="mix-blend-mode:screen" d="M17.2121 54.3747C17.2121 57.3237 15.135 58.5105 12.5962 57.0257C10.0575 55.5409 7.98035 51.9548 7.98035 49.0058C7.98035 46.0568 10.0575 44.87 12.6219 46.3548C15.1862 47.8396 17.2121 51.4256 17.2121 54.3747Z" fill="url(#paint24_linear_2423_1969)"/>
<path d="M13.5399 59.3326C10.1345 57.3649 7.38544 52.592 7.38544 48.672C7.38544 46.8687 7.97525 45.5894 8.92407 44.8701C7.25722 45.1732 6.15967 46.7145 6.15967 49.1857C6.15967 53.1006 8.91894 57.8735 12.3142 59.8412C14.1503 60.9047 15.7966 60.9355 16.93 60.1238C15.7422 60.2702 14.5409 59.9899 13.5399 59.3326Z" fill="url(#paint25_linear_2423_1969)"/>
<path style="mix-blend-mode:color-dodge" d="M12.55 43.8374C10.5395 42.6712 8.44699 42.7534 7.49304 43.2055C9.12925 42.859 10.8358 43.1629 12.2525 44.0532C16.4478 46.4782 19.8533 52.3556 19.8533 57.1799C19.8533 59.6871 18.7096 61.4647 17.2325 62.2045C18.7712 61.6342 20.1457 59.8258 20.1457 56.9641C20.1457 52.1399 16.7453 46.2624 12.55 43.8374Z" fill="url(#paint26_radial_2423_1969)"/>
<path style="mix-blend-mode:color-dodge" d="M16.8479 36.4188C20.9099 20.076 29.3261 1.27731 27.3259 0.347392C23.8076 -1.25555 9.95997 17.2297 5.89799 33.5725C2.30787 47.958 4.01574 64.8762 7.73409 65.8061C11.4524 66.736 13.2731 50.8093 16.8479 36.4188Z" fill="url(#paint27_radial_2423_1969)"/>
<path d="M11.391 81.8614L2.4208 99.0622L0.610352 97.9885V90.7084C0.627606 89.5915 0.817928 88.4839 1.17451 87.4255L5.83142 73.1685C6.85717 70.0859 9.00099 67.2499 11.391 65.873L13.1296 66.9006L11.391 81.8614Z" fill="url(#paint28_linear_2423_1969)"/>
<path d="M13.2014 82.9352L2.43103 99.0622V91.7822C2.44758 90.6647 2.6397 89.5568 3.00032 88.4992L7.64697 74.232C8.64708 71.1494 10.8165 68.3186 13.2014 66.9365V82.9352Z" fill="url(#paint29_linear_2423_1969)"/>
<path style="mix-blend-mode:color-dodge" d="M2.56431 91.9775C2.58129 90.86 2.7734 89.7522 3.13361 88.6945L7.78538 74.4375C8.74446 71.5039 10.7703 68.7861 13.027 67.3373V66.9058C10.6421 68.2827 8.47264 71.1289 7.47253 74.2012L2.83101 88.4582C2.47188 89.516 2.28149 90.6239 2.26685 91.7411V99.0212L2.5797 98.5485L2.56431 91.9775Z" fill="url(#paint30_radial_2423_1969)"/>
<path d="M36.609 81.8614L45.5792 99.0622L47.3896 97.9885V90.7084C47.375 89.5912 47.1846 88.4833 46.8255 87.4255L42.1686 73.1685C41.1428 70.0859 38.999 67.2499 36.609 65.873L34.8704 66.9006L36.609 81.8614Z" fill="url(#paint31_linear_2423_1969)"/>
<path d="M34.7986 82.9352L45.569 99.0622V91.7822C45.5524 90.6647 45.3603 89.5568 44.9997 88.4992L40.353 74.232C39.3273 71.1494 37.1835 68.3186 34.7986 66.9365V82.9352Z" fill="url(#paint32_linear_2423_1969)"/>
<path style="mix-blend-mode:color-dodge" d="M45.2459 88.4992L40.5941 74.232C39.5684 71.1494 37.4194 68.3186 35.0345 66.9365V67.0393C37.3834 68.7704 39.1306 71.1964 40.03 73.9751L44.6817 88.2321C45.0415 89.2899 45.2336 90.3976 45.251 91.515V98.2248L45.8152 99.0674V91.7822C45.7986 90.6647 45.6065 89.5568 45.2459 88.4992Z" fill="url(#paint33_radial_2423_1969)"/>
</g>
<defs>
<linearGradient id="paint0_linear_2423_1969" x1="40.7172" y1="67.5632" x2="71.4575" y2="58.3755" gradientUnits="userSpaceOnUse">
<stop offset="0.04" stop-color="#6B24D6"/>
<stop offset="0.29" stop-color="#7733DC"/>
<stop offset="0.79" stop-color="#975CED"/>
<stop offset="1" stop-color="#A56EF4"/>
</linearGradient>
<linearGradient id="paint1_linear_2423_1969" x1="24.3257" y1="71.2058" x2="-12.4946" y2="62.9614" gradientUnits="userSpaceOnUse">
<stop offset="0.04" stop-color="#6B24D6"/>
<stop offset="0.29" stop-color="#7733DC"/>
<stop offset="0.79" stop-color="#975CED"/>
<stop offset="1" stop-color="#A56EF4"/>
</linearGradient>
<linearGradient id="paint2_linear_2423_1969" x1="24.0026" y1="94.0836" x2="24.0026" y2="114.881" gradientUnits="userSpaceOnUse">
<stop stop-color="#F8299A"/>
<stop offset="0.1" stop-color="#C9217D"/>
<stop offset="0.23" stop-color="#94195C"/>
<stop offset="0.36" stop-color="#671140"/>
<stop offset="0.49" stop-color="#420B29"/>
<stop offset="0.62" stop-color="#250617"/>
<stop offset="0.75" stop-color="#10030A"/>
<stop offset="0.88" stop-color="#040103"/>
<stop offset="1"/>
</linearGradient>
<linearGradient id="paint3_linear_2423_1969" x1="24.0026" y1="94.1093" x2="24.0026" y2="114.578" gradientUnits="userSpaceOnUse">
<stop stop-color="#F93A9B"/>
<stop offset="0.08" stop-color="#D63285"/>
<stop offset="0.22" stop-color="#9E2562"/>
<stop offset="0.36" stop-color="#6E1A44"/>
<stop offset="0.49" stop-color="#46102C"/>
<stop offset="0.63" stop-color="#270919"/>
<stop offset="0.76" stop-color="#12040B"/>
<stop offset="0.88" stop-color="#040103"/>
<stop offset="1"/>
</linearGradient>
<linearGradient id="paint4_linear_2423_1969" x1="24.0026" y1="94.1353" x2="24.0026" y2="114.275" gradientUnits="userSpaceOnUse">
<stop stop-color="#F94B9C"/>
<stop offset="0.05" stop-color="#E4458F"/>
<stop offset="0.2" stop-color="#A9336A"/>
<stop offset="0.35" stop-color="#752349"/>
<stop offset="0.49" stop-color="#4B172F"/>
<stop offset="0.63" stop-color="#2A0D1B"/>
<stop offset="0.77" stop-color="#13060C"/>
<stop offset="0.89" stop-color="#050103"/>
<stop offset="1"/>
</linearGradient>
<linearGradient id="paint5_linear_2423_1969" x1="24.0025" y1="94.1606" x2="24.0025" y2="113.966" gradientUnits="userSpaceOnUse">
<stop stop-color="#FA5C9E"/>
<stop offset="0.01" stop-color="#F55A9B"/>
<stop offset="0.17" stop-color="#B54373"/>
<stop offset="0.33" stop-color="#7E2E50"/>
<stop offset="0.49" stop-color="#511E33"/>
<stop offset="0.64" stop-color="#2E111D"/>
<stop offset="0.77" stop-color="#15080D"/>
<stop offset="0.9" stop-color="#050203"/>
<stop offset="1"/>
</linearGradient>
<linearGradient id="paint6_linear_2423_1969" x1="24.0025" y1="94.1915" x2="24.0025" y2="113.663" gradientUnits="userSpaceOnUse">
<stop stop-color="#FB6D9F"/>
<stop offset="0.14" stop-color="#C3557C"/>
<stop offset="0.32" stop-color="#893B57"/>
<stop offset="0.48" stop-color="#582638"/>
<stop offset="0.64" stop-color="#32161F"/>
<stop offset="0.78" stop-color="#160A0E"/>
<stop offset="0.9" stop-color="#060304"/>
<stop offset="1"/>
</linearGradient>
<linearGradient id="paint7_linear_2423_1969" x1="24.0025" y1="94.2173" x2="24.0025" y2="113.36" gradientUnits="userSpaceOnUse">
<stop stop-color="#FB7EA0"/>
<stop offset="0.1" stop-color="#D56B88"/>
<stop offset="0.29" stop-color="#954B5F"/>
<stop offset="0.47" stop-color="#60303D"/>
<stop offset="0.63" stop-color="#361B23"/>
<stop offset="0.78" stop-color="#190C10"/>
<stop offset="0.91" stop-color="#060304"/>
<stop offset="1"/>
</linearGradient>
<linearGradient id="paint8_linear_2423_1969" x1="24.0025" y1="94.243" x2="24.0025" y2="113.057" gradientUnits="userSpaceOnUse">
<stop stop-color="#FC8FA1"/>
<stop offset="0.05" stop-color="#EB8596"/>
<stop offset="0.25" stop-color="#A45D69"/>
<stop offset="0.45" stop-color="#6A3C44"/>
<stop offset="0.62" stop-color="#3C2226"/>
<stop offset="0.78" stop-color="#1B0F11"/>
<stop offset="0.91" stop-color="#070405"/>
<stop offset="1"/>
</linearGradient>
<linearGradient id="paint9_linear_2423_1969" x1="24.0025" y1="94.2687" x2="24.0025" y2="112.754" gradientUnits="userSpaceOnUse">
<stop stop-color="#FCA0A2"/>
<stop offset="0.21" stop-color="#B67475"/>
<stop offset="0.42" stop-color="#764B4C"/>
<stop offset="0.61" stop-color="#432B2B"/>
<stop offset="0.78" stop-color="#1F1314"/>
<stop offset="0.91" stop-color="#080505"/>
<stop offset="1"/>
</linearGradient>
<linearGradient id="paint10_linear_2423_1969" x1="24.0025" y1="94.2945" x2="24.0025" y2="112.451" gradientUnits="userSpaceOnUse">
<stop stop-color="#FDB1A3"/>
<stop offset="0.14" stop-color="#CF9185"/>
<stop offset="0.38" stop-color="#865E56"/>
<stop offset="0.59" stop-color="#4C3531"/>
<stop offset="0.77" stop-color="#231816"/>
<stop offset="0.91" stop-color="#090706"/>
<stop offset="1"/>
</linearGradient>
<linearGradient id="paint11_linear_2423_1969" x1="24.0026" y1="94.32" x2="24.0026" y2="112.142" gradientUnits="userSpaceOnUse">
<stop stop-color="#FEC2A5"/>
<stop offset="0.05" stop-color="#EFB69B"/>
<stop offset="0.32" stop-color="#9B7665"/>
<stop offset="0.56" stop-color="#584439"/>
<stop offset="0.76" stop-color="#291F1A"/>
<stop offset="0.91" stop-color="#0B0807"/>
<stop offset="1"/>
</linearGradient>
<linearGradient id="paint12_linear_2423_1969" x1="24.0026" y1="94.3457" x2="24.0026" y2="111.839" gradientUnits="userSpaceOnUse">
<stop stop-color="#FED3A6"/>
<stop offset="0.23" stop-color="#B79877"/>
<stop offset="0.51" stop-color="#695745"/>
<stop offset="0.74" stop-color="#302820"/>
<stop offset="0.91" stop-color="#0D0B09"/>
<stop offset="1"/>
</linearGradient>
<linearGradient id="paint13_linear_2423_1969" x1="24.0026" y1="94.3714" x2="24.0026" y2="111.536" gradientUnits="userSpaceOnUse">
<stop stop-color="#FFE4A7"/>
<stop offset="0.1" stop-color="#E1CA94"/>
<stop offset="0.43" stop-color="#827455"/>
<stop offset="0.71" stop-color="#3C3627"/>
<stop offset="0.9" stop-color="#110F0B"/>
<stop offset="1"/>
</linearGradient>
<linearGradient id="paint14_linear_2423_1969" x1="18.6891" y1="90.5801" x2="29.2441" y2="90.5801" gradientUnits="userSpaceOnUse">
<stop offset="0.02" stop-color="#45108A"/>
<stop offset="0.29" stop-color="#3D065F"/>
<stop offset="1" stop-color="#10054D"/>
</linearGradient>
<linearGradient id="paint15_linear_2423_1969" x1="11.314" y1="82.3955" x2="36.527" y2="82.3955" gradientUnits="userSpaceOnUse">
<stop stop-color="#5C1CCC"/>
<stop offset="0.03" stop-color="#6323D0"/>
<stop offset="0.07" stop-color="#7538DA"/>
<stop offset="0.12" stop-color="#9259EA"/>
<stop offset="0.14" stop-color="#A56EF4"/>
<stop offset="0.23" stop-color="#C994FF"/>
<stop offset="0.28" stop-color="#AE7AF0"/>
<stop offset="0.38" stop-color="#7945D1"/>
<stop offset="0.54" stop-color="#4916A1"/>
<stop offset="0.62" stop-color="#4B17A4"/>
<stop offset="0.69" stop-color="#521AAF"/>
<stop offset="0.76" stop-color="#5D1EC1"/>
<stop offset="0.82" stop-color="#6B24D6"/>
<stop offset="0.94" stop-color="#5B1DBD"/>
<stop offset="1" stop-color="#531AB0"/>
</linearGradient>
<linearGradient id="paint16_linear_2423_1969" x1="3.83624" y1="43.0772" x2="43.9072" y2="43.0772" gradientUnits="userSpaceOnUse">
<stop offset="0.01" stop-color="#C1A1D5"/>
<stop offset="0.04" stop-color="#C8ABDA"/>
<stop offset="0.1" stop-color="#DAC6E6"/>
<stop offset="0.18" stop-color="#F7F2F9"/>
<stop offset="0.2" stop-color="white"/>
<stop offset="0.23" stop-color="#F9F5FB"/>
<stop offset="0.29" stop-color="#E9DBF2"/>
<stop offset="0.36" stop-color="#D1B4E3"/>
<stop offset="0.43" stop-color="#B395D6"/>
<stop offset="0.49" stop-color="#9C7DCB"/>
<stop offset="0.56" stop-color="#8E6EC5"/>
<stop offset="0.61" stop-color="#8969C3"/>
<stop offset="0.76" stop-color="#9471C6"/>
<stop offset="1" stop-color="#B086CC"/>
</linearGradient>
<linearGradient id="paint17_linear_2423_1969" x1="16.3196" y1="9.50785" x2="37.4553" y2="18.052" gradientUnits="userSpaceOnUse">
<stop stop-color="#5C1CCC"/>
<stop offset="0.04" stop-color="#6323D0"/>
<stop offset="0.09" stop-color="#7538DA"/>
<stop offset="0.16" stop-color="#9259EA"/>
<stop offset="0.19" stop-color="#A56EF4"/>
<stop offset="0.34" stop-color="#7945D1"/>
<stop offset="0.44" stop-color="#6D37C7"/>
<stop offset="0.6" stop-color="#5E27BA"/>
<stop offset="0.77" stop-color="#561DB2"/>
<stop offset="1" stop-color="#531AB0"/>
</linearGradient>
<linearGradient id="paint18_linear_2423_1969" x1="33.2753" y1="8.41353" x2="5.97206" y2="21.7597" gradientUnits="userSpaceOnUse">
<stop stop-color="#5C1CCC"/>
<stop offset="0.04" stop-color="#6323D0"/>
<stop offset="0.09" stop-color="#7538DA"/>
<stop offset="0.16" stop-color="#9259EA"/>
<stop offset="0.19" stop-color="#A56EF4"/>
<stop offset="0.34" stop-color="#7945D1"/>
<stop offset="0.44" stop-color="#6D37C7"/>
<stop offset="0.6" stop-color="#5E27BA"/>
<stop offset="0.77" stop-color="#561DB2"/>
<stop offset="1" stop-color="#531AB0"/>
</linearGradient>
<radialGradient id="paint19_radial_2423_1969" cx="0" cy="0" r="1" gradientUnits="userSpaceOnUse" gradientTransform="translate(23.9974 43.0762) scale(28.4389 45.5812)">
<stop offset="0.53" stop-color="white"/>
<stop offset="0.6" stop-color="#FBFAFD"/>
<stop offset="0.68" stop-color="#EFECF6"/>
<stop offset="0.76" stop-color="#DCD5EA"/>
<stop offset="0.85" stop-color="#C0B4DA"/>
<stop offset="0.95" stop-color="#9E8BC5"/>
<stop offset="1" stop-color="#8770B8"/>
</radialGradient>
<radialGradient id="paint20_radial_2423_1969" cx="0" cy="0" r="1" gradientUnits="userSpaceOnUse" gradientTransform="translate(54.8059 85.2925) rotate(164.72) scale(7.75612 34.0285)">
<stop stop-color="#972A74"/>
<stop offset="0.02" stop-color="#8C276C"/>
<stop offset="0.11" stop-color="#671D4F"/>
<stop offset="0.21" stop-color="#471437"/>
<stop offset="0.32" stop-color="#2D0D23"/>
<stop offset="0.43" stop-color="#190713"/>
<stop offset="0.57" stop-color="#0B0308"/>
<stop offset="0.73" stop-color="#020102"/>
<stop offset="1"/>
</radialGradient>
<linearGradient id="paint21_linear_2423_1969" x1="9.18041" y1="42.0085" x2="20.1022" y2="60.8935" gradientUnits="userSpaceOnUse">
<stop stop-color="#5C1CCC"/>
<stop offset="0.03" stop-color="#6323D0"/>
<stop offset="0.07" stop-color="#7538DA"/>
<stop offset="0.12" stop-color="#9259EA"/>
<stop offset="0.14" stop-color="#A56EF4"/>
<stop offset="0.23" stop-color="#C994FF"/>
<stop offset="0.28" stop-color="#AE7AF0"/>
<stop offset="0.38" stop-color="#7945D1"/>
<stop offset="0.54" stop-color="#4916A1"/>
<stop offset="0.62" stop-color="#4B17A4"/>
<stop offset="0.69" stop-color="#521AAF"/>
<stop offset="0.76" stop-color="#5D1EC1"/>
<stop offset="0.82" stop-color="#6B24D6"/>
<stop offset="0.94" stop-color="#5B1DBD"/>
<stop offset="1" stop-color="#531AB0"/>
</linearGradient>
<linearGradient id="paint22_linear_2423_1969" x1="4.72864" y1="52.7616" x2="19.9251" y2="52.7616" gradientUnits="userSpaceOnUse">
<stop offset="0.04" stop-color="#A56EF4"/>
<stop offset="0.36" stop-color="#C994FF"/>
<stop offset="0.54" stop-color="#B379F5"/>
<stop offset="0.91" stop-color="#7935DC"/>
<stop offset="1" stop-color="#6B24D6"/>
</linearGradient>
<linearGradient id="paint23_linear_2423_1969" x1="16.53" y1="60.0518" x2="7.86559" y2="45.0783" gradientUnits="userSpaceOnUse">
<stop offset="0.04" stop-color="#138BBD"/>
<stop offset="0.23" stop-color="#169AC7"/>
<stop offset="0.59" stop-color="#1FC3DF"/>
<stop offset="1" stop-color="#2AF6FF"/>
</linearGradient>
<linearGradient id="paint24_linear_2423_1969" x1="6.3494" y1="43.863" x2="14.3313" y2="53.868" gradientUnits="userSpaceOnUse">
<stop stop-color="white"/>
<stop offset="1"/>
</linearGradient>
<linearGradient id="paint25_linear_2423_1969" x1="14.8939" y1="61.2592" x2="6.28092" y2="46.3627" gradientUnits="userSpaceOnUse">
<stop stop-color="#5C1CCC"/>
<stop offset="0.23" stop-color="#BA85FF"/>
<stop offset="0.38" stop-color="#7945D1"/>
<stop offset="0.54" stop-color="#4916A1"/>
<stop offset="0.61" stop-color="#4B17A4"/>
<stop offset="0.68" stop-color="#521AAF"/>
<stop offset="0.74" stop-color="#5D1EC1"/>
<stop offset="0.79" stop-color="#6B24D6"/>
<stop offset="0.93" stop-color="#5B1DBD"/>
<stop offset="1" stop-color="#531AB0"/>
</linearGradient>
<radialGradient id="paint26_radial_2423_1969" cx="0" cy="0" r="1" gradientUnits="userSpaceOnUse" gradientTransform="translate(13.8219 52.5509) scale(8.15472 8.16886)">
<stop stop-color="white"/>
<stop offset="1"/>
</radialGradient>
<radialGradient id="paint27_radial_2423_1969" cx="0" cy="0" r="1" gradientUnits="userSpaceOnUse" gradientTransform="translate(12.4261 -2.46131) rotate(15.2803) scale(7.27539 31.9194)">
<stop stop-color="#972A74"/>
<stop offset="0.02" stop-color="#8C276C"/>
<stop offset="0.11" stop-color="#671D4F"/>
<stop offset="0.21" stop-color="#471437"/>
<stop offset="0.32" stop-color="#2D0D23"/>
<stop offset="0.43" stop-color="#190713"/>
<stop offset="0.57" stop-color="#0B0308"/>
<stop offset="0.73" stop-color="#020102"/>
<stop offset="1"/>
</radialGradient>
<linearGradient id="paint28_linear_2423_1969" x1="2.7593" y1="95.4505" x2="13.2445" y2="63.4074" gradientUnits="userSpaceOnUse">
<stop offset="0.2" stop-color="#7734DC"/>
<stop offset="0.39" stop-color="#8C4FE7"/>
<stop offset="0.59" stop-color="#A56EF4"/>
<stop offset="0.67" stop-color="#BA8AFF"/>
<stop offset="0.8" stop-color="#A067F1"/>
<stop offset="1" stop-color="#9155EA"/>
</linearGradient>
<linearGradient id="paint29_linear_2423_1969" x1="2.50283" y1="84.5946" x2="38.4092" y2="73.8603" gradientUnits="userSpaceOnUse">
<stop offset="0.04" stop-color="#6B24D6"/>
<stop offset="0.29" stop-color="#7733DC"/>
<stop offset="0.79" stop-color="#975CED"/>
<stop offset="1" stop-color="#A56EF4"/>
</linearGradient>
<radialGradient id="paint30_radial_2423_1969" cx="0" cy="0" r="1" gradientUnits="userSpaceOnUse" gradientTransform="translate(14.1151 79.7426) scale(11.9684 11.9891)">
<stop stop-color="white"/>
<stop offset="1"/>
</radialGradient>
<linearGradient id="paint31_linear_2423_1969" x1="42.0198" y1="85.3088" x2="36.2989" y2="68.4171" gradientUnits="userSpaceOnUse">
<stop offset="0.04" stop-color="#6B24D6"/>
<stop offset="0.19" stop-color="#7733DC"/>
<stop offset="0.2" stop-color="#7734DC"/>
<stop offset="0.39" stop-color="#8C4FE7"/>
<stop offset="0.59" stop-color="#A56EF4"/>
<stop offset="0.67" stop-color="#BA8AFF"/>
<stop offset="0.8" stop-color="#A067F1"/>
<stop offset="1" stop-color="#9155EA"/>
</linearGradient>
<linearGradient id="paint32_linear_2423_1969" x1="67.5918" y1="89.1568" x2="11.5561" y2="76.6162" gradientUnits="userSpaceOnUse">
<stop offset="0.04" stop-color="#6B24D6"/>
<stop offset="0.29" stop-color="#7733DC"/>
<stop offset="0.79" stop-color="#975CED"/>
<stop offset="1" stop-color="#A56EF4"/>
</linearGradient>
<radialGradient id="paint33_radial_2423_1969" cx="0" cy="0" r="1" gradientUnits="userSpaceOnUse" gradientTransform="translate(34.9576 78.3215) scale(11.9603 11.981)">
<stop stop-color="white"/>
<stop offset="1"/>
</radialGradient>
<clipPath id="clip0_2423_1969">
<rect width="48" height="120" fill="white" transform="translate(0 0.25)"/>
</clipPath>
</defs>
</svg>
