<svg width="130" height="199" viewBox="0 0 130 199" fill="none" xmlns="http://www.w3.org/2000/svg">
<path fill-rule="evenodd" clip-rule="evenodd" d="M19.5812 204.926C15.8502 204.926 16.3202 193.533 19.3961 193.533C22.472 193.533 22.6714 204.94 19.5812 204.926Z" fill="#BA8B80"/>
<path fill-rule="evenodd" clip-rule="evenodd" d="M15.0955 206.15C10.9658 206.15 11.4784 193.547 14.8961 193.476C18.3138 193.405 18.5274 206.15 15.0955 206.15Z" fill="#BA8B80"/>
<path fill-rule="evenodd" clip-rule="evenodd" d="M10.4817 203.957C7.22065 203.957 7.63362 193.989 10.3251 193.989C13.0165 193.989 13.1731 203.971 10.4817 203.957Z" fill="#BA8B80"/>
<path fill-rule="evenodd" clip-rule="evenodd" d="M132.992 56.8539C133.618 53.1656 122.368 51.6419 121.756 54.6751C121.144 57.7083 132.479 59.9013 132.992 56.8539Z" fill="#BA8B80"/>
<path fill-rule="evenodd" clip-rule="evenodd" d="M133.988 52.3535C134.672 48.2666 123.208 46.9137 122.596 50.2744C121.984 53.6352 133.405 55.7 133.988 52.3535Z" fill="#BA8B80"/>
<path fill-rule="evenodd" clip-rule="evenodd" d="M133.632 47.7258C134.174 44.5074 124.362 43.1831 123.835 45.8175C123.308 48.452 133.177 50.3745 133.632 47.7258Z" fill="#BA8B80"/>
<path fill-rule="evenodd" clip-rule="evenodd" d="M21.8029 198.93C22.7142 196.708 24.1098 194.928 25.3914 195.284C26.431 195.555 26.73 197.093 26.5591 198.93H21.8029Z" fill="#BA8B80"/>
<path d="M98.8612 90.2302L94.4762 99.4194L114.088 108.778L118.473 99.589L98.8612 90.2302Z" fill="#FBC9BE"/>
<path d="M29.209 133.505L29.209 133.504C28.8251 123.783 37.4503 117.6 46.5629 116.496C51.0985 115.946 55.6697 116.676 59.1805 118.814C62.6722 120.94 65.1473 124.477 65.5061 129.643L65.5063 129.645C66.151 138.395 65.6695 149.554 63.7677 160.635C61.8651 171.721 58.5473 182.691 53.5424 191.084L53.5375 191.092L53.533 191.1C52.5153 192.962 51.1129 194.587 49.4189 195.865C47.7396 197.132 45.812 198.03 43.7622 198.501H39.924C38.0267 198.111 36.3417 197.112 35.1126 195.503C33.8719 193.878 33.0742 191.602 33.0257 188.64L33.0257 188.64C32.8687 179.626 32.1158 171.001 31.3024 162.056C31.2597 161.586 31.2168 161.114 31.1737 160.642C30.3981 152.129 29.593 143.292 29.209 133.505Z" fill="#E9D223" stroke="#E9D223"/>
<path fill-rule="evenodd" clip-rule="evenodd" d="M80.6867 198.93C64.5239 172.101 49.0446 144.033 30.6603 125.122C44.9007 106.723 79.5902 89.8343 107.174 79.8945C113.881 91.828 121.856 106.553 129.958 121.932V198.93H80.6867Z" fill="#FFBF00"/>
<mask id="mask0_2329_877" style="mask-type:luminance" maskUnits="userSpaceOnUse" x="30" y="79" width="100" height="120">
<path d="M80.6867 198.93C64.5239 172.101 49.0446 144.033 30.6603 125.122C44.9007 106.723 79.5902 89.8343 107.174 79.8945C113.881 91.828 121.856 106.553 129.958 121.932V198.93H80.6867Z" fill="white"/>
</mask>
<g mask="url(#mask0_2329_877)">
<path fill-rule="evenodd" clip-rule="evenodd" d="M74.4922 113.587C85.3861 138.024 116.43 197.292 140.212 226.699L74.4922 113.587Z" fill="#E9D223"/>
<path d="M74.4922 113.587C85.3861 138.024 116.43 197.292 140.212 226.699" stroke="#E9D223" stroke-width="2.4" stroke-miterlimit="22.93"/>
</g>
<path fill-rule="evenodd" clip-rule="evenodd" d="M10.9516 33.4997C13.5131 32.9943 16.1668 33.2598 18.5774 34.2626C20.988 35.2654 23.047 36.9605 24.4942 39.1335C25.9414 41.3065 26.7118 43.8599 26.7078 46.4707C26.7039 49.0815 25.9259 51.6325 24.4722 53.8012C23.0184 55.9699 20.9543 57.6587 18.5407 58.6543C16.1271 59.6498 13.4726 59.9073 10.9127 59.3942C8.35276 58.8811 6.00249 57.6204 4.15905 55.7716C2.31561 53.9228 1.0618 51.5689 0.556151 49.0075C0.218448 47.3065 0.219578 45.5556 0.559481 43.855C0.899384 42.1545 1.57138 40.5377 2.537 39.0972C3.50261 37.6567 4.74288 36.4208 6.18679 35.4603C7.63069 34.4998 9.24987 33.8336 10.9516 33.4997Z" fill="#0F384A"/>
<path fill-rule="evenodd" clip-rule="evenodd" d="M11.4074 49.8332C13.9688 49.3278 16.6226 49.5933 19.0332 50.5961C21.4437 51.5989 23.5028 53.294 24.95 55.467C26.3972 57.64 27.1675 60.1934 27.1636 62.8042C27.1597 65.415 26.3817 67.966 24.9279 70.1347C23.4742 72.3033 21.41 73.9922 18.9965 74.9878C16.5829 75.9833 13.9283 76.2408 11.3684 75.7277C8.80852 75.2146 6.45825 73.9539 4.61481 72.1051C2.77137 70.2563 1.51755 67.9024 1.01191 65.341C0.676143 63.6401 0.67869 61.8898 1.01941 60.19C1.36013 58.4901 2.03234 56.874 2.99766 55.434C3.96298 53.9939 5.20251 52.7581 6.64546 51.7971C8.0884 50.8362 9.7065 50.1688 11.4074 49.8332Z" fill="#0F384A"/>
<path fill-rule="evenodd" clip-rule="evenodd" d="M22.6287 64.7002C25.193 64.1919 27.8504 64.4556 30.2647 65.4578C32.6791 66.4601 34.742 68.1559 36.1925 70.3307C37.6429 72.5056 38.4158 75.0617 38.4132 77.6759C38.4107 80.29 37.6329 82.8447 36.1782 85.0167C34.7236 87.1887 32.6574 88.8805 30.2411 89.8781C27.8248 90.8757 25.1669 91.1342 22.6036 90.6209C20.0403 90.1077 17.6869 88.8458 15.8409 86.9948C13.995 85.1438 12.7395 82.7869 12.2332 80.2222C11.8954 78.5203 11.8964 76.7686 12.2361 75.0671C12.5759 73.3656 13.2477 71.7478 14.2132 70.3062C15.1787 68.8645 16.4189 67.6274 17.8629 66.6655C19.3069 65.7035 20.9264 65.0357 22.6287 64.7002Z" fill="#0F384A"/>
<path fill-rule="evenodd" clip-rule="evenodd" d="M37.4672 72.7031C40.0315 72.1949 42.6889 72.4585 45.1033 73.4608C47.5176 74.463 49.5805 76.1588 51.031 78.3337C52.4814 80.5085 53.2543 83.0647 53.2517 85.6788C53.2492 88.2929 52.4714 90.8476 51.0167 93.0196C49.5621 95.1917 47.4959 96.8835 45.0796 97.881C42.6633 98.8786 40.0054 99.1371 37.4421 98.6239C34.8788 98.1106 32.5254 96.8487 30.6794 94.9977C28.8335 93.1467 27.578 90.7898 27.0717 88.2251C26.3934 84.7884 27.1073 81.223 29.0566 78.3124C31.0059 75.4018 34.031 73.3842 37.4672 72.7031Z" fill="#0F384A"/>
<path fill-rule="evenodd" clip-rule="evenodd" d="M80.9003 19.0598C78.3357 19.566 75.9788 20.8215 74.1278 22.6675C72.2768 24.5134 71.0148 26.8669 70.5016 29.4301C69.9883 31.9934 70.2469 34.6513 71.2444 37.0676C72.242 39.4839 73.9338 41.5501 76.1058 43.0048C78.2779 44.4594 80.8325 45.2372 83.4467 45.2398C86.0608 45.2423 88.617 44.4694 90.7918 43.019C92.9666 41.5686 94.6624 39.5057 95.6647 37.0913C96.6669 34.6769 96.9306 32.0195 96.4223 29.4553C96.0868 27.7529 95.419 26.1335 94.4571 24.6894C93.4952 23.2454 92.258 22.0052 90.8164 21.0397C89.3747 20.0742 87.7569 19.4024 86.0554 19.0627C84.354 18.7229 82.6022 18.7219 80.9003 19.0598Z" fill="#0F384A"/>
<path fill-rule="evenodd" clip-rule="evenodd" d="M84.7167 35.7209C82.1521 36.2272 79.7952 37.4827 77.9442 39.3286C76.0932 41.1746 74.8312 43.528 74.318 46.0913C73.8048 48.6545 74.0633 51.3124 75.0608 53.7288C76.0584 56.1451 77.7502 58.2112 79.9222 59.6659C82.0943 61.1206 84.6489 61.8984 87.2631 61.9009C89.8772 61.9034 92.4334 61.1306 94.6082 59.6801C96.7831 58.2297 98.4788 56.1668 99.4811 53.7524C100.483 51.338 100.747 48.6806 100.239 46.1164C99.5576 42.6802 97.5401 39.655 94.6295 37.7057C91.7189 35.7565 88.1534 35.0425 84.7167 35.7209Z" fill="#0F384A"/>
<path fill-rule="evenodd" clip-rule="evenodd" d="M78.2089 52.8523C75.6443 53.3585 73.2874 54.614 71.4364 56.46C69.5854 58.3059 68.3234 60.6594 67.8102 63.2226C67.2969 65.7859 67.5555 68.4438 68.553 70.8601C69.5506 73.2764 71.2424 75.3426 73.4144 76.7973C75.5864 78.2519 78.1411 79.0297 80.7552 79.0322C83.3694 79.0348 85.9256 78.2619 88.1004 76.8115C90.2752 75.361 91.971 73.2981 92.9733 70.8838C93.9755 68.4694 94.2392 65.812 93.7309 63.2477C93.3954 61.5454 92.7276 59.9259 91.7657 58.4819C90.8037 57.0379 89.5666 55.7977 88.125 54.8322C86.6833 53.8667 85.0655 53.1949 83.364 52.8551C81.6625 52.5154 79.9108 52.5144 78.2089 52.8523Z" fill="#0F384A"/>
<path fill-rule="evenodd" clip-rule="evenodd" d="M66.5175 65.9678C63.9517 66.4714 61.5929 67.725 59.7397 69.5698C57.8865 71.4146 56.6223 73.7676 56.107 76.3312C55.5918 78.8948 55.8486 81.5536 56.845 83.9712C57.8414 86.3887 59.5327 88.4564 61.7047 89.9123C63.8767 91.3683 66.4318 92.1472 69.0466 92.1504C71.6615 92.1537 74.2185 91.3811 76.3941 89.9305C78.5697 88.4799 80.2661 86.4164 81.2685 84.0014C82.2709 81.5863 82.5343 78.9281 82.0253 76.3632C81.6914 74.6615 81.0252 73.0423 80.0647 71.5984C79.1042 70.1545 77.8683 68.9142 76.4278 67.9486C74.9873 66.983 73.3705 66.311 71.67 65.9711C69.9694 65.6312 68.2185 65.6301 66.5175 65.9678Z" fill="#0F384A"/>
<path fill-rule="evenodd" clip-rule="evenodd" d="M17.1747 15.3999C19.736 14.895 22.3895 15.1601 24.8003 16.1616C27.2111 17.1631 29.2713 18.8562 30.7209 21.0273C32.1705 23.1984 32.9446 25.7502 32.9455 28.3608C32.9465 30.9714 32.1741 33.5237 30.7261 35.6959C29.278 37.868 27.219 39.5626 24.8089 40.5658C22.3988 41.569 19.7455 41.8359 17.1839 41.3328C14.6222 40.8298 12.267 39.5793 10.4153 37.7391C8.56355 35.8989 7.29833 33.5515 6.77926 30.9931C6.43492 29.2864 6.43085 27.5286 6.76728 25.8203C7.10372 24.1121 7.77404 22.487 8.73981 21.0384C9.70558 19.5897 10.9478 18.3459 12.3952 17.3784C13.8427 16.4108 15.4669 15.7384 17.1747 15.3999Z" fill="#0F384A"/>
<path fill-rule="evenodd" clip-rule="evenodd" d="M67.372 6.78439C64.8073 7.29063 62.4504 8.54613 60.5994 10.3921C58.7484 12.238 57.4865 14.5915 56.9733 17.1548C56.46 19.718 56.7185 22.3759 57.7161 24.7922C58.7137 27.2085 60.4055 29.2747 62.5775 30.7294C64.7495 32.184 67.3042 32.9618 69.9183 32.9644C72.5325 32.9669 75.0886 32.1941 77.2635 30.7436C79.4383 29.2932 81.1341 27.2303 82.1364 24.8159C83.1386 22.4015 83.4023 19.7441 82.894 17.1799C82.2129 13.7437 80.1954 10.7185 77.2848 8.76922C74.3742 6.81993 70.8087 6.10602 67.372 6.78439Z" fill="#0F384A"/>
<path fill-rule="evenodd" clip-rule="evenodd" d="M48.9734 0.618438C46.4123 1.12794 44.0595 2.38478 42.2122 4.23029C40.3648 6.07581 39.1055 8.42727 38.5934 10.9878C38.0813 13.5484 38.3393 16.2033 39.3348 18.6174C40.3302 21.0315 42.0186 23.0965 44.1867 24.5519C46.3548 26.0072 48.9055 26.7876 51.5168 26.7945C54.1281 26.8015 56.6829 26.0346 58.8587 24.5908C61.0345 23.147 62.7338 21.0909 63.7421 18.6821C64.7503 16.2734 65.0224 13.6199 64.5239 11.0566C64.1952 9.34668 63.531 7.71876 62.5698 6.26683C61.6086 4.8149 60.3694 3.56771 58.9237 2.59725C57.4779 1.62679 55.8543 0.952282 54.1464 0.612647C52.4386 0.273013 50.6804 0.274981 48.9734 0.618438Z" fill="#0F384A"/>
<path fill-rule="evenodd" clip-rule="evenodd" d="M31.9561 3.50923C34.5175 3.00382 37.1713 3.26931 39.5819 4.27211C41.9924 5.27492 44.0515 6.97 45.4987 9.14302C46.9459 11.316 47.7162 13.8694 47.7123 16.4802C47.7084 19.091 46.9304 21.6421 45.4766 23.8107C44.0229 25.9794 41.9587 27.6683 39.5452 28.6638C37.1316 29.6593 34.477 29.9168 31.9171 29.4037C29.3572 28.8906 27.0069 27.63 25.1635 25.7811C23.3201 23.9323 22.0663 21.5784 21.5606 19.017C21.2248 17.3162 21.2274 15.5658 21.5681 13.866C21.9088 12.1661 22.581 10.55 23.5464 9.10999C24.5117 7.66994 25.7512 6.43415 27.1942 5.47316C28.6371 4.51218 30.2552 3.84483 31.9561 3.50923Z" fill="#0F384A"/>
<path fill-rule="evenodd" clip-rule="evenodd" d="M39.3897 61.7239C36.6745 63.4873 34.7691 66.2552 34.0911 69.4209C33.4131 72.5867 34.0178 75.8922 35.7726 78.6129L54.5557 107.72C57.6601 112.534 73.3957 123.385 80.8434 126.347C81.8545 118.087 80.9574 99.29 77.3118 93.5938L58.5288 64.5434C54.8832 58.9043 45.3991 58.7191 39.3897 61.7239Z" fill="#BA8B80"/>
<path fill-rule="evenodd" clip-rule="evenodd" d="M47.8625 97.3109L70.7896 81.3047L74.6202 91.6859L55.6805 109.401L47.8625 97.3109Z" fill="#85625A"/>
<path d="M112.711 80.3299L112.711 80.33C118.377 81.3438 123.963 82.5885 129.387 84.0111V114.153C127.127 113.732 124.855 113.299 122.571 112.863C119.726 112.321 116.863 111.776 113.986 111.245L113.986 111.244C103.817 109.373 98.724 100.752 98.5902 93.0068C98.5234 89.1359 99.6981 85.5397 102.04 83.1341C104.365 80.7455 107.902 79.4685 112.711 80.3299Z" fill="#E9D223" stroke="#E9D223"/>
<path d="M50.7302 112.969C50.4939 110.716 50.3286 108.52 50.1628 106.314L50.1616 106.298C50.0301 104.549 49.8982 102.794 49.7301 101.006C57.9873 110.699 66.2982 119.873 76.9216 125.186C67.3923 123.162 58.431 118.991 50.7302 112.969Z" fill="#E9D223" stroke="#E9D223"/>
<path d="M80.0906 91.2529C81.2006 101.451 82.2391 111.584 81.0083 122.068C79.8644 109.937 78.2527 100.013 73.9291 88.415C75.046 88.5939 75.7834 88.8731 76.5427 89.2657C76.9367 89.4694 77.3348 89.7028 77.8025 89.9769C77.9036 90.0361 78.008 90.0973 78.1164 90.1605C78.6658 90.4812 79.3016 90.845 80.0906 91.2529Z" fill="#E9D223" stroke="#E9D223"/>
<path d="M51.7466 123.107C50.6253 115.55 49.9031 107.94 49.583 100.308C51.1915 102.145 52.6395 104.199 54.1094 106.285C54.1398 106.328 54.1701 106.371 54.2004 106.414C55.8806 108.797 57.5936 111.215 59.587 113.319L51.7466 123.107Z" fill="#E9D223" stroke="#E9D223"/>
<path d="M77.1171 95.1484C76.9537 93.4356 76.7804 91.69 75.9655 89.3271C82.305 91.3071 85.4985 93.0043 93.0312 97.7672L78.3536 101.25C77.4619 98.7657 77.2938 97.0029 77.1227 95.2081L77.1171 95.1484Z" fill="#E9D223" stroke="#E9D223"/>
<path fill-rule="evenodd" clip-rule="evenodd" d="M12.4183 60.784C14.412 59.8299 17.673 62.5213 19.7094 66.7792C21.7458 71.0371 21.7742 75.2522 19.7948 76.2063C17.8154 77.1605 14.5401 74.469 12.5038 70.2112C10.4674 65.9533 10.4104 61.7381 12.4183 60.784Z" fill="#BA8B80"/>
<path fill-rule="evenodd" clip-rule="evenodd" d="M12.2048 60.898C14.1985 59.9439 17.4595 62.6354 19.4959 66.8932C21.5323 71.1511 21.575 75.4375 19.5814 76.3204C17.5877 77.2033 14.3409 74.583 12.3045 70.3252C10.2682 66.0673 10.2254 61.7809 12.2048 60.898Z" fill="#BA8B80"/>
<path fill-rule="evenodd" clip-rule="evenodd" d="M17.6874 41.7732C20.6352 42.5707 21.7459 47.9251 20.1652 53.7351C18.5845 59.5452 14.9105 63.6037 11.9628 62.8063C9.01501 62.0088 7.90426 56.6259 9.48494 50.8301C11.0656 45.0343 14.6827 40.9615 17.6874 41.7732Z" fill="#0F384A"/>
<path fill-rule="evenodd" clip-rule="evenodd" d="M40.5574 8.32251C11.45 14.0187 7.80448 41.8301 15.9357 65.754C22.4721 84.9642 35.8723 102.437 55.6806 98.5068C73.5381 94.9752 83.0791 78.1004 84.731 59.8157C87.1803 32.5312 72.0001 2.11371 40.5574 8.32251Z" fill="#BA8B80"/>
<path fill-rule="evenodd" clip-rule="evenodd" d="M58.6855 53.6782C58.1962 53.7578 57.7417 53.9815 57.3802 54.3207C57.0187 54.6599 56.7666 55.0992 56.6561 55.5825C56.5456 56.0658 56.5817 56.571 56.7599 57.0337C56.9381 57.4963 57.2502 57.8952 57.6563 58.1795C58.0625 58.4638 58.5442 58.6205 59.0398 58.6296C59.5355 58.6387 60.0226 58.4997 60.4389 58.2305C60.8551 57.9612 61.1816 57.574 61.3766 57.1182C61.5716 56.6624 61.6263 56.1588 61.5335 55.6718C61.4189 55.0305 61.0549 54.4606 60.5211 54.0869C59.9874 53.7133 59.3273 53.5663 58.6855 53.6782Z" fill="#0F384A"/>
<path fill-rule="evenodd" clip-rule="evenodd" d="M35.4593 58.1921C34.9696 58.2723 34.515 58.4968 34.1537 58.837C33.7924 59.1772 33.5408 59.6174 33.4313 60.1014C33.3218 60.5854 33.3593 61.0911 33.5389 61.5536C33.7186 62.0162 34.0322 62.4146 34.4397 62.6978C34.8472 62.981 35.3299 63.1361 35.8261 63.1432C36.3223 63.1504 36.8093 63.0092 37.2248 62.7379C37.6402 62.4665 37.9652 62.0773 38.1581 61.6201C38.3509 61.1628 38.4029 60.6585 38.3074 60.1715C38.2507 59.8544 38.132 59.5515 37.9582 59.2802C37.7843 59.009 37.5586 58.7748 37.294 58.5909C37.0295 58.407 36.7312 58.2771 36.4164 58.2087C36.1015 58.1403 35.7763 58.1346 35.4593 58.1921Z" fill="#0F384A"/>
<path fill-rule="evenodd" clip-rule="evenodd" d="M37.4672 52.5531C37.6542 52.5877 37.8462 52.5851 38.0322 52.5455C38.2183 52.5059 38.3946 52.43 38.5513 52.3223C38.708 52.2145 38.842 52.0769 38.9455 51.9174C39.049 51.7578 39.1201 51.5795 39.1547 51.3925C39.1893 51.2055 39.1867 51.0135 39.1471 50.8275C39.1075 50.6414 39.0317 50.4651 38.9239 50.3084C38.8161 50.1517 38.6786 50.0177 38.519 49.9142C38.3595 49.8107 38.1811 49.7396 37.9941 49.705C35.7386 49.2719 33.4159 49.3351 31.1872 49.8901C29.1257 50.3766 27.2563 51.4675 25.8186 53.023C25.5618 53.3195 25.4333 53.7058 25.4613 54.0971C25.4893 54.4883 25.6717 54.8524 25.9681 55.1092C26.2646 55.366 26.651 55.4946 27.0422 55.4665C27.4334 55.4385 27.7975 55.2562 28.0543 54.9597C29.1057 53.8586 30.4577 53.0909 31.942 52.7524C33.7473 52.2848 35.6329 52.2167 37.4672 52.5531Z" fill="#0F384A"/>
<path fill-rule="evenodd" clip-rule="evenodd" d="M52.4765 72.2904C45.7978 73.7145 45.3563 69.0294 44.5446 63.0342C42.5937 69.0294 43.5478 76.3062 52.4765 72.2904Z" fill="#85625A"/>
<path fill-rule="evenodd" clip-rule="evenodd" d="M23.8533 22.5769C17.3882 30.7794 13.3297 54.0054 15.9357 65.7537C7.93256 64.6857 -3.94391 31.8759 23.8533 22.5769Z" fill="#0F384A"/>
<path fill-rule="evenodd" clip-rule="evenodd" d="M24.6509 15.6846C27.2152 15.1763 29.8726 15.44 32.287 16.4422C34.7013 17.4445 36.7642 19.1403 38.2147 21.3151C39.6651 23.4899 40.438 26.0461 40.4354 28.6603C40.4329 31.2744 39.6551 33.8291 38.2004 36.0011C36.7458 38.1731 34.6796 39.8649 32.2633 40.8625C29.847 41.86 27.1891 42.1186 24.6258 41.6053C22.0626 41.0921 19.7091 39.8301 17.8632 37.9791C16.0172 36.1281 14.7617 33.7712 14.2555 31.2066C13.9176 29.5047 13.9186 27.753 14.2583 26.0515C14.5981 24.35 15.2699 22.7322 16.2354 21.2905C17.2009 19.8489 18.4411 18.6118 19.8851 17.6498C21.3291 16.6879 22.9486 16.0201 24.6509 15.6846Z" fill="#0F384A"/>
<path fill-rule="evenodd" clip-rule="evenodd" d="M64.524 19.6008C67.0882 19.0926 69.7456 19.3562 72.16 20.3585C74.5744 21.3607 76.6372 23.0565 78.0877 25.2314C79.5381 27.4062 80.311 29.9624 80.3085 32.5765C80.3059 35.1907 79.5281 37.7453 78.0735 39.9173C76.6188 42.0894 74.5526 43.7812 72.1363 44.7787C69.72 45.7763 67.0621 46.0348 64.4988 45.5216C61.9356 45.0083 59.5821 43.7464 57.7362 41.8954C55.8902 40.0444 54.6347 37.6875 54.1285 35.1228C53.454 31.6865 54.1695 28.123 56.1182 25.2133C58.0668 22.3037 61.0896 20.2854 64.524 19.6008Z" fill="#0F384A"/>
<path fill-rule="evenodd" clip-rule="evenodd" d="M56.1078 12.6232C65.2074 17.7497 80.9857 42.3856 83.0363 54.2478C91.5806 45.7605 85.3433 10.6438 56.1078 12.6232Z" fill="#0F384A"/>
<path fill-rule="evenodd" clip-rule="evenodd" d="M87.5079 45.9458C85.3006 45.8177 83.2358 49.5344 83.0506 54.248C82.8655 58.9616 84.3465 62.8777 86.5538 63.0058C88.761 63.134 90.7404 59.403 91.011 54.6894C91.2816 49.9759 89.7009 46.0598 87.5079 45.9458Z" fill="#BA8B80"/>
<path fill-rule="evenodd" clip-rule="evenodd" d="M45.4845 15.4996C48.05 14.99 50.7089 15.2531 53.1247 16.2557C55.5405 17.2582 57.6045 18.9551 59.0553 21.1315C60.506 23.3078 61.2783 25.8657 61.2744 28.4813C61.2705 31.0968 60.4905 33.6524 59.0332 35.8244C57.5759 37.9963 55.5068 39.687 53.088 40.6823C50.6693 41.6776 48.0095 41.9327 45.4456 41.4154C42.8817 40.8981 40.529 39.6316 38.6854 37.7763C36.8418 35.9209 35.5902 33.5603 35.0891 30.9931C34.4191 27.5607 35.137 24.0026 37.0855 21.0985C39.0341 18.1943 42.0543 16.181 45.4845 15.4996Z" fill="#0F384A"/>
<path fill-rule="evenodd" clip-rule="evenodd" d="M45.3279 4.90504C47.8922 4.39676 50.5496 4.66043 52.964 5.66267C55.3783 6.66492 57.4412 8.36073 58.8917 10.5356C60.3421 12.7104 61.115 15.2666 61.1124 17.8807C61.1099 20.4949 60.3321 23.0495 58.8775 25.2215C57.4228 27.3936 55.3566 29.0854 52.9403 30.0829C50.524 31.0805 47.8661 31.339 45.3028 30.8258C42.7396 30.3125 40.3861 29.0506 38.5402 27.1996C36.6942 25.3486 35.4387 22.9917 34.9325 20.427C34.5946 18.7252 34.5956 16.9734 34.9353 15.2719C35.2751 13.5704 35.9469 11.9526 36.9124 10.511C37.8779 9.06936 39.1181 7.83221 40.5621 6.87029C42.0061 5.90837 43.6256 5.24055 45.3279 4.90504Z" fill="#0F384A"/>
<path fill-rule="evenodd" clip-rule="evenodd" d="M32.0133 7.53929C34.5776 7.03382 37.2342 7.3001 39.6472 8.30446C42.0602 9.30882 44.1212 11.0062 45.5695 13.1818C47.0179 15.3575 47.7885 17.9138 47.7841 20.5274C47.7796 23.1411 47.0002 25.6947 45.5444 27.8655C44.0887 30.0362 42.0219 31.7264 39.6055 32.7226C37.1891 33.7187 34.5316 33.9759 31.969 33.4616C29.4064 32.9474 27.0539 31.6849 25.2088 29.8336C23.3638 27.9824 22.1092 25.6256 21.6036 23.0613C21.2659 21.3584 21.2674 19.6057 21.6081 17.9034C21.9487 16.2012 22.6217 14.5828 23.5887 13.141C24.5556 11.6992 25.7974 10.4623 27.243 9.50105C28.6887 8.53983 30.3097 7.87319 32.0133 7.53929Z" fill="#0F384A"/>
<path fill-rule="evenodd" clip-rule="evenodd" d="M56.0651 7.48218C58.6294 6.97391 61.2868 7.23757 63.7011 8.23982C66.1155 9.24207 68.1784 10.9379 69.6289 13.1127C71.0793 15.2876 71.8522 17.8437 71.8496 20.4579C71.8471 23.072 71.0693 25.6267 69.6146 27.7987C68.16 29.9707 66.0938 31.6625 63.6775 32.6601C61.2612 33.6577 58.6033 33.9162 56.04 33.4029C53.4767 32.8897 51.1233 31.6277 49.2773 29.7767C47.4314 27.9257 46.1759 25.5688 45.6696 23.0042C45.3318 21.3023 45.3328 19.5506 45.6725 17.8491C46.0123 16.1476 46.6841 14.5298 47.6496 13.0881C48.6151 11.6465 49.8553 10.4094 51.2993 9.44744C52.7433 8.48552 54.3628 7.8177 56.0651 7.48218Z" fill="#0F384A"/>
<path fill-rule="evenodd" clip-rule="evenodd" d="M79.875 33.4142C81.3725 33.1194 82.9238 33.2751 84.3327 33.8618C85.7417 34.4485 86.9451 35.4397 87.7908 36.7101C88.6365 37.9806 89.0866 39.4733 89.0841 40.9995C89.0817 42.5257 88.6268 44.0169 87.777 45.2847C86.9272 46.5524 85.7206 47.5397 84.3098 48.1219C82.899 48.704 81.3472 48.8548 79.8507 48.5552C78.3542 48.2556 76.9801 47.519 75.9021 46.4386C74.8241 45.3582 74.0906 43.9825 73.7944 42.4853C73.5975 41.4904 73.5987 40.4664 73.7978 39.4719C73.9969 38.4774 74.39 37.532 74.9547 36.6895C75.5194 35.8471 76.2447 35.1242 77.0889 34.5622C77.9332 34.0002 78.8799 33.6101 79.875 33.4142Z" fill="#0F384A"/>
<path fill-rule="evenodd" clip-rule="evenodd" d="M50.725 47.1133C50.5605 47.218 50.4181 47.3541 50.3062 47.5139C50.1942 47.6736 50.1148 47.8538 50.0725 48.0442C50.0302 48.2346 50.0258 48.4315 50.0595 48.6236C50.0933 48.8158 50.1646 48.9993 50.2693 49.1639C50.3741 49.3285 50.5102 49.4708 50.6699 49.5828C50.8296 49.6947 51.0098 49.7741 51.2003 49.8165C51.3907 49.8588 51.5876 49.8632 51.7797 49.8294C51.9718 49.7956 52.1554 49.7243 52.3199 49.6196C53.8761 48.587 55.6413 47.9111 57.4892 47.6402C58.9832 47.3811 60.5205 47.5745 61.9037 48.1956C62.0776 48.2835 62.2672 48.3362 62.4615 48.3509C62.6558 48.3655 62.8511 48.3418 63.0362 48.2809C63.2213 48.2201 63.3927 48.1234 63.5404 47.9964C63.6882 47.8693 63.8095 47.7144 63.8974 47.5405C63.9853 47.3666 64.038 47.1771 64.0527 46.9827C64.0673 46.7884 64.0436 46.5931 63.9827 46.408C63.9219 46.2229 63.8252 46.0515 63.6982 45.9038C63.5711 45.756 63.4162 45.6347 63.2423 45.5469C61.3176 44.6553 59.1708 44.3578 57.0762 44.6924C54.8082 45.0275 52.6407 45.8537 50.725 47.1133Z" fill="#0F384A"/>
<path fill-rule="evenodd" clip-rule="evenodd" d="M34.1776 78.4421C44.8781 80.1699 55.843 77.986 65.065 72.2903C63.0998 78.8266 40.657 83.9674 34.1776 78.4421Z" fill="#85625A"/>
<path fill-rule="evenodd" clip-rule="evenodd" d="M41.7394 83.0848C47.9766 84.093 54.3686 82.8297 59.7535 79.5247C58.6142 83.2984 45.57 86.2888 41.7394 83.0848Z" fill="#85625A"/>
<path fill-rule="evenodd" clip-rule="evenodd" d="M57.5461 192.28C57.7834 194.488 57.869 196.71 57.8024 198.93H29.7489V198.859C29.8343 196.267 31.9989 194.259 30.1619 189.432C28.923 186.185 42.494 185.829 45.6127 185.829C53.2313 185.814 57.0335 187.637 57.5461 192.28Z" fill="#FFBF00"/>
<path fill-rule="evenodd" clip-rule="evenodd" d="M129.93 57.6796C126.569 57.5799 122.311 58.9613 122.482 60.8695C122.653 62.7777 126.754 63.0483 129.93 62.4074V57.6796Z" fill="#BA8B80"/>
</svg>
