<svg width="301" height="321" viewBox="0 0 301 321" fill="none" xmlns="http://www.w3.org/2000/svg">
<g clip-path="url(#clip0_2785_3327)">
<path d="M267.153 244.722L267.021 244.649C266.632 244.398 266.23 244.169 265.816 243.963C251.529 235.768 240.251 226.938 235.452 212.431C229.967 195.947 196.375 181.586 195.79 193.407C195.199 205.477 79.1782 147.609 79.1782 147.609L103.414 254.15C103.414 254.15 123.376 262.943 146.552 273.225C166.449 282.047 176.668 284.463 186.353 287.09C191.335 288.454 195.33 289.746 198.434 291.818C211.107 300.29 234.137 316.768 236.92 318.76L237.154 318.928H237.198C241.296 321.708 246.533 321.774 252.23 318.482C265.378 310.901 276.042 288.352 276.042 268.131C276.049 256.594 272.58 248.305 267.153 244.722Z" fill="#B16668"/>
<path d="M199.975 207.243L200.867 194.02C199.844 193.254 198.383 191.94 196.893 190.612C196.184 191.369 195.785 192.364 195.775 193.4C195.644 196.085 189.793 195.304 180.773 192.473L186.039 215.211L113.727 258.667L123.383 262.928L189.121 224.669C193.168 242.737 210.691 245.4 210.691 245.4L199.975 207.243Z" fill="#9A4A4D"/>
<path d="M195.023 209.622L157.26 43.8275C156.355 39.8358 153.608 38.8872 151.147 37.9896C148.685 37.0921 144.894 36.7126 142.068 38.3472L69.6315 80.146C66.8048 81.7733 65.0445 85.4365 65.6946 88.319L103.421 254.12C104.078 257.039 106.752 258.572 109.206 259.455C111.66 260.338 115.78 261.213 118.614 259.586L191.05 217.802C193.884 216.175 195.9 213.642 195.023 209.622Z" fill="#37474F"/>
<path d="M190.173 211.402L115.67 254.361L77.8414 87.8884L66.3591 83.7655C65.6383 85.1677 65.4045 86.7695 65.6944 88.319L103.421 254.12C104.078 257.039 106.752 258.572 109.206 259.455C111.66 260.338 115.78 261.213 118.614 259.586L191.05 217.802C192.817 216.788 194.461 215.313 195.009 213.139L194.651 213.008L190.173 211.402Z" fill="#263238"/>
<path d="M151.088 42.835L78.4479 84.7433C76.4685 85.8817 75.2268 88.4576 75.6796 90.479L113.121 255.018C113.852 258.119 116.89 259.214 119.929 257.463L190.641 216.678C192.883 215.386 194.293 212.46 193.774 210.176L156.106 44.6448C155.581 42.3242 153.331 41.5434 151.088 42.835Z" fill="#455A64"/>
<path d="M153.827 52.2193L188.982 206.739C189.479 208.928 188.142 211.701 186.01 212.927L120.52 250.698C118.387 251.939 116.254 251.172 115.758 248.99L80.3466 93.4052C80.193 92.4333 80.282 91.4386 80.6057 90.5093C80.9293 89.58 81.4776 88.7449 82.2019 88.0782L82.5452 87.7571C82.788 87.5605 83.047 87.3847 83.3194 87.2317L101.748 76.6214L102.99 75.8917C103.113 75.7971 103.258 75.7351 103.411 75.7114C103.564 75.6878 103.721 75.7033 103.867 75.7564C104.013 75.8096 104.143 75.8987 104.245 76.0155C104.347 76.1323 104.418 76.2729 104.451 76.4244C104.604 77.0958 105.305 77.3147 106.014 76.906L127.481 64.5007C127.824 64.3098 128.104 64.0214 128.283 63.672C128.462 63.3226 128.534 62.9278 128.489 62.5377C128.448 62.1946 128.501 61.847 128.641 61.5312C128.781 61.2154 129.003 60.943 129.285 60.7426L129.409 60.6696L147.407 50.2783L147.787 50.052C150.467 48.4977 153.199 49.4756 153.827 52.2193Z" fill="#263238"/>
<path d="M184.972 212.431C187.105 211.205 188.435 208.425 187.945 206.243L152.783 51.7231C152.605 50.8205 152.101 50.015 151.366 49.461C150.76 49.3154 150.131 49.2928 149.516 49.3943C148.902 49.4958 148.313 49.7195 147.787 50.052L147.407 50.2782L129.387 60.6696L129.263 60.7425C128.973 60.9472 128.745 61.2279 128.605 61.5537C128.464 61.8794 128.417 62.2376 128.467 62.5888C128.512 62.9789 128.441 63.3736 128.261 63.723C128.082 64.0725 127.803 64.3609 127.459 64.5517L105.992 76.9571C105.841 77.0573 105.669 77.1225 105.49 77.1477C105.31 77.173 105.127 77.1577 104.955 77.103C104.75 77.0228 104.056 76.6652 103.881 76.5849C103.756 76.5303 103.645 76.4459 103.56 76.3391C103.475 76.2322 103.417 76.1062 103.392 75.972C103.378 75.9119 103.358 75.8533 103.333 75.7968C103.2 75.8262 103.072 75.8754 102.953 75.9428L101.748 76.636L83.3341 87.2609C83.0617 87.4139 82.8027 87.5897 82.5599 87.7863L82.2166 88.1073C81.4942 88.7697 80.9458 89.5993 80.6198 90.5231C80.2937 91.4469 80.1999 92.4366 80.3467 93.4052L115.743 248.983C115.874 249.665 116.244 250.279 116.787 250.713C117.714 250.887 118.673 250.701 119.468 250.194L184.972 212.431Z" fill="#FAFAFA"/>
<path d="M108.315 70.9368L118.153 65.2595C118.745 64.9166 119.322 65.099 119.453 65.6609C119.489 65.9848 119.43 66.3121 119.282 66.6025C119.134 66.8929 118.904 67.1338 118.621 67.2955L108.775 72.9728C108.19 73.3157 107.613 73.1333 107.482 72.5714C107.443 72.2472 107.502 71.9188 107.65 71.6278C107.798 71.3368 108.029 71.0963 108.315 70.9368Z" fill="#263238"/>
<path d="M123.113 61.932C123.236 61.8374 123.381 61.7754 123.534 61.7517C123.688 61.7281 123.844 61.7436 123.99 61.7967C124.136 61.8499 124.266 61.939 124.368 62.0558C124.47 62.1726 124.541 62.3132 124.574 62.4647C124.627 62.8386 124.567 63.2196 124.403 63.5599C124.24 63.9001 123.979 64.1843 123.653 64.3766C123.531 64.4712 123.386 64.5332 123.232 64.5569C123.079 64.5805 122.922 64.565 122.776 64.5119C122.631 64.4587 122.501 64.3696 122.399 64.2528C122.297 64.136 122.226 63.9954 122.193 63.8439C122.139 63.47 122.198 63.0885 122.362 62.7481C122.526 62.4076 122.787 62.1236 123.113 61.932Z" fill="#263238"/>
<path d="M77.4252 106.46C77.2069 105.795 76.8423 105.188 76.3582 104.683C75.8741 104.178 75.2827 103.788 74.6276 103.541C74.3991 103.434 74.1497 103.378 73.8972 103.378C73.6447 103.378 73.3953 103.434 73.1668 103.541L71.7059 104.351C71.514 104.483 71.3721 104.676 71.3032 104.898C71.2343 105.121 71.2424 105.36 71.3261 105.577L74.1967 118.201C74.4158 118.865 74.7808 119.472 75.2648 119.977C75.7488 120.482 76.3397 120.873 76.9942 121.12C77.2239 121.223 77.4728 121.277 77.7246 121.277C77.9764 121.277 78.2254 121.223 78.4551 121.12C78.718 120.982 79.6749 120.434 79.9159 120.288C80.1075 120.154 80.2488 119.96 80.3176 119.737C80.3864 119.513 80.3787 119.274 80.2957 119.055L77.4252 106.46Z" fill="#455A64"/>
<path d="M76.0154 107.27L78.886 119.894C79.1416 121.025 78.3089 121.573 77.0161 121.113C76.3616 120.865 75.7707 120.475 75.2867 119.97C74.8026 119.465 74.4377 118.858 74.2186 118.194L71.348 105.57C71.085 104.431 71.925 103.884 73.2106 104.351C73.867 104.597 74.4598 104.987 74.9453 105.492C75.4307 105.997 75.7964 106.605 76.0154 107.27Z" fill="#37474F"/>
<path d="M82.4577 128.549C82.2355 127.885 81.8686 127.279 81.3836 126.775C80.8985 126.27 80.3074 125.879 79.6529 125.63C79.4238 125.525 79.1746 125.47 78.9225 125.47C78.6703 125.47 78.4211 125.525 78.192 125.63C77.951 125.776 77.016 126.294 76.7312 126.44C76.5412 126.574 76.4009 126.766 76.3322 126.988C76.2635 127.21 76.2702 127.448 76.3514 127.666L79.2219 140.29C79.4418 140.955 79.8079 141.562 80.2932 142.067C80.7785 142.572 81.3709 142.962 82.0268 143.209C82.2566 143.312 82.5054 143.365 82.7572 143.365C83.0089 143.365 83.2578 143.312 83.4876 143.209C83.7505 143.07 84.7001 142.516 84.9484 142.37C85.1397 142.237 85.2815 142.045 85.3515 141.823C85.4216 141.601 85.416 141.362 85.3356 141.144L82.4577 128.549Z" fill="#455A64"/>
<path d="M81.0772 129.359L83.9478 141.983C84.2034 143.122 83.3707 143.669 82.0852 143.202C81.4293 142.955 80.837 142.565 80.3517 142.06C79.8663 141.555 79.5003 140.948 79.2804 140.283L76.3806 127.702C76.1249 126.571 76.9576 126.024 78.2432 126.484C78.8986 126.724 79.4926 127.107 79.9826 127.604C80.4726 128.101 80.8464 128.7 81.0772 129.359Z" fill="#37474F"/>
<path d="M249.688 248.48C243.166 234.229 237.593 219.564 233.005 204.579C228.535 189.583 223.97 179.09 222.049 175.777C218.875 169.9 213.773 165.293 207.601 162.729C203.679 161.087 196.338 159.081 189.341 155.863C182.343 152.644 175.287 148.609 171.365 146.464C167.442 144.318 163.856 152.301 168.933 162.576C173.081 170.946 180.473 176.025 184.235 178.054C188.72 180.476 192.759 184.11 194.052 186.343C195.147 188.233 196.448 192.67 195.418 198.07C193.957 205.528 186.141 231.083 210.632 245.378L220.318 266.351L249.688 248.48Z" fill="#B16668"/>
<path d="M175.404 152.338C175.404 152.338 183.782 156.957 185.849 157.096C187.916 157.234 187.434 154.972 187.434 154.972C183.534 152.739 176.324 148.719 171.401 146.493C173.233 148.05 174.615 150.068 175.404 152.338Z" fill="#B16668"/>
<path opacity="0.6" d="M175.404 152.338C175.404 152.338 183.782 156.957 185.849 157.096C187.916 157.234 187.434 154.972 187.434 154.972C183.534 152.739 176.324 148.719 171.401 146.493C173.233 148.05 174.615 150.068 175.404 152.338Z" fill="white"/>
<path d="M187.434 154.972C187.032 154.702 186.612 154.458 186.178 154.243C186.464 154.654 186.629 155.137 186.655 155.637C186.681 156.138 186.566 156.635 186.324 157.074C187.85 156.891 187.434 154.972 187.434 154.972Z" fill="#9A4A4D"/>
<path d="M79.1853 147.602C73.9482 144.187 67.221 142.494 63.7953 146.617C60.3696 150.74 62.1446 158.563 65.636 161.846C70.9973 166.889 85.2186 174.135 85.2186 174.135L79.1853 147.602Z" fill="#B16668"/>
<path opacity="0.5" d="M79.1851 147.602C78.5935 147.215 77.9872 146.872 77.3663 146.522C77.3663 146.522 80.9162 162.109 81.4859 164.619C82.0557 167.13 71.7421 162.109 67.2938 158.65C64.746 156.746 62.912 154.043 62.0859 150.973C61.5965 154.921 63.1888 159.519 65.665 161.846C71.0263 166.889 85.2476 174.135 85.2476 174.135L79.1851 147.602Z" fill="#9A4A4D"/>
<path d="M89.6743 246.269C92.596 249.392 103.37 253.916 103.37 253.916L98.6731 233.25L89.6743 246.269Z" fill="#9A4A4D"/>
<path d="M76.5122 191.298C79.5946 194.589 90.96 199.362 90.96 199.362L86.0004 177.565L76.5122 191.298Z" fill="#9A4A4D"/>
<path d="M80.522 211.096C84.7657 215.759 95.6271 219.852 95.6271 219.852L90.9816 199.42L80.522 211.096Z" fill="#9A4A4D"/>
<path d="M76.7457 171.326C82.0267 169.611 85.4012 171.326 87.7021 175.894C88.5786 177.616 89.2798 180.498 89.5939 184.205C89.9079 187.912 87.4829 192.962 82.947 193.341H82.7279C75.3798 193.801 73.7145 190.182 72.312 184.037C70.9096 177.893 72.0491 172.858 76.7457 171.326Z" fill="#B16668"/>
<path opacity="0.5" d="M83.4364 171.304C83.9039 171.552 86.7014 173.274 88.133 179.462C89.6961 186.234 86.6137 188.408 83.02 189.868C79.4264 191.327 73.8094 190.138 73.0352 186.745C74.3937 191.225 76.5485 193.743 82.7498 193.356H82.9689C87.5048 193.006 89.9298 187.927 89.6158 184.22C89.3017 180.513 88.6005 177.652 87.724 175.908C86.5699 173.675 85.1821 172.106 83.4364 171.304Z" fill="#9A4A4D"/>
<path d="M81.8075 192.889C86.6356 191.32 89.7107 192.889 91.8216 197.056C92.6178 198.632 93.2824 201.274 93.5454 204.659C93.8083 208.045 91.6171 212.687 87.4756 213H87.2784C80.5585 213.424 79.0392 210.081 77.7829 204.499C76.5265 198.917 77.4907 194.283 81.8075 192.889Z" fill="#B16668"/>
<path opacity="0.5" d="M89.1777 193.67C90.1054 194.538 91.1864 196.961 91.6539 200.887C92.2601 206.039 91.7415 208.724 87.4101 210.038C82.9253 211.402 79.6384 209.928 78.645 207.848C79.9087 211.409 81.9831 213.372 87.2421 213.044H87.4393C91.5808 212.723 93.794 208.089 93.5091 204.703C93.2243 201.317 92.5815 198.676 91.7853 197.099C91.1806 195.778 90.29 194.606 89.1777 193.67Z" fill="#9A4A4D"/>
<path d="M89.8935 227.339C94.9042 225.712 99.2868 227.266 100.28 231.659L102.077 239.548C102.307 240.537 102.321 241.563 102.119 242.558C101.918 243.553 101.504 244.493 100.907 245.314C100.31 246.135 99.5435 246.819 98.659 247.319C97.7746 247.818 96.793 248.122 95.7807 248.21H95.5689C88.6007 248.64 87.2859 242.489 86.4752 239.292C85.6644 236.096 85.4599 228.784 89.8935 227.339Z" fill="#B16668"/>
<path opacity="0.5" d="M96.6645 227.274C99.4328 229.105 99.6446 234.053 100.536 238.782C101.157 242.065 100.076 245.145 95.6273 246.152C91.179 247.159 88.5641 244.904 87.3516 242.379C88.418 245.371 90.4924 248.545 95.5688 248.217H95.7807C96.7929 248.129 97.7745 247.825 98.6589 247.326C99.5434 246.826 100.31 246.143 100.907 245.321C101.504 244.5 101.918 243.56 102.119 242.565C102.321 241.57 102.307 240.544 102.077 239.555L100.28 231.667C100.093 230.691 99.6635 229.778 99.0319 229.01C98.4004 228.243 97.5864 227.646 96.6645 227.274Z" fill="#9A4A4D"/>
<path d="M107.043 167.976L159.342 137.809C160.231 137.221 160.925 136.381 161.335 135.397C161.744 134.414 161.852 133.33 161.642 132.285L153.564 96.7546C153.096 94.7041 151.307 93.8357 149.569 94.8646L97.2702 125.032C96.3773 125.615 95.6796 126.453 95.267 127.436C94.8544 128.419 94.7456 129.503 94.9548 130.548L103.033 166.079C103.515 168.129 105.305 168.976 107.043 167.976Z" fill="#E0E0E0"/>
<path d="M97.7159 129.665C97.6657 129.33 97.7175 128.987 97.8647 128.681C98.0118 128.375 98.2476 128.121 98.5413 127.95L153.659 96.1562C154.412 95.8028 155.272 95.7506 156.062 96.0103L157.559 96.5503C157.922 96.6814 158.251 96.8905 158.524 97.1629C158.797 97.4353 159.006 97.7643 159.137 98.1265L167.625 135.437C167.674 135.774 167.621 136.117 167.474 136.424C167.327 136.731 167.092 136.987 166.799 137.16L111.682 168.947C110.929 169.3 110.069 169.352 109.279 169.093L107.781 168.553C107.419 168.421 107.089 168.212 106.817 167.94C106.544 167.668 106.335 167.339 106.203 166.976L97.7159 129.665Z" fill="#BA68C8"/>
<path opacity="0.5" d="M97.7159 129.665C97.6657 129.33 97.7175 128.987 97.8647 128.681C98.0118 128.375 98.2476 128.121 98.5413 127.95L153.659 96.1562C154.412 95.8028 155.272 95.7506 156.062 96.0103L157.559 96.5503C157.922 96.6814 158.251 96.8905 158.524 97.1629C158.797 97.4353 159.006 97.7643 159.137 98.1265L167.625 135.437C167.674 135.774 167.621 136.117 167.474 136.424C167.327 136.731 167.092 136.987 166.799 137.16L111.682 168.947C110.929 169.3 110.069 169.352 109.279 169.093L107.781 168.553C107.419 168.421 107.089 168.212 106.817 167.94C106.544 167.668 106.335 167.339 106.203 166.976L97.7159 129.665Z" fill="white"/>
<path d="M103.72 130.811L97.8764 128.709C97.7229 129.003 97.674 129.34 97.7376 129.665L106.225 166.976C106.356 167.339 106.566 167.668 106.838 167.94C107.111 168.212 107.44 168.421 107.803 168.553L109.3 169.093C110.091 169.352 110.95 169.3 111.703 168.947L112.31 168.596L103.72 130.811Z" fill="#BA68C8"/>
<path d="M159.137 98.1265L167.625 135.438C167.691 135.774 167.637 136.122 167.471 136.423C167.342 136.687 167.149 136.916 166.909 137.087L166.836 137.13L111.682 168.947C111.564 169.022 111.431 169.071 111.293 169.091C111.154 169.112 111.013 169.102 110.878 169.063C110.746 169.019 110.629 168.94 110.537 168.835C110.446 168.729 110.385 168.602 110.36 168.465L101.872 131.154C101.733 130.548 102.252 130.132 103.033 130.227L130.015 133.54L133.543 133.971C133.917 134.027 134.3 133.985 134.653 133.849C135.006 133.714 135.319 133.489 135.559 133.197L138.481 128.644L158.275 97.9514C158.611 97.4479 158.998 97.5208 159.137 98.1265Z" fill="#BA68C8"/>
<path opacity="0.2" d="M159.137 98.1265L167.625 135.438C167.691 135.774 167.637 136.122 167.471 136.423C167.342 136.687 167.149 136.916 166.909 137.087L166.836 137.13L111.682 168.947C111.564 169.022 111.431 169.071 111.293 169.091C111.154 169.112 111.013 169.102 110.878 169.063C110.746 169.019 110.629 168.94 110.537 168.835C110.446 168.729 110.385 168.602 110.36 168.465L101.872 131.154C101.733 130.548 102.252 130.132 103.033 130.227L130.015 133.54L133.543 133.971C133.917 134.027 134.3 133.985 134.653 133.849C135.006 133.714 135.319 133.489 135.559 133.197L138.481 128.644L158.275 97.9514C158.611 97.4479 158.998 97.5208 159.137 98.1265Z" fill="white"/>
<path d="M166.799 137.189L166.872 137.145C167.112 136.974 167.306 136.746 167.435 136.481C167.599 136.186 167.656 135.843 167.596 135.51L138.452 128.717L159.78 141.246L166.799 137.189Z" fill="#BA68C8"/>
<path d="M166.799 137.189L166.872 137.145C167.112 136.974 167.306 136.746 167.435 136.481C167.599 136.186 167.656 135.843 167.596 135.51L138.452 128.717L159.78 141.246L166.799 137.189Z" fill="#BA68C8"/>
<path opacity="0.2" d="M166.799 137.189L166.872 137.145C167.112 136.974 167.306 136.746 167.435 136.481C167.599 136.186 167.656 135.843 167.596 135.51L138.452 128.717L159.78 141.246L166.799 137.189Z" fill="black"/>
<path d="M110.352 168.472C110.377 168.609 110.439 168.737 110.53 168.842C110.621 168.947 110.739 169.026 110.871 169.071C111.005 169.109 111.147 169.119 111.285 169.099C111.424 169.079 111.556 169.029 111.674 168.954L130.665 158.008L130.015 133.54L110.228 167.837L110.352 168.472Z" fill="#BA68C8"/>
<path d="M110.352 168.472C110.377 168.609 110.439 168.737 110.53 168.842C110.621 168.947 110.739 169.026 110.871 169.071C111.005 169.109 111.147 169.119 111.285 169.099C111.424 169.079 111.556 169.029 111.674 168.954L130.665 158.008L130.015 133.54L110.228 167.837L110.352 168.472Z" fill="#BA68C8"/>
<path opacity="0.2" d="M110.352 168.472C110.377 168.609 110.439 168.737 110.53 168.842C110.621 168.947 110.739 169.026 110.871 169.071C111.005 169.109 111.147 169.119 111.285 169.099C111.424 169.079 111.556 169.029 111.674 168.954L130.665 158.008L130.015 133.54L110.228 167.837L110.352 168.472Z" fill="black"/>
<path d="M167.471 136.459C167.342 136.724 167.149 136.952 166.909 137.123L111.681 168.947C111.563 169.022 111.431 169.071 111.292 169.091C111.154 169.112 111.012 169.102 110.878 169.063L131.87 130.089C132.739 128.476 135.07 127.732 137.341 128.337L167.471 136.459Z" fill="#BA68C8"/>
<path opacity="0.2" d="M167.471 136.459C167.342 136.724 167.149 136.952 166.909 137.123L111.681 168.947C111.563 169.022 111.431 169.071 111.292 169.091C111.154 169.112 111.012 169.102 110.878 169.063L131.87 130.089C132.739 128.476 135.07 127.732 137.341 128.337L167.471 136.459Z" fill="white"/>
<path d="M102.164 130.235L132.374 138.335C134.624 138.94 136.932 138.203 137.787 136.598L158.706 97.623L102.164 130.235Z" fill="#BA68C8"/>
<path opacity="0.2" d="M102.164 130.235L132.374 138.335C134.624 138.94 136.932 138.203 137.787 136.598L158.706 97.623L102.164 130.235Z" fill="black"/>
<path d="M102.164 130.235L132.243 136.882C134.383 137.349 136.509 136.627 137.356 135.138L158.706 97.623L102.164 130.235Z" fill="#BA68C8"/>
<path opacity="0.2" d="M102.164 130.235L132.243 136.882C134.383 137.349 136.509 136.627 137.356 135.138L158.706 97.623L102.164 130.235Z" fill="white"/>
<path d="M126.151 199.34L160.598 179.469C161.186 179.082 161.645 178.527 161.916 177.877C162.187 177.227 162.257 176.511 162.117 175.821L158.29 159.037C158.259 158.747 158.154 158.469 157.985 158.231C157.816 157.993 157.588 157.803 157.324 157.678C157.06 157.554 156.768 157.499 156.477 157.52C156.185 157.54 155.904 157.636 155.66 157.796L121.25 177.696C120.662 178.084 120.203 178.638 119.932 179.288C119.661 179.938 119.591 180.654 119.731 181.345L123.558 198.128C123.596 198.41 123.705 198.678 123.873 198.908C124.042 199.137 124.266 199.32 124.524 199.441C124.782 199.561 125.066 199.615 125.35 199.598C125.635 199.58 125.91 199.491 126.151 199.34Z" fill="#E0E0E0"/>
<path d="M167.362 176.733L163.98 162.043C163.563 160.212 162.3 159.781 161.182 159.38C160.514 159.12 159.8 159 159.084 159.027C158.367 159.055 157.665 159.23 157.019 159.54L123.836 178.681C123.196 179.055 122.683 179.611 122.362 180.278C122.041 180.945 121.926 181.692 122.031 182.425L125.413 197.114C125.713 198.435 126.94 199.157 128.065 199.559C129.19 199.96 131.074 200.369 132.374 199.617L165.557 180.476C166.85 179.732 167.778 178.572 167.362 176.733Z" fill="#263238"/>
<path d="M167.362 176.733L163.98 162.043C163.564 160.212 162.3 159.781 161.182 159.38C160.515 159.12 159.8 159 159.084 159.027C158.368 159.055 157.665 159.23 157.019 159.54L123.836 178.681C123.21 179.049 122.703 179.588 122.375 180.235L126.633 182.374L128.518 182.053L132.353 199.617L165.536 180.476C166.85 179.732 167.778 178.572 167.362 176.733Z" fill="#37474F"/>
<path d="M161.153 161.591L127.875 180.783C127.427 181.046 127.067 181.436 126.841 181.904C126.614 182.371 126.532 182.895 126.604 183.41L129.854 197.53C130.176 198.946 131.585 199.449 132.973 198.647L165.367 179.965C165.879 179.668 166.291 179.226 166.551 178.694C166.811 178.163 166.907 177.567 166.828 176.981L163.476 162.386C163.213 161.365 162.154 161 161.153 161.591Z" fill="#BA68C8"/>
<path d="M161.153 161.591L127.875 180.783C127.427 181.046 127.067 181.436 126.841 181.904C126.614 182.371 126.532 182.895 126.604 183.41L129.854 197.53C130.176 198.946 131.585 199.449 132.973 198.647L165.367 179.965C165.879 179.668 166.291 179.226 166.551 178.694C166.811 178.163 166.907 177.567 166.828 176.981L163.476 162.386C163.213 161.365 162.154 161 161.153 161.591Z" fill="#455A64"/>
<path d="M134.96 181.323C135.369 181.065 135.831 180.903 136.311 180.848C136.677 180.806 137.047 180.851 137.392 180.98C137.679 181.099 137.931 181.29 138.123 181.534C138.318 181.767 138.462 182.038 138.546 182.33C138.587 182.438 138.587 182.557 138.546 182.665C138.512 182.763 138.445 182.846 138.356 182.899L137.626 183.337C137.584 183.369 137.535 183.392 137.484 183.403C137.432 183.415 137.378 183.414 137.326 183.403C137.238 183.367 137.158 183.312 137.093 183.242C136.925 183.054 136.698 182.928 136.45 182.884C136.076 182.855 135.704 182.959 135.398 183.176C135.21 183.286 135.036 183.419 134.88 183.57C134.725 183.716 134.593 183.883 134.485 184.067C134.383 184.238 134.311 184.425 134.273 184.621C134.23 184.806 134.23 184.998 134.273 185.183C134.303 185.367 134.384 185.539 134.507 185.679C134.623 185.791 134.777 185.853 134.938 185.854C135.184 185.857 135.43 185.828 135.668 185.767C135.961 185.701 136.319 185.614 136.742 185.497C137.145 185.383 137.559 185.317 137.977 185.3C138.293 185.284 138.608 185.344 138.897 185.475C139.158 185.609 139.377 185.81 139.532 186.059C139.727 186.363 139.861 186.703 139.927 187.058C140.029 187.506 140.052 187.968 139.993 188.423C139.936 188.888 139.8 189.34 139.591 189.758C139.372 190.205 139.086 190.616 138.744 190.977C138.377 191.374 137.951 191.711 137.48 191.977C137.104 192.199 136.694 192.359 136.267 192.451C135.897 192.535 135.513 192.535 135.143 192.451C134.802 192.366 134.491 192.19 134.244 191.94C133.971 191.655 133.777 191.302 133.682 190.919C133.641 190.81 133.641 190.691 133.682 190.583C133.716 190.486 133.783 190.403 133.872 190.35L134.602 189.912C134.69 189.846 134.8 189.817 134.909 189.831C135.002 189.863 135.081 189.925 135.135 190.007C135.216 190.108 135.306 190.201 135.405 190.284C135.512 190.374 135.641 190.434 135.778 190.459C135.95 190.487 136.125 190.487 136.297 190.459C136.555 190.395 136.801 190.292 137.027 190.152C137.246 190.027 137.453 189.883 137.648 189.722C137.83 189.564 137.991 189.386 138.13 189.189C138.257 189.007 138.353 188.804 138.415 188.591C138.47 188.375 138.47 188.15 138.415 187.934C138.401 187.845 138.369 187.76 138.321 187.683C138.274 187.607 138.211 187.541 138.137 187.489C137.969 187.402 137.777 187.371 137.589 187.401C137.308 187.432 137.03 187.486 136.757 187.562C136.428 187.65 136.026 187.737 135.617 187.832C135.273 187.916 134.92 187.957 134.565 187.956C134.282 187.96 134.003 187.889 133.755 187.752C133.509 187.601 133.305 187.39 133.163 187.139C132.977 186.804 132.847 186.442 132.776 186.066C132.674 185.621 132.651 185.161 132.71 184.709C132.77 184.254 132.898 183.811 133.09 183.395C133.289 182.976 133.547 182.588 133.857 182.242C134.172 181.877 134.544 181.567 134.96 181.323Z" fill="#FAFAFA"/>
<path d="M146.486 184.504C146.52 184.479 146.561 184.466 146.603 184.466C146.645 184.466 146.686 184.479 146.72 184.504C146.759 184.529 146.793 184.562 146.818 184.601C146.843 184.641 146.86 184.685 146.866 184.731L147.107 185.789C147.143 185.895 147.143 186.011 147.107 186.117C147.078 186.217 147.013 186.303 146.924 186.358L142.133 189.124C142.098 189.145 142.057 189.156 142.016 189.156C141.975 189.156 141.934 189.145 141.899 189.124C141.82 189.069 141.765 188.985 141.746 188.89L139.555 179.301C139.518 179.192 139.518 179.075 139.555 178.966C139.581 178.868 139.644 178.785 139.73 178.732L144.441 176.018C144.475 175.993 144.516 175.979 144.558 175.979C144.6 175.979 144.641 175.993 144.675 176.018C144.714 176.043 144.747 176.076 144.773 176.115C144.798 176.154 144.814 176.198 144.821 176.244L145.062 177.302C145.098 177.408 145.098 177.524 145.062 177.63C145.035 177.731 144.969 177.818 144.879 177.871L141.359 179.907L141.892 182.264L145.179 180.367C145.214 180.346 145.254 180.334 145.296 180.334C145.337 180.334 145.377 180.346 145.412 180.367C145.453 180.392 145.488 180.427 145.515 180.467C145.541 180.507 145.559 180.553 145.566 180.6L145.807 181.658C145.836 181.766 145.836 181.879 145.807 181.987C145.775 182.086 145.711 182.171 145.624 182.228L142.337 184.125L142.9 186.584L146.486 184.504Z" fill="#FAFAFA"/>
<path d="M153.513 182.549C153.466 182.579 153.411 182.594 153.356 182.594C153.3 182.594 153.246 182.579 153.199 182.549L153.009 182.425L148.546 178.054L149.934 184.169C149.97 184.278 149.97 184.395 149.934 184.504C149.905 184.603 149.84 184.686 149.751 184.738L148.867 185.249C148.833 185.274 148.792 185.287 148.75 185.287C148.708 185.287 148.667 185.274 148.634 185.249C148.594 185.224 148.561 185.191 148.536 185.152C148.51 185.113 148.494 185.069 148.487 185.022L146.296 175.427C146.26 175.32 146.26 175.205 146.296 175.098C146.325 174.998 146.39 174.912 146.479 174.857L147.209 174.42C147.256 174.39 147.311 174.374 147.366 174.374C147.422 174.374 147.476 174.39 147.523 174.42C147.591 174.454 147.655 174.496 147.713 174.544L152.176 178.958L150.788 172.836C150.752 172.73 150.752 172.614 150.788 172.508C150.8 172.458 150.822 172.411 150.852 172.37C150.882 172.328 150.92 172.293 150.964 172.267L151.855 171.756C151.89 171.735 151.93 171.724 151.972 171.724C152.013 171.724 152.053 171.735 152.088 171.756C152.128 171.782 152.161 171.817 152.187 171.857C152.212 171.897 152.228 171.943 152.235 171.99L154.426 181.578C154.458 181.688 154.458 181.804 154.426 181.914C154.394 182.011 154.33 182.094 154.243 182.147L153.513 182.549Z" fill="#FAFAFA"/>
<path d="M156.902 168.837C157.344 168.557 157.843 168.38 158.363 168.319C158.771 168.274 159.183 168.361 159.539 168.567C159.915 168.8 160.227 169.123 160.445 169.508C160.731 169.989 160.947 170.507 161.087 171.048C161.284 171.778 161.452 172.508 161.591 173.237C161.7 173.846 161.742 174.466 161.715 175.084C161.694 175.643 161.591 176.196 161.409 176.725C161.227 177.231 160.958 177.701 160.612 178.112C160.247 178.546 159.807 178.912 159.312 179.192L156.559 180.775C156.524 180.798 156.483 180.811 156.442 180.811C156.4 180.811 156.36 180.798 156.325 180.775C156.245 180.72 156.19 180.637 156.172 180.542L153.98 170.953C153.944 170.847 153.944 170.731 153.98 170.625C153.992 170.575 154.014 170.528 154.044 170.487C154.074 170.446 154.112 170.411 154.156 170.384L156.902 168.837ZM159.619 171.902C159.547 171.619 159.434 171.349 159.283 171.099C159.163 170.888 158.993 170.71 158.786 170.581C158.583 170.463 158.349 170.41 158.114 170.428C157.814 170.461 157.524 170.56 157.267 170.72L155.806 171.566L157.326 178.251L158.845 177.375C159.124 177.214 159.372 177.004 159.575 176.755C159.766 176.521 159.917 176.257 160.021 175.974C160.119 175.682 160.175 175.377 160.189 175.069C160.203 174.744 160.181 174.419 160.123 174.098C159.962 173.347 159.816 172.617 159.619 171.902Z" fill="#FAFAFA"/>
<path d="M177.748 74.155C177.834 74.3662 177.961 74.5584 178.121 74.7206C178.282 74.8827 178.473 75.0116 178.683 75.0997C178.893 75.1879 179.119 75.2336 179.348 75.2343C179.576 75.235 179.802 75.1905 180.013 75.1036L206.439 64.3036C206.651 64.2193 206.844 64.0931 207.006 63.9326C207.168 63.7721 207.296 63.5806 207.382 63.3696C207.531 63.0191 207.559 62.6291 207.463 62.2608C207.366 61.8924 207.15 61.5664 206.848 61.3336L206.79 61.2898C206.552 61.1181 206.274 61.0099 205.983 60.9754C205.691 60.9409 205.396 60.9813 205.125 61.0928L178.698 71.8928C178.272 72.0675 177.933 72.4037 177.755 72.8278C177.577 73.2518 177.575 73.7291 177.748 74.155ZM32.3942 131.548C32.5216 131.84 32.7261 132.093 32.9859 132.278C33.2251 132.45 33.5041 132.558 33.7967 132.592C34.0893 132.627 34.3859 132.586 34.6585 132.475L61.0852 121.675C61.511 121.5 61.8501 121.164 62.0281 120.74C62.2061 120.316 62.2085 119.839 62.0348 119.413C61.9221 119.124 61.7327 118.872 61.487 118.683L61.4358 118.639C61.1965 118.47 60.9185 118.365 60.6274 118.332C60.3364 118.298 60.0417 118.339 59.7705 118.449L33.3365 129.279C33.1241 129.364 32.9309 129.491 32.768 129.652C32.6051 129.813 32.4757 130.004 32.3874 130.215C32.2991 130.426 32.2536 130.653 32.2535 130.882C32.2534 131.11 32.2988 131.337 32.3869 131.548H32.3942ZM166.31 43.718C166.335 44.1784 166.539 44.6108 166.88 44.9221L166.938 44.9658C167.281 45.2547 167.723 45.3987 168.17 45.3673C168.617 45.336 169.035 45.1318 169.334 44.798L188.478 23.6359C188.784 23.2912 188.944 22.8411 188.924 22.3808C188.913 22.1535 188.857 21.9306 188.759 21.7252C188.662 21.5197 188.524 21.3358 188.354 21.184L188.296 21.1329C187.952 20.845 187.51 20.7022 187.062 20.7349C186.615 20.7676 186.198 20.9732 185.9 21.3081L166.756 42.4702C166.449 42.8114 166.288 43.2597 166.31 43.718ZM136.129 29.9772C136.108 30.2043 136.132 30.4334 136.199 30.6513C136.267 30.8692 136.376 31.0717 136.522 31.2472C136.668 31.4227 136.847 31.5678 137.049 31.6742C137.251 31.7806 137.472 31.8462 137.699 31.8672C137.927 31.8898 138.156 31.8665 138.375 31.7988C138.593 31.7312 138.796 31.6204 138.97 31.4732C139.325 31.1792 139.548 30.7567 139.591 30.2983L142.213 1.8973C142.241 1.59261 142.188 1.2861 142.059 1.00828C141.931 0.730456 141.732 0.491013 141.483 0.313787H141.424C141.177 0.159602 140.894 0.070296 140.602 0.0541119C140.311 0.0379279 140.02 0.0953874 139.756 0.221187C139.493 0.346986 139.265 0.53707 139.095 0.773894C138.924 1.01072 138.816 1.28665 138.78 1.57622L136.129 29.9772ZM94.9038 16.1854L101.668 43.915C101.741 44.2348 101.906 44.5264 102.142 44.7542C102.354 44.9581 102.613 45.1052 102.897 45.1818C103.18 45.2583 103.479 45.2619 103.764 45.1921C103.986 45.1393 104.195 45.0431 104.379 44.9091C104.563 44.7751 104.719 44.6059 104.838 44.4112C105.074 44.0167 105.148 43.5455 105.042 43.0977L98.2784 15.3681C98.2121 15.0804 98.0739 14.8143 97.8766 14.5946L97.8255 14.5508C97.557 14.2779 97.2058 14.1012 96.8265 14.0482C96.4471 13.9953 96.0609 14.0689 95.7278 14.2578C95.3947 14.4467 95.1333 14.7402 94.9843 15.0927C94.8353 15.4452 94.807 15.837 94.9038 16.2073V16.1854ZM47.5505 44.0464C47.2956 44.3852 47.1741 44.8057 47.2092 45.2281C47.2442 45.6505 47.4332 46.0454 47.7404 46.3377C47.7934 46.3875 47.8495 46.4338 47.9084 46.4764L70.851 63.4863C71.2217 63.7593 71.6853 63.8748 72.1408 63.8079C72.5964 63.7409 73.007 63.4968 73.2833 63.1288C73.4642 62.8827 73.5776 62.5936 73.6122 62.2902C73.6468 61.9869 73.6014 61.6797 73.4805 61.3993C73.3868 61.1882 73.2528 60.9974 73.0861 60.8374L72.9254 60.6988L49.9755 43.6888C49.7932 43.5529 49.5857 43.4545 49.365 43.3993C49.1443 43.3442 48.9149 43.3335 48.69 43.3677C48.4641 43.3985 48.2468 43.4744 48.051 43.591C47.8552 43.7076 47.685 43.8625 47.5505 44.0464ZM53.1163 88.1365C52.973 87.8721 52.7626 87.65 52.5061 87.4924C52.2497 87.3349 51.9564 87.2475 51.6555 87.239L23.1106 86.5749C22.883 86.5686 22.6565 86.608 22.4445 86.6908C22.2325 86.7735 22.0392 86.8979 21.8761 87.0565C21.5433 87.3735 21.3491 87.8087 21.3356 88.2679C21.3285 88.5233 21.3786 88.777 21.4822 89.0106C21.5858 89.2442 21.7404 89.4516 21.9346 89.6179C22.2369 89.8861 22.6259 90.0364 23.0302 90.0411L51.5751 90.7052C51.8036 90.7104 52.0309 90.6705 52.244 90.5879C52.4571 90.5053 52.6517 90.3814 52.8169 90.2236C53.136 89.9065 53.3171 89.4765 53.3208 89.0268C53.333 88.7172 53.2625 88.4099 53.1163 88.1365Z" fill="#F5F5F5"/>
<path d="M26.5581 207.162L61.4139 186.584L37.2223 213.46L26.5581 207.162Z" fill="#BA68C8"/>
<path opacity="0.2" d="M26.5581 207.162L61.4139 186.584L37.2223 213.46L26.5581 207.162Z" fill="white"/>
<path d="M61.4141 186.584L22.4825 202.842L11.8184 196.552L61.4141 186.584Z" fill="#BA68C8"/>
<path opacity="0.2" d="M61.4141 186.584L22.4825 202.842L11.8184 196.552L61.4141 186.584Z" fill="white"/>
<path d="M22.4824 202.842L24.8563 212.854L26.5582 207.162L61.414 186.584L22.4824 202.842Z" fill="#BA68C8"/>
<path opacity="0.2" d="M22.4824 202.842L24.8563 212.854L26.5582 207.162L61.414 186.584L22.4824 202.842Z" fill="black"/>
<path d="M24.8564 212.854L30.1155 209.264L26.5583 207.162L24.8564 212.854Z" fill="#BA68C8"/>
<path opacity="0.2" d="M26.5581 207.162L30.1153 209.264L29.2753 209.833L26.5581 207.162Z" fill="black"/>
<path d="M16.3907 215.941C16.2006 215.936 16.0198 215.858 15.8868 215.722C15.8255 215.657 15.7778 215.58 15.7464 215.496C15.7151 215.412 15.7007 215.322 15.7041 215.233C15.7075 215.143 15.7286 215.055 15.7662 214.974C15.8039 214.893 15.8572 214.82 15.9233 214.759C16.6537 214.095 17.333 213.482 18.0269 212.927C18.096 212.87 18.1758 212.827 18.2617 212.802C18.3475 212.776 18.4377 212.767 18.5269 212.777C18.6161 212.786 18.7024 212.814 18.7809 212.857C18.8593 212.9 18.9283 212.959 18.9838 213.029C19.0411 213.099 19.0841 213.179 19.11 213.266C19.136 213.352 19.1445 213.443 19.1349 213.533C19.1254 213.622 19.0981 213.709 19.0546 213.788C19.0111 213.867 18.9522 213.937 18.8815 213.993C18.2168 214.525 17.5375 215.124 16.8582 215.751C16.7969 215.812 16.7239 215.861 16.6437 215.893C16.5634 215.926 16.4774 215.942 16.3907 215.941Z" fill="#E0E0E0"/>
<path d="M67.5862 294.27C66.2276 294.27 64.8982 294.27 63.5834 294.204C63.4013 294.198 63.2294 294.119 63.1054 293.985C62.9815 293.852 62.9156 293.675 62.9224 293.493C62.9292 293.311 63.008 293.139 63.1416 293.015C63.2751 292.891 63.4525 292.826 63.6346 292.832C65.3827 292.891 67.1698 292.91 68.9959 292.891C69.178 292.891 69.3526 292.963 69.4814 293.092C69.6101 293.22 69.6825 293.395 69.6825 293.577C69.6825 293.759 69.6101 293.933 69.4814 294.062C69.3526 294.19 69.178 294.263 68.9959 294.263L67.5862 294.27ZM73.488 294.131C73.3121 294.13 73.1436 294.061 73.0172 293.938C72.8908 293.816 72.8162 293.65 72.8087 293.475C72.8017 293.384 72.8132 293.292 72.8424 293.206C72.8716 293.12 72.9179 293.04 72.9786 292.972C73.0393 292.904 73.113 292.849 73.1955 292.81C73.278 292.771 73.3676 292.749 73.4588 292.745C75.2118 292.665 77.0159 292.541 78.8128 292.387C78.9053 292.374 78.9996 292.38 79.0899 292.404C79.1802 292.428 79.2646 292.471 79.3378 292.529C79.411 292.587 79.4716 292.66 79.5159 292.742C79.5601 292.824 79.587 292.915 79.595 293.008C79.603 293.101 79.5918 293.195 79.5622 293.283C79.5326 293.372 79.4853 293.454 79.423 293.523C79.3606 293.593 79.2848 293.649 79.1999 293.688C79.1151 293.728 79.0231 293.749 78.9296 293.752C77.1182 293.905 75.2775 294.029 73.5245 294.11L73.488 294.131ZM59.1206 293.964H59.0694C57.258 293.825 55.4173 293.65 53.6716 293.424C53.5024 293.389 53.3524 293.292 53.2516 293.152C53.1508 293.012 53.1066 292.839 53.1278 292.667C53.149 292.496 53.2341 292.339 53.366 292.228C53.4979 292.116 53.667 292.059 53.8396 292.066C55.5926 292.285 57.3822 292.46 59.1717 292.599C59.2616 292.604 59.3495 292.628 59.4304 292.668C59.5112 292.707 59.5832 292.763 59.6424 292.831C59.7015 292.899 59.7465 292.978 59.7748 293.063C59.8031 293.149 59.8141 293.239 59.8072 293.329C59.7852 293.498 59.7044 293.654 59.5789 293.77C59.4535 293.886 59.2913 293.955 59.1206 293.964ZM83.3414 293.307C83.1694 293.302 83.0054 293.233 82.8818 293.114C82.7582 292.994 82.684 292.833 82.6739 292.661C82.6638 292.49 82.7185 292.321 82.8273 292.188C82.936 292.054 83.0908 291.967 83.261 291.942C85.0067 291.731 86.7963 291.482 88.5785 291.212C88.671 291.189 88.7672 291.186 88.8612 291.202C88.9551 291.218 89.0446 291.254 89.124 291.306C89.2034 291.359 89.271 291.428 89.3225 291.508C89.3739 291.588 89.4081 291.678 89.4229 291.772C89.4377 291.866 89.4327 291.962 89.4082 292.054C89.3838 292.146 89.3404 292.232 89.2809 292.306C89.2214 292.381 89.1471 292.442 89.0626 292.486C88.9781 292.53 88.8854 292.556 88.7903 292.562C86.9935 292.84 85.1894 293.088 83.4217 293.292L83.3414 293.307ZM93.2751 291.804C93.1083 291.808 92.9448 291.756 92.8119 291.655C92.679 291.554 92.5847 291.411 92.5447 291.249C92.5278 291.161 92.5287 291.07 92.5471 290.982C92.5656 290.894 92.6014 290.811 92.6523 290.737C92.7033 290.663 92.7684 290.6 92.844 290.551C92.9196 290.503 93.004 290.469 93.0925 290.454C94.8236 290.132 96.5912 289.768 98.3516 289.366C98.5277 289.338 98.7082 289.375 98.8589 289.47C99.0096 289.566 99.1202 289.713 99.1697 289.884C99.1901 289.972 99.1928 290.063 99.1778 290.152C99.1627 290.241 99.13 290.326 99.0818 290.402C99.0335 290.478 98.9706 290.543 98.8966 290.595C98.8227 290.646 98.7392 290.683 98.651 290.702C96.8761 291.11 95.0866 291.475 93.3409 291.796L93.2751 291.804ZM102.924 289.651C102.836 289.668 102.746 289.668 102.658 289.65C102.571 289.633 102.487 289.598 102.413 289.548C102.339 289.498 102.275 289.434 102.225 289.36C102.176 289.286 102.141 289.202 102.124 289.115C102.107 289.027 102.107 288.937 102.125 288.849C102.142 288.761 102.177 288.678 102.227 288.604C102.277 288.53 102.341 288.466 102.415 288.417C102.49 288.367 102.573 288.333 102.661 288.315C104.363 287.87 106.101 287.381 107.832 286.856C108.003 286.817 108.182 286.845 108.332 286.933C108.483 287.021 108.595 287.164 108.644 287.331C108.693 287.498 108.677 287.678 108.598 287.834C108.519 287.99 108.384 288.11 108.22 288.17C106.474 288.688 104.721 289.177 103.004 289.629L102.924 289.651ZM112.69 286.834C112.519 286.856 112.347 286.814 112.206 286.715C112.065 286.616 111.967 286.468 111.93 286.3C111.893 286.133 111.921 285.957 112.007 285.809C112.094 285.66 112.233 285.55 112.398 285.499C114.092 285.024 115.823 284.506 117.547 283.966C117.632 283.939 117.722 283.93 117.811 283.938C117.901 283.945 117.987 283.971 118.067 284.012C118.146 284.053 118.216 284.11 118.274 284.178C118.331 284.247 118.375 284.326 118.402 284.411C118.429 284.497 118.438 284.586 118.43 284.676C118.423 284.765 118.397 284.851 118.356 284.93C118.315 285.01 118.258 285.08 118.189 285.138C118.121 285.195 118.042 285.238 117.956 285.265C116.225 285.82 114.479 286.338 112.77 286.812L112.69 286.834ZM49.311 292.767H49.1941C47.3827 292.453 45.5931 292.088 43.8693 291.687C43.6941 291.643 43.5431 291.533 43.449 291.379C43.355 291.225 43.3254 291.04 43.3667 290.864C43.408 290.689 43.5168 290.536 43.6697 290.44C43.8226 290.344 44.0071 290.312 44.1834 290.351C45.878 290.745 47.6456 291.081 49.4278 291.417C49.5924 291.451 49.7388 291.544 49.8392 291.679C49.9397 291.813 49.9872 291.98 49.9728 292.147C49.9584 292.315 49.883 292.471 49.7611 292.586C49.6391 292.702 49.479 292.769 49.311 292.774V292.767ZM39.684 290.578C39.6209 290.585 39.5572 290.585 39.4941 290.578C37.7338 290.067 35.9954 289.498 34.3227 288.885C34.2379 288.855 34.16 288.808 34.0934 288.747C34.0268 288.687 33.9729 288.614 33.9349 288.532C33.8968 288.451 33.8753 288.363 33.8717 288.273C33.8681 288.183 33.8823 288.093 33.9137 288.009C33.9762 287.839 34.1035 287.701 34.2677 287.624C34.4318 287.548 34.6197 287.539 34.7902 287.6C36.4409 288.206 38.1501 288.761 39.9031 289.257C40.0725 289.317 40.2139 289.437 40.3001 289.594C40.3864 289.752 40.4115 289.936 40.3706 290.111C40.3191 290.249 40.2246 290.366 40.1009 290.447C39.9773 290.527 39.8311 290.565 39.684 290.556V290.578ZM30.3857 287.221C30.2923 287.222 30.1998 287.202 30.1155 287.162C28.4282 286.433 26.7774 285.637 25.207 284.805C25.1241 284.765 25.0501 284.709 24.9895 284.639C24.9289 284.57 24.8829 284.489 24.8543 284.401C24.8257 284.314 24.815 284.221 24.8229 284.13C24.8308 284.038 24.8572 283.949 24.9004 283.867C24.9436 283.786 25.0027 283.714 25.0743 283.656C25.1459 283.598 25.2284 283.555 25.3171 283.529C25.4057 283.504 25.4985 283.496 25.59 283.508C25.6816 283.519 25.7699 283.548 25.8498 283.594C27.391 284.411 29.0125 285.192 30.6633 285.907C30.8074 285.971 30.9253 286.082 30.9971 286.222C31.069 286.362 31.0904 286.523 31.0579 286.677C31.0254 286.831 30.9408 286.969 30.8184 287.068C30.696 287.167 30.5432 287.221 30.3857 287.221ZM21.6206 282.638C21.4938 282.641 21.3692 282.605 21.2627 282.536C19.6996 281.558 18.1877 280.515 16.7706 279.435C16.6993 279.38 16.6395 279.312 16.5946 279.235C16.5497 279.157 16.5207 279.071 16.5091 278.983C16.4976 278.894 16.5038 278.803 16.5274 278.717C16.5509 278.63 16.5914 278.549 16.6465 278.479C16.7565 278.335 16.9187 278.241 17.0979 278.217C17.277 278.192 17.4586 278.239 17.6033 278.347C18.9838 279.405 20.4593 280.42 21.9859 281.376C22.11 281.456 22.205 281.573 22.2568 281.712C22.3086 281.85 22.3144 282.001 22.2734 282.143C22.2324 282.284 22.1468 282.409 22.0292 282.498C21.9116 282.588 21.7683 282.637 21.6206 282.638ZM13.7321 276.713C13.561 276.713 13.3965 276.647 13.2719 276.53C11.9206 275.311 10.6379 274.017 9.42988 272.656C9.31854 272.515 9.26296 272.338 9.27374 272.159C9.28452 271.98 9.3609 271.811 9.48831 271.685C9.55523 271.625 9.63338 271.579 9.71822 271.55C9.80306 271.52 9.89292 271.508 9.98259 271.513C10.0723 271.519 10.16 271.542 10.2406 271.581C10.3213 271.621 10.3933 271.676 10.4525 271.743C11.6302 273.067 12.8786 274.327 14.1922 275.516C14.3186 275.643 14.3936 275.813 14.4031 275.992C14.4125 276.171 14.3556 276.347 14.2434 276.487C14.1133 276.623 13.9353 276.704 13.7467 276.713H13.7321ZM7.15827 269.372C7.04919 269.369 6.94206 269.342 6.84474 269.293C6.74741 269.244 6.66236 269.174 6.59584 269.087C5.5327 267.601 4.57357 266.043 3.72528 264.424C3.6834 264.344 3.65774 264.257 3.64977 264.167C3.64179 264.077 3.65166 263.986 3.6788 263.9C3.70595 263.814 3.74983 263.734 3.80794 263.665C3.86605 263.596 3.93725 263.539 4.01745 263.497C4.09696 263.456 4.18396 263.43 4.27341 263.422C4.36286 263.414 4.45298 263.424 4.53856 263.452C4.62415 263.479 4.7035 263.523 4.77202 263.58C4.84055 263.638 4.89688 263.709 4.93778 263.789C5.75706 265.353 6.68451 266.857 7.71339 268.292C7.81883 268.44 7.86113 268.624 7.831 268.803C7.80087 268.982 7.70077 269.142 7.55269 269.248C7.43824 269.331 7.29975 269.374 7.15827 269.372ZM2.52738 260.681C2.38601 260.683 2.24745 260.641 2.13185 260.56C2.01626 260.478 1.92965 260.362 1.88461 260.228C1.40667 258.936 1.02101 257.612 0.730543 256.266C0.628284 255.813 0.540633 255.361 0.467591 254.909C0.452243 254.818 0.454806 254.726 0.475131 254.637C0.495457 254.548 0.533148 254.464 0.586052 254.389C0.638957 254.315 0.706038 254.251 0.783467 254.203C0.860896 254.154 0.947155 254.121 1.03732 254.106C1.12749 254.09 1.21979 254.093 1.30897 254.113C1.39814 254.134 1.48244 254.171 1.55705 254.224C1.63166 254.277 1.69511 254.344 1.7438 254.421C1.79248 254.499 1.82544 254.585 1.84079 254.675C1.91383 255.106 1.99417 255.536 2.08913 255.974C2.3612 257.267 2.72241 258.54 3.17016 259.783C3.23142 259.953 3.2228 260.141 3.14618 260.305C3.06956 260.469 2.93115 260.596 2.76112 260.659C2.68447 260.676 2.60591 260.683 2.52738 260.681ZM0.730543 251.026C0.553397 251.027 0.383044 250.958 0.25509 250.836C0.127136 250.714 0.0514834 250.546 0.0439453 250.37C0.0439453 249.932 0.0439453 249.494 0.0439453 249.063C0.0461609 247.669 0.124188 246.275 0.277681 244.889C0.307247 244.718 0.397074 244.563 0.530986 244.452C0.664898 244.341 0.834094 244.281 1.0081 244.284C1.18377 244.304 1.34485 244.391 1.45779 244.527C1.57072 244.663 1.62681 244.837 1.61435 245.013C1.46333 246.348 1.38773 247.691 1.38792 249.034C1.38792 249.45 1.38792 249.873 1.38792 250.289C1.39486 250.381 1.38321 250.474 1.35365 250.561C1.32409 250.648 1.27724 250.729 1.21588 250.797C1.15453 250.866 1.07993 250.922 0.996546 250.961C0.91316 251.001 0.822693 251.023 0.730543 251.026ZM1.6947 241.226H1.54131C1.36407 241.185 1.21063 241.074 1.11474 240.92C1.01886 240.765 0.988383 240.579 1.03002 240.402C1.4382 238.625 1.95534 236.875 2.57851 235.162C2.60873 235.078 2.65527 235 2.71549 234.934C2.77571 234.867 2.84842 234.814 2.92947 234.775C3.01052 234.737 3.09833 234.715 3.18788 234.711C3.27742 234.706 3.36696 234.72 3.45137 234.75C3.53578 234.78 3.61341 234.826 3.67983 234.887C3.74625 234.947 3.80017 235.019 3.83849 235.1C3.87681 235.181 3.89879 235.269 3.90318 235.359C3.90757 235.448 3.89427 235.537 3.86406 235.622C3.27369 237.293 2.78583 238.999 2.40321 240.73C2.35655 240.883 2.25808 241.014 2.12476 241.102C1.99144 241.19 1.83161 241.229 1.67279 241.212L1.6947 241.226ZM4.94508 231.915C4.82949 231.915 4.71579 231.885 4.61452 231.83C4.51324 231.774 4.42768 231.694 4.36577 231.596C4.30385 231.499 4.26758 231.387 4.26031 231.272C4.25305 231.157 4.27503 231.041 4.32422 230.937C5.09653 229.292 5.95223 227.686 6.88801 226.128C6.93394 226.05 6.99479 225.982 7.06704 225.928C7.1393 225.874 7.22156 225.835 7.30909 225.812C7.39663 225.79 7.48773 225.785 7.57716 225.798C7.66659 225.811 7.7526 225.841 7.83025 225.887C7.90819 225.933 7.9762 225.994 8.03028 226.066C8.08436 226.139 8.12343 226.221 8.1452 226.309C8.16697 226.396 8.171 226.488 8.15706 226.577C8.14311 226.666 8.11147 226.752 8.06399 226.829C7.15291 228.35 6.31917 229.916 5.56594 231.521C5.50686 231.639 5.41475 231.738 5.30069 231.805C5.18664 231.873 5.05553 231.906 4.92317 231.9L4.94508 231.915ZM9.94118 223.406C9.78474 223.418 9.62851 223.38 9.49562 223.297C9.34754 223.191 9.24744 223.031 9.21731 222.852C9.18719 222.673 9.22949 222.489 9.33492 222.341C10.3909 220.857 11.5246 219.429 12.7314 218.065C12.7874 217.987 12.8592 217.921 12.9421 217.873C13.025 217.824 13.1172 217.794 13.2126 217.783C13.3081 217.772 13.4048 217.782 13.4964 217.811C13.588 217.84 13.6725 217.887 13.7444 217.951C13.8163 218.015 13.874 218.093 13.9139 218.18C13.9537 218.267 13.9748 218.362 13.9757 218.458C13.9766 218.554 13.9573 218.649 13.9192 218.737C13.881 218.825 13.8247 218.904 13.754 218.969C12.5827 220.301 11.4808 221.692 10.4525 223.136C10.3863 223.214 10.3047 223.276 10.2129 223.32C10.1211 223.364 10.0211 223.388 9.91926 223.392L9.94118 223.406Z" fill="#E0E0E0"/>
<path d="M244.904 191.43L284.12 167.626L301 173.486L244.904 191.43Z" fill="#BA68C8"/>
<path opacity="0.2" d="M244.904 191.43L284.12 167.626L301 173.486L244.904 191.43Z" fill="white"/>
<path d="M244.904 191.43L278.949 164.4L271.732 155.666L244.904 191.43Z" fill="#BA68C8"/>
<path opacity="0.2" d="M244.904 191.43L278.949 164.4L271.732 155.666L244.904 191.43Z" fill="white"/>
<path d="M278.949 164.4L278.795 170.851L244.904 191.43L278.949 164.4Z" fill="#BA68C8"/>
<path opacity="0.2" d="M278.949 164.4L278.795 170.851L244.904 191.43L278.949 164.4Z" fill="black"/>
<path d="M290.467 154.753C290.369 154.753 290.272 154.73 290.183 154.688C290.028 154.599 289.911 154.456 289.854 154.286C289.798 154.117 289.805 153.932 289.876 153.768C290.679 152.168 291.346 150.503 291.87 148.792C291.892 148.7 291.932 148.614 291.989 148.539C292.045 148.464 292.117 148.401 292.199 148.354C292.28 148.308 292.371 148.279 292.465 148.269C292.558 148.259 292.653 148.268 292.743 148.296C292.832 148.324 292.916 148.37 292.987 148.432C293.058 148.494 293.116 148.569 293.157 148.654C293.197 148.739 293.22 148.831 293.224 148.925C293.227 149.019 293.212 149.113 293.177 149.2C292.633 150.982 291.939 152.716 291.103 154.381C291.045 154.498 290.954 154.596 290.841 154.662C290.728 154.728 290.598 154.76 290.467 154.753ZM293.557 145.267H293.462C293.374 145.252 293.289 145.22 293.213 145.172C293.137 145.124 293.072 145.062 293.02 144.988C292.969 144.915 292.932 144.832 292.913 144.745C292.893 144.657 292.891 144.567 292.907 144.479C293.163 142.953 293.319 141.413 293.374 139.867C293.374 139.626 293.374 139.378 293.374 139.137C293.387 138.959 293.464 138.791 293.592 138.666C293.72 138.541 293.89 138.467 294.068 138.459C294.251 138.475 294.42 138.559 294.543 138.694C294.666 138.829 294.734 139.006 294.733 139.188V139.918C294.678 141.523 294.514 143.122 294.244 144.705C294.205 144.856 294.116 144.989 293.991 145.082C293.866 145.175 293.713 145.222 293.557 145.216V145.267ZM284.405 162.78L284.332 162.722C284.268 162.658 284.217 162.583 284.183 162.499C284.148 162.416 284.131 162.327 284.131 162.237C284.131 162.147 284.148 162.057 284.183 161.974C284.217 161.891 284.268 161.815 284.332 161.751C285.433 160.665 286.46 159.508 287.407 158.285L287.852 157.694C287.961 157.55 288.123 157.454 288.302 157.428C288.482 157.402 288.664 157.448 288.809 157.556C288.942 157.671 289.028 157.831 289.053 158.005C289.077 158.18 289.037 158.357 288.941 158.504L288.517 159.081C287.53 160.368 286.456 161.587 285.303 162.729C285.184 162.844 285.026 162.911 284.861 162.917C284.696 162.924 284.533 162.87 284.405 162.766V162.78ZM293.842 135.255C293.677 135.249 293.52 135.184 293.399 135.071C293.278 134.958 293.202 134.806 293.185 134.642C292.99 132.86 292.668 131.095 292.22 129.359C292.196 129.271 292.189 129.179 292.201 129.089C292.213 128.999 292.242 128.911 292.288 128.833C292.333 128.754 292.394 128.685 292.467 128.63C292.539 128.574 292.622 128.534 292.71 128.511C292.799 128.489 292.891 128.484 292.981 128.497C293.071 128.51 293.158 128.541 293.236 128.588C293.314 128.635 293.382 128.697 293.436 128.77C293.49 128.844 293.529 128.927 293.55 129.016C294.01 130.817 294.342 132.648 294.543 134.496C294.557 134.673 294.502 134.848 294.389 134.984C294.276 135.121 294.113 135.207 293.937 135.226L293.842 135.255ZM291.439 125.513C291.305 125.508 291.176 125.464 291.067 125.386C290.958 125.308 290.874 125.2 290.825 125.075C290.175 123.403 289.411 121.776 288.539 120.208C288.465 120.051 288.454 119.871 288.508 119.706C288.561 119.541 288.676 119.402 288.828 119.317C288.98 119.233 289.158 119.21 289.327 119.252C289.496 119.294 289.642 119.398 289.737 119.544C290.642 121.168 291.433 122.853 292.104 124.586C292.137 124.67 292.153 124.759 292.151 124.848C292.15 124.938 292.13 125.026 292.094 125.109C292.058 125.191 292.006 125.265 291.941 125.327C291.877 125.389 291.8 125.437 291.716 125.469C291.629 125.505 291.534 125.52 291.439 125.513ZM286.677 116.705C286.572 116.703 286.469 116.676 286.376 116.626C286.283 116.577 286.204 116.507 286.143 116.421C285.098 114.959 283.961 113.565 282.74 112.247C282.671 112.182 282.617 112.104 282.58 112.018C282.543 111.931 282.524 111.838 282.525 111.744C282.525 111.65 282.545 111.557 282.583 111.471C282.621 111.385 282.677 111.307 282.746 111.244C282.816 111.18 282.897 111.131 282.986 111.1C283.075 111.069 283.17 111.057 283.264 111.064C283.357 111.071 283.449 111.098 283.532 111.142C283.615 111.186 283.689 111.246 283.748 111.32C285.009 112.679 286.183 114.117 287.261 115.625C287.366 115.773 287.409 115.957 287.378 116.137C287.348 116.316 287.248 116.476 287.1 116.581C286.981 116.661 286.842 116.704 286.698 116.705H286.677ZM279.957 109.277C279.799 109.269 279.647 109.21 279.526 109.109C278.722 108.379 277.882 107.701 277.02 107.044C276.458 106.606 275.874 106.175 275.289 105.759C275.216 105.706 275.154 105.639 275.106 105.562C275.059 105.485 275.027 105.399 275.013 105.31C274.999 105.22 275.002 105.129 275.023 105.041C275.044 104.953 275.083 104.87 275.136 104.796C275.189 104.723 275.256 104.661 275.334 104.613C275.411 104.566 275.497 104.534 275.586 104.52C275.676 104.506 275.767 104.509 275.855 104.53C275.943 104.552 276.027 104.59 276.1 104.643C276.706 105.074 277.298 105.511 277.882 105.956C278.759 106.635 279.628 107.35 280.453 108.08C280.558 108.174 280.631 108.297 280.664 108.434C280.696 108.57 280.685 108.713 280.634 108.844C280.582 108.974 280.491 109.086 280.374 109.163C280.257 109.24 280.119 109.28 279.979 109.277H279.957ZM271.834 103.395C271.719 103.39 271.606 103.357 271.506 103.3C270.001 102.395 268.394 101.52 266.743 100.702C266.662 100.664 266.59 100.609 266.53 100.542C266.471 100.475 266.425 100.397 266.396 100.312C266.367 100.227 266.354 100.137 266.36 100.048C266.366 99.9582 266.389 99.8707 266.429 99.7903C266.517 99.6342 266.66 99.516 266.829 99.4581C266.999 99.4003 267.184 99.4068 267.35 99.4765C269.037 100.308 270.673 101.199 272.207 102.125C272.284 102.171 272.352 102.231 272.406 102.302C272.461 102.374 272.5 102.455 272.522 102.542C272.545 102.629 272.55 102.72 272.537 102.808C272.524 102.897 272.494 102.982 272.448 103.059C272.387 103.162 272.3 103.247 272.197 103.306C272.093 103.365 271.976 103.395 271.856 103.395H271.834ZM262.865 98.8781C262.782 98.8749 262.701 98.8576 262.624 98.827C260.988 98.0973 259.278 97.4843 257.547 96.8787C257.463 96.8492 257.385 96.8033 257.318 96.7437C257.251 96.684 257.197 96.6117 257.158 96.531C257.12 96.4503 257.097 96.3627 257.093 96.2734C257.088 96.184 257.101 96.0946 257.131 96.0103C257.191 95.8395 257.315 95.6992 257.478 95.6199C257.641 95.5406 257.829 95.5288 258 95.5871C259.76 96.2 261.492 96.8641 263.157 97.5646C263.302 97.6286 263.421 97.741 263.493 97.8826C263.564 98.0242 263.585 98.1862 263.55 98.3412C263.516 98.4961 263.429 98.6343 263.304 98.7322C263.179 98.8301 263.024 98.8817 262.865 98.8781ZM253.369 95.5214H253.201C251.499 95.0179 249.732 94.5508 247.935 94.1276C247.763 94.0766 247.616 93.9645 247.522 93.8125C247.428 93.6604 247.393 93.4792 247.424 93.303C247.465 93.1259 247.576 92.9726 247.73 92.8768C247.885 92.7811 248.072 92.7506 248.249 92.7922C250.068 93.2227 251.865 93.6971 253.588 94.2079C253.755 94.2485 253.899 94.3502 253.994 94.4928C254.088 94.6353 254.125 94.8082 254.097 94.9769C254.07 95.1455 253.979 95.2975 253.844 95.4025C253.709 95.5075 253.54 95.5578 253.369 95.5433V95.5214ZM198.273 93.4052C198.11 93.395 197.955 93.3267 197.838 93.2127C197.72 93.0986 197.647 92.9463 197.632 92.7833C197.617 92.6203 197.661 92.4573 197.756 92.3238C197.851 92.1902 197.99 92.095 198.149 92.0552C199.917 91.6684 201.736 91.3254 203.576 91.0263C203.755 90.9989 203.938 91.0434 204.084 91.15C204.231 91.2567 204.329 91.4167 204.358 91.5954C204.376 91.7738 204.329 91.9527 204.223 92.0981C204.118 92.2434 203.963 92.3451 203.788 92.3835C201.984 92.6681 200.18 93.0111 198.449 93.3906C198.392 93.4063 198.332 93.4113 198.273 93.4052ZM188.822 96.6525C188.67 96.6733 188.516 96.6429 188.384 96.5663C188.251 96.4896 188.148 96.371 188.091 96.2292C188.057 96.1464 188.039 96.0575 188.039 95.9678C188.039 95.878 188.057 95.7892 188.092 95.7064C188.126 95.6236 188.177 95.5485 188.241 95.4854C188.305 95.4224 188.381 95.3726 188.464 95.3389C190.137 94.653 191.875 94.0035 193.628 93.4052C193.715 93.366 193.809 93.3454 193.905 93.3447C194 93.3439 194.095 93.3631 194.182 93.4009C194.27 93.4387 194.349 93.4944 194.414 93.5643C194.478 93.6343 194.528 93.7169 194.559 93.8071C194.59 93.8972 194.602 93.9929 194.594 94.0879C194.586 94.1829 194.558 94.2752 194.513 94.359C194.467 94.4427 194.404 94.516 194.329 94.5741C194.253 94.6323 194.166 94.6741 194.074 94.6968C192.342 95.2952 190.626 95.93 188.961 96.6014C188.918 96.6329 188.872 96.6575 188.822 96.6743V96.6525ZM243.655 93.1425H243.545C241.792 92.8068 239.988 92.5003 238.169 92.2376C238.08 92.2247 237.995 92.1944 237.918 92.1485C237.841 92.1026 237.774 92.0421 237.72 91.9702C237.667 91.8984 237.628 91.8167 237.606 91.7299C237.584 91.6431 237.579 91.5527 237.592 91.4641C237.605 91.3754 237.635 91.2902 237.681 91.2133C237.727 91.1363 237.788 91.0692 237.86 91.0156C237.932 90.9621 238.013 90.9233 238.1 90.9013C238.187 90.8793 238.278 90.8747 238.366 90.8876C240.2 91.1503 242.018 91.4568 243.808 91.7998C243.896 91.8155 243.981 91.8487 244.056 91.8974C244.131 91.9462 244.196 92.0095 244.246 92.0836C244.296 92.1577 244.331 92.2412 244.349 92.3291C244.367 92.4169 244.366 92.5074 244.349 92.5952C244.32 92.7575 244.235 92.9043 244.108 93.0088C243.98 93.1133 243.819 93.1685 243.655 93.1644V93.1425ZM208.171 91.7925C208 91.7825 207.84 91.7094 207.72 91.5875C207.601 91.4657 207.531 91.3038 207.525 91.1334C207.518 90.963 207.576 90.7963 207.686 90.6659C207.796 90.5354 207.95 90.4506 208.12 90.4279C209.924 90.2236 211.772 90.0557 213.612 89.939C213.791 89.9374 213.963 90.0012 214.098 90.1181C214.232 90.2351 214.32 90.3972 214.343 90.5738C214.344 90.7531 214.279 90.9266 214.161 91.0612C214.042 91.1958 213.878 91.282 213.7 91.3036C211.881 91.4203 210.048 91.5808 208.28 91.7852L208.171 91.7925ZM233.699 91.7049H233.655C231.858 91.5152 230.003 91.3692 228.221 91.2598C228.051 91.236 227.897 91.1498 227.787 91.018C227.678 90.8862 227.622 90.7184 227.63 90.5475C227.639 90.3766 227.71 90.215 227.832 90.0943C227.953 89.9736 228.115 89.9026 228.287 89.8952C230.113 90.0046 231.939 90.1506 233.779 90.3403C233.95 90.3654 234.106 90.4542 234.214 90.5888C234.323 90.7235 234.376 90.8941 234.364 91.0665C234.352 91.239 234.276 91.4005 234.15 91.5189C234.024 91.6373 233.857 91.7037 233.684 91.7049H233.699ZM218.192 91.0992C218.01 91.0992 217.835 91.027 217.707 90.8983C217.578 90.7697 217.505 90.5952 217.505 90.4133C217.505 90.2314 217.578 90.0569 217.707 89.9282C217.835 89.7996 218.01 89.7273 218.192 89.7273C220.011 89.6836 221.844 89.6763 223.707 89.7273C223.876 89.7488 224.031 89.8322 224.141 89.9613C224.252 90.0904 224.311 90.2561 224.307 90.4261C224.302 90.5962 224.234 90.7585 224.117 90.8815C223.999 91.0045 223.84 91.0795 223.67 91.0919C221.851 91.0919 220.018 91.0919 218.221 91.0919L218.192 91.0992Z" fill="#E0E0E0"/>
</g>
<defs>
<clipPath id="clip0_2785_3327">
<rect width="301" height="321" fill="white"/>
</clipPath>
</defs>
</svg>
