<svg width="258" height="219" viewBox="0 0 258 219" fill="none" xmlns="http://www.w3.org/2000/svg">
<g clip-path="url(#clip0_2637_692)">
<path d="M80.7792 100.729C80.705 98.4466 92.1503 84.9181 93.1391 84.4478C106.236 78.0425 121.092 69.5036 117.058 62.2122C113.207 55.2475 88.4967 64.5932 82.826 66.5831C77.2887 68.5285 61.7944 84.2003 59.1692 90.3087C56.5439 96.417 49.4049 127.38 49.4049 127.38L76.9526 131.765C76.9526 131.765 80.8781 104.06 80.7792 100.729Z" fill="#864240"/>
<g opacity="0.1">
<path d="M80.7792 100.729C80.705 98.4466 92.1503 84.9181 93.1391 84.4478C106.236 78.0425 121.092 69.5036 117.058 62.2122C113.207 55.2475 88.4967 64.5932 82.826 66.5831C77.2887 68.5285 61.7944 84.2003 59.1692 90.3087C56.5439 96.417 49.4049 127.38 49.4049 127.38L76.9526 131.765C76.9526 131.765 80.8781 104.06 80.7792 100.729Z" fill="black"/>
</g>
<path d="M88.3187 118.856C88.65 116.598 102.32 105.317 103.348 105.025C117.374 101.065 133.506 95.2834 130.827 87.3881C128.271 79.8541 102.295 84.6606 96.3625 85.611C90.5682 86.5417 72.5426 99.2138 68.8791 104.758C65.2157 110.302 52.7025 139.507 52.7025 139.507L79.034 148.714C79.034 148.714 87.8293 122.152 88.3187 118.856Z" fill="#864240"/>
<g opacity="0.1">
<path d="M88.3187 118.856C88.65 116.598 102.32 105.317 103.348 105.025C117.374 101.065 133.506 95.2834 130.827 87.3881C128.271 79.8541 102.295 84.6606 96.3625 85.611C90.5682 86.5417 72.5426 99.2138 68.8791 104.758C65.2157 110.302 52.7025 139.507 52.7025 139.507L79.034 148.714C79.034 148.714 87.8293 122.152 88.3187 118.856Z" fill="black"/>
</g>
<path d="M117.429 183.83C117.429 183.696 117.374 183.132 117.251 182.201C117.366 182.737 117.426 183.282 117.429 183.83Z" fill="#864240"/>
<path d="M58.0271 156.263L117.429 183.86C116.927 189.275 115.292 194.525 112.628 199.265C109.965 204.006 106.334 208.131 101.972 211.372C97.6091 214.613 92.6135 216.898 87.3103 218.077C82.007 219.255 76.5152 219.302 71.1929 218.213C64.0005 216.746 57.2541 213.604 51.4995 209.042C45.7448 204.48 41.1437 198.626 38.0684 191.953C28.7392 171.747 16.6265 143.215 17.5214 133.047C17.729 130.231 25.2141 98.011 28.1459 93.8925C36.0562 82.8787 71.4302 43.2238 78.7719 47.1591C93.9004 55.2574 66.506 89.1751 59.5696 97.3625C58.0614 95.3044 56.3809 93.3785 54.5466 91.6056C45.7216 83.438 36.0463 85.2101 38.4738 96.2091C41.4254 109.574 58.0271 156.263 58.0271 156.263Z" fill="#864240"/>
<path d="M155.873 152.823L153.623 159.644C152.995 160.758 151.764 161.461 150.079 161.495L88.1951 162.926C84.7344 163.005 80.6655 160.258 79.1081 156.793L22.7422 31.3982C22.0302 29.8043 21.961 28.3391 22.4356 27.2104L24.6505 20.4437L91.9179 22.8296L94.7607 28.5965C95.5174 29.3923 96.1387 30.307 96.5998 31.3041L102.038 43.407L155.873 152.823Z" fill="#1A2E35"/>
<path d="M152.318 154.679L90.4397 156.105C86.9789 156.184 82.91 153.437 81.3527 149.972L24.9768 24.5769C23.4146 21.1119 24.9768 18.2359 28.4129 18.1419L90.2963 16.7113C93.7571 16.6371 97.8259 19.3744 99.3882 22.8444L155.749 148.244C157.321 151.719 155.779 154.6 152.318 154.679Z" fill="#2B454E"/>
<path d="M153.089 161.258L153.539 159.886C153.481 160.369 153.328 160.835 153.089 161.258Z" fill="#2B454E"/>
<path d="M65.3096 22.8247L58.3386 22.988C58.2074 22.9798 58.0807 22.937 57.9713 22.864C57.8619 22.791 57.7737 22.6903 57.7157 22.5722C57.6118 22.3346 57.7157 22.1416 57.9579 22.1366L64.9536 21.9733C65.0851 21.9805 65.2122 22.0229 65.3218 22.096C65.4313 22.1692 65.5193 22.2703 65.5765 22.3891C65.6556 22.6267 65.5518 22.8197 65.3096 22.8247Z" fill="#1A2E35"/>
<path d="M98.4291 26.2699L152.926 146.091C154.469 149.477 153.119 152.273 149.925 152.343L92.7584 153.575C89.5498 153.645 85.7133 150.962 84.1707 147.576L29.6637 27.7549C26.5243 20.8545 28.9666 20.4635 32.1703 20.3942L43.6205 20.1467C44.2879 20.1467 45.1679 20.8595 45.5981 21.7802L45.781 22.1762C46.7698 24.3196 47.9613 24.3047 49.4395 24.2701L75.9193 23.7008C77.4025 23.6662 78.5989 23.6365 77.62 21.4881L77.442 21.0921C77.0218 20.1714 77.2245 19.424 77.9018 19.4091L89.352 19.1616C92.5458 19.0923 95.5567 19.9536 98.4291 26.2699Z" fill="white"/>
<path d="M98.4291 26.2699L103.867 38.2342L35.102 39.7192L29.6637 27.7549C26.5292 20.8545 28.9666 20.4635 32.1703 20.3942L43.6205 20.1467C44.2879 20.1467 45.1679 20.8595 45.5981 21.7752L45.781 22.1713C46.7698 24.3196 47.9613 24.3047 49.4395 24.2701L75.9193 23.7008C77.4025 23.6662 78.5989 23.6315 77.62 21.4832L77.442 21.0921C77.0218 20.1714 77.2245 19.424 77.9018 19.4091L89.352 19.1616C92.5458 19.0923 95.5566 19.9536 98.4291 26.2699Z" fill="#6E43C1"/>
<path d="M40.2734 35.6057L37.3911 33.7891L38.5776 31.8833L39.0424 32.2051L38.0684 33.7742L40.4366 35.2691L40.2734 35.6057Z" fill="white"/>
<path d="M95.3688 31.3635C95.4677 31.5813 95.3688 31.7595 95.1463 31.7644C95.0248 31.7578 94.9073 31.7191 94.8056 31.6521C94.704 31.5851 94.622 31.4924 94.5679 31.3833C94.469 31.1655 94.5679 30.9872 94.7903 30.9823C94.9118 30.9889 95.0294 31.0276 95.131 31.0946C95.2326 31.1616 95.3147 31.2543 95.3688 31.3635Z" fill="white"/>
<path d="M96.0016 32.7544C96.1005 32.9722 96.0016 33.1504 95.7791 33.1554C95.657 33.1489 95.5389 33.1096 95.4371 33.0416C95.3353 32.9737 95.2537 32.8797 95.2007 32.7693C95.1018 32.5564 95.2007 32.3782 95.4232 32.3733C95.5449 32.3788 95.6629 32.4172 95.7647 32.4843C95.8665 32.5513 95.9484 32.6447 96.0016 32.7544Z" fill="white"/>
<path d="M96.6345 34.1553C96.7333 34.3682 96.6344 34.5513 96.412 34.5563C96.2898 34.5497 96.1717 34.5104 96.07 34.4425C95.9682 34.3746 95.8865 34.2805 95.8335 34.1702C95.7346 33.9573 95.8335 33.7791 96.056 33.7742C96.1777 33.7797 96.2957 33.8181 96.3976 33.8851C96.4994 33.9522 96.5812 34.0456 96.6345 34.1553Z" fill="white"/>
<path d="M42.8789 22.8841L42.8195 22.993C42.8062 23.0116 42.7946 23.0315 42.7849 23.0524C42.4156 22.7958 41.9786 22.6545 41.5292 22.6465C41.3564 22.6352 41.1838 22.6717 41.0303 22.752C40.8769 22.8323 40.7484 22.9534 40.659 23.1019L40.575 23.0425L40.4168 22.9385L40.5008 22.8148C40.565 22.7319 40.6437 22.6614 40.7332 22.6069C40.8434 22.5356 40.9657 22.4852 41.0941 22.4584L41.2968 22.4237H41.633C41.78 22.4402 41.9255 22.4684 42.0681 22.5079C42.1785 22.5379 42.286 22.5776 42.3894 22.6267C42.5058 22.6738 42.6182 22.73 42.7256 22.795L42.8888 22.894L42.8789 22.8841Z" fill="white"/>
<path d="M41.1534 23.4335L40.9013 23.2652C40.9594 23.1662 41.0396 23.082 41.1357 23.0193C41.2318 22.9566 41.3411 22.9171 41.455 22.9038C41.8895 22.8534 42.3271 22.9683 42.6811 23.2256L42.5872 23.3988C42.3371 23.2253 42.041 23.1305 41.7368 23.1266C41.6209 23.1202 41.5055 23.1454 41.4028 23.1995C41.3001 23.2535 41.2139 23.3344 41.1534 23.4335Z" fill="white"/>
<path d="M42.4883 23.577L42.3944 23.7503C42.2668 23.6609 42.115 23.6125 41.9593 23.6117C41.8998 23.6072 41.8403 23.6192 41.7871 23.6462C41.7339 23.6733 41.6892 23.7144 41.6577 23.7651L41.4105 23.6018C41.5588 23.3097 42.0236 23.2652 42.4883 23.577Z" fill="white"/>
<path d="M42.2559 23.9088C42.2905 23.9929 42.2559 24.0672 42.1669 24.0672C42.1194 24.0645 42.0733 24.0494 42.0334 24.0234C41.9935 23.9973 41.9611 23.9612 41.9395 23.9187C41.9 23.8296 41.9395 23.7603 42.0285 23.7603C42.0762 23.7624 42.1225 23.7773 42.1625 23.8034C42.2025 23.8295 42.2348 23.8659 42.2559 23.9088Z" fill="white"/>
<path d="M32.2395 23.4434C32.1258 23.1959 32.2395 22.993 32.4916 22.988C32.6302 22.9947 32.7645 23.0387 32.8802 23.1154C32.9959 23.192 33.0889 23.2985 33.1492 23.4236C33.2629 23.6662 33.1492 23.8741 32.897 23.879C32.7588 23.8708 32.6252 23.8262 32.5098 23.7498C32.3943 23.6733 32.3011 23.5676 32.2395 23.4434Z" fill="white"/>
<path d="M33.6733 23.4088C33.5645 23.1662 33.6733 22.9583 33.9254 22.9534C34.0642 22.9617 34.1984 23.0063 34.3146 23.0827C34.4309 23.1592 34.5251 23.2648 34.5879 23.389C34.6966 23.6365 34.5879 23.8394 34.3308 23.8444C34.1921 23.8382 34.0576 23.7945 33.9418 23.7177C33.826 23.641 33.7331 23.5342 33.6733 23.4088Z" fill="white"/>
<path d="M35.102 23.3791C34.9883 23.1316 35.102 22.9287 35.3542 22.9237C35.4927 22.9309 35.6267 22.9751 35.7423 23.0517C35.8579 23.1283 35.951 23.2345 36.0117 23.3593C36.1205 23.6068 36.0117 23.8098 35.7596 23.8147C35.621 23.808 35.4867 23.7641 35.371 23.6874C35.2553 23.6107 35.1624 23.5042 35.102 23.3791Z" fill="white"/>
<path d="M36.5457 23.3493C36.432 23.1018 36.5457 22.8989 36.7978 22.8939C36.9363 22.9011 37.0703 22.9453 37.1859 23.0219C37.3016 23.0985 37.3946 23.2047 37.4554 23.3295C37.5691 23.577 37.4554 23.78 37.2032 23.7849C37.0646 23.7783 36.9304 23.7343 36.8146 23.6576C36.6989 23.5809 36.606 23.4744 36.5457 23.3493Z" fill="white"/>
<path d="M37.9794 23.3197C37.8657 23.0722 37.9794 22.8692 38.2316 22.8643C38.3704 22.8699 38.5051 22.9134 38.621 22.9902C38.7369 23.067 38.8297 23.1741 38.8891 23.2999C39.0028 23.5424 38.8891 23.7503 38.637 23.7553C38.4988 23.7471 38.3652 23.7025 38.2497 23.626C38.1342 23.5495 38.041 23.4438 37.9794 23.3197Z" fill="white"/>
<path d="M91.7993 23.1415L88.0863 23.2207L87.3151 21.5327L91.0329 21.4535L91.7993 23.1415ZM88.1902 23.0276L91.5175 22.9534L90.9242 21.6465L87.5969 21.7208L88.1902 23.0276Z" fill="white"/>
<path d="M90.148 21.7654L87.76 21.8149L88.2643 22.9237L90.6572 22.8742L90.148 21.7654Z" fill="white"/>
<path d="M91.9476 22.7405L91.6213 22.7455L91.2109 21.8495L91.5422 21.8396L91.9476 22.7405Z" fill="white"/>
<path d="M92.7732 147.041L92.437 147.046L93.1242 148.556L92.4964 148.571L92.1453 147.799L91.033 147.823L91.384 148.596L90.7561 148.605L90.0689 147.101L89.7327 147.106L90.5534 145.536L92.7732 147.041Z" fill="#ECECEC"/>
<path d="M146.727 144.838L143.063 144.918L142.831 144.408L146.494 144.328L146.727 144.838Z" fill="#ECECEC"/>
<path d="M147.305 146.106L143.642 146.185L143.409 145.675L147.073 145.596L147.305 146.106Z" fill="#ECECEC"/>
<path d="M147.883 147.373L144.215 147.452L143.983 146.942L147.646 146.863L147.883 147.373Z" fill="#ECECEC"/>
<path d="M119.56 146.502L119.011 147.61L117.478 146.546L117.582 146.373L118.848 147.249L119.298 146.338L119.56 146.502Z" fill="#ECECEC"/>
<path d="M119.525 148.734C118.949 148.704 118.392 148.52 117.911 148.202C117.43 147.883 117.044 147.441 116.791 146.922C116.326 145.903 116.791 145.056 117.839 145.031C118.414 145.063 118.971 145.248 119.452 145.566C119.932 145.884 120.319 146.325 120.573 146.843C121.038 147.863 120.568 148.709 119.525 148.734ZM117.948 145.269C117.043 145.269 116.638 146.022 117.038 146.908C117.258 147.358 117.594 147.741 118.011 148.017C118.428 148.294 118.912 148.454 119.411 148.482C120.316 148.482 120.726 147.724 120.321 146.838C120.1 146.39 119.764 146.009 119.346 145.735C118.929 145.461 118.446 145.303 117.948 145.279V145.269Z" fill="#ECECEC"/>
<path d="M59.8218 32.4327L60.6969 34.3583C60.7089 34.3769 60.7156 34.3985 60.716 34.4207C60.7164 34.4428 60.7107 34.4647 60.6993 34.4837C60.688 34.5028 60.6716 34.5183 60.652 34.5285C60.6323 34.5387 60.6102 34.5432 60.5881 34.5415C60.5325 34.5379 60.4789 34.5195 60.4328 34.4882C60.3867 34.4569 60.3498 34.4137 60.3261 34.3633L59.6982 32.9921L59.5202 33.6604C59.5126 33.6843 59.4973 33.705 59.4768 33.7193C59.4562 33.7336 59.4315 33.7407 59.4065 33.7396C59.337 33.738 59.2704 33.7117 59.2186 33.6653L58.4424 33.0268L59.0703 34.3979C59.1099 34.4969 59.0703 34.5811 58.9615 34.5811C58.9067 34.577 58.8538 34.559 58.8079 34.5287C58.7621 34.4983 58.7247 34.4567 58.6995 34.4078L57.8442 32.4773C57.7997 32.3783 57.8442 32.2941 57.9431 32.2941C58.0099 32.297 58.074 32.3213 58.126 32.3634L59.1988 33.2495L59.451 32.3387C59.4588 32.3139 59.4748 32.2926 59.4964 32.2782C59.518 32.2637 59.5438 32.2572 59.5696 32.2595C59.6227 32.2651 59.6736 32.2839 59.7176 32.3142C59.7616 32.3444 59.7974 32.3852 59.8218 32.4327Z" fill="white"/>
<path d="M61.3396 34.3435L60.4645 32.4179C60.42 32.3189 60.4645 32.2397 60.5683 32.2347H61.6511C61.7061 32.2378 61.7594 32.2554 61.8055 32.2859C61.8515 32.3163 61.8886 32.3585 61.9131 32.408C61.9242 32.4263 61.9305 32.4471 61.9312 32.4686C61.9318 32.49 61.927 32.5112 61.917 32.5302C61.907 32.5491 61.8923 32.5652 61.8743 32.5767C61.8563 32.5883 61.8356 32.595 61.8142 32.5961H60.9095L61.1814 33.1901H61.9576C62.0133 33.1933 62.0672 33.2109 62.114 33.2413C62.1608 33.2717 62.1989 33.3138 62.2246 33.3634C62.269 33.4673 62.2246 33.5465 62.1207 33.5515H61.3445L61.6214 34.1554H62.5212C62.5778 34.1575 62.6327 34.1752 62.6798 34.2067C62.727 34.2381 62.7645 34.2821 62.7882 34.3336C62.7997 34.3514 62.8062 34.3721 62.807 34.3933C62.8078 34.4146 62.8029 34.4357 62.7928 34.4544C62.7827 34.4731 62.7678 34.4888 62.7496 34.4997C62.7313 34.5107 62.7105 34.5166 62.6893 34.5167H61.6066C61.5505 34.5151 61.4959 34.498 61.4489 34.4675C61.4018 34.4369 61.364 34.394 61.3396 34.3435Z" fill="white"/>
<path d="M63.0699 33.9127C63.0996 33.8434 63.2034 33.8286 63.3023 33.888C63.5311 34.0243 63.7883 34.1057 64.0538 34.1256C64.1198 34.1286 64.1858 34.1183 64.2478 34.0954C64.3098 34.0724 64.3665 34.0372 64.4147 33.9919C64.4458 33.9618 64.4664 33.9224 64.4735 33.8797C64.4806 33.8369 64.4739 33.793 64.4543 33.7543C64.434 33.7154 64.4072 33.6803 64.3752 33.6504C64.3321 33.6123 64.2838 33.5806 64.2318 33.5563C64.0632 33.4834 63.8851 33.435 63.7028 33.4128C63.5341 33.3917 63.3682 33.3519 63.2084 33.294C63.052 33.2399 62.9075 33.1558 62.7832 33.0465C62.7006 32.973 62.6334 32.8838 62.5854 32.7841C62.5415 32.7066 62.5227 32.6174 62.5316 32.5288C62.5404 32.4401 62.5765 32.3564 62.6349 32.2891C62.7694 32.1656 62.9469 32.0999 63.1293 32.106C63.4262 32.1191 63.7159 32.2022 63.9747 32.3485C64.0736 32.403 64.1477 32.5069 64.128 32.5812C64.1082 32.6554 64.0142 32.6851 63.9104 32.6356C63.7198 32.5207 63.5045 32.4529 63.2825 32.4376C63.223 32.4345 63.1634 32.4434 63.1073 32.4639C63.0513 32.4843 62.9999 32.5157 62.9562 32.5564C62.9298 32.5833 62.9123 32.6177 62.9061 32.6549C62.8999 32.6921 62.9053 32.7303 62.9216 32.7643C62.9377 32.7989 62.9614 32.8293 62.9908 32.8534C63.028 32.8893 63.0716 32.9179 63.1194 32.9376C63.2754 33.01 63.4426 33.0552 63.6138 33.0712C63.7922 33.0972 63.9677 33.1403 64.1378 33.1999C64.3048 33.2575 64.4592 33.3466 64.5927 33.4623C64.6812 33.5384 64.7521 33.633 64.8003 33.7395C64.8422 33.8179 64.8594 33.9071 64.8497 33.9954C64.84 34.0838 64.8038 34.1671 64.746 34.2345C64.675 34.302 64.5911 34.3544 64.4993 34.3884C64.4075 34.4225 64.3098 34.4375 64.212 34.4325C63.8624 34.4119 63.5231 34.3066 63.2232 34.1256C63.1792 34.1097 63.1411 34.0808 63.1137 34.0429C63.0864 34.0049 63.0711 33.9595 63.0699 33.9127Z" fill="white"/>
<path d="M65.2601 33.8682C65.2898 33.7939 65.3936 33.784 65.4974 33.8385C65.7231 33.9778 65.9794 34.0594 66.244 34.0761C66.378 34.0821 66.5091 34.036 66.6098 33.9474C66.6401 33.9166 66.6598 33.877 66.666 33.8343C66.6722 33.7915 66.6647 33.7479 66.6444 33.7098C66.6267 33.6693 66.5996 33.6337 66.5653 33.6058C66.5226 33.566 66.4743 33.5326 66.422 33.5068C66.2548 33.4357 66.0783 33.389 65.8979 33.3682C65.7301 33.3426 65.5647 33.3029 65.4035 33.2494C65.2484 33.1925 65.1045 33.1087 64.9783 33.0019C64.8927 32.9281 64.8236 32.837 64.7756 32.7346C64.7309 32.6571 64.712 32.5672 64.7218 32.4782C64.7316 32.3892 64.7695 32.3056 64.83 32.2396C64.8956 32.1767 64.9732 32.1276 65.0581 32.0953C65.143 32.0629 65.2336 32.0481 65.3244 32.0515C65.6212 32.0693 65.9102 32.1539 66.1698 32.299C66.2736 32.3485 66.3429 32.4525 66.3231 32.5267C66.3033 32.601 66.2143 32.6307 66.1105 32.5812C65.9158 32.4713 65.7002 32.4038 65.4777 32.3832C65.3593 32.3798 65.2441 32.4224 65.1563 32.502C65.1288 32.5292 65.1106 32.5645 65.1044 32.6028C65.0982 32.641 65.1042 32.6802 65.1217 32.7148C65.1355 32.7493 65.1576 32.7799 65.186 32.8039C65.2261 32.8359 65.2692 32.8641 65.3145 32.8881C65.4722 32.9557 65.6387 33.0007 65.8089 33.0217C65.9856 33.046 66.1594 33.0875 66.328 33.1455C66.4961 33.2061 66.6519 33.2967 66.7878 33.4128C66.8733 33.4898 66.9438 33.5821 66.9955 33.685C67.0353 33.7642 67.051 33.8534 67.0404 33.9415C67.0299 34.0296 66.9936 34.1125 66.9361 34.18C66.8647 34.2469 66.7807 34.2988 66.689 34.3328C66.5974 34.3668 66.4999 34.3822 66.4022 34.378C66.0525 34.3583 65.713 34.2529 65.4134 34.0711C65.3722 34.0539 65.3363 34.0261 65.3094 33.9904C65.2824 33.9547 65.2654 33.9126 65.2601 33.8682Z" fill="white"/>
<path d="M68.7209 33.8237H67.9101L67.9398 34.2543C67.9398 34.2701 67.9366 34.2858 67.9303 34.3003C67.9239 34.3148 67.9147 34.3278 67.903 34.3385C67.8914 34.3492 67.8777 34.3574 67.8627 34.3625C67.8478 34.3676 67.8319 34.3695 67.8162 34.3682H67.7321C67.6783 34.3526 67.6297 34.3227 67.5914 34.2818C67.5531 34.2408 67.5266 34.1903 67.5146 34.1355L67.3761 32.1951C67.3753 32.179 67.3779 32.163 67.384 32.1481C67.39 32.1332 67.3993 32.1198 67.4111 32.109C67.4229 32.0981 67.437 32.0899 67.4523 32.0852C67.4676 32.0804 67.4838 32.079 67.4997 32.0812C67.5433 32.0819 67.5861 32.092 67.6254 32.1108C67.6646 32.1296 67.6993 32.1566 67.7272 32.1901L69.3389 34.0959C69.418 34.19 69.418 34.2939 69.3389 34.3335H69.2796C69.237 34.3316 69.1953 34.3209 69.1571 34.3022C69.1188 34.2834 69.0848 34.257 69.0571 34.2246L68.7209 33.8237ZM68.4193 33.4673L67.831 32.7693L67.8804 33.4772L68.4193 33.4673Z" fill="white"/>
<path d="M69.1807 33.1653C68.884 32.507 69.1807 31.9724 69.8778 31.9575C70.1848 31.9615 70.4859 32.0433 70.7529 32.1951C70.8038 32.2176 70.8464 32.2555 70.8747 32.3034C70.9031 32.3513 70.9158 32.4069 70.9111 32.4624C70.8814 32.5416 70.7677 32.5614 70.654 32.4971C70.4678 32.3928 70.2591 32.335 70.0459 32.3288C69.9485 32.3231 69.8513 32.3434 69.7644 32.3878C69.6776 32.4322 69.604 32.4989 69.5515 32.5812C69.5051 32.6698 69.4809 32.7683 69.4809 32.8683C69.4809 32.9683 69.5051 33.0668 69.5515 33.1554C69.6626 33.382 69.8336 33.5737 70.0459 33.7098C70.2526 33.8565 70.4995 33.936 70.7529 33.9375C70.897 33.9358 71.037 33.8891 71.1533 33.8039L70.9506 33.3534H70.4562C70.3986 33.3505 70.3427 33.3325 70.2941 33.3012C70.2456 33.2699 70.206 33.2265 70.1794 33.1752C70.1349 33.0713 70.1794 32.9871 70.2881 32.9871H70.9457C71.0037 32.9885 71.0602 33.0059 71.1091 33.0374C71.1579 33.0688 71.1971 33.1131 71.2225 33.1653L71.5488 33.888C71.5488 33.888 71.5488 33.9227 71.5488 33.9425C71.5513 33.9571 71.5499 33.9722 71.5447 33.9861C71.5394 34 71.5307 34.0123 71.5192 34.0217C71.4385 34.1101 71.3398 34.1802 71.2298 34.2272C71.1198 34.2741 71.001 34.2969 70.8814 34.2939C70.5247 34.2688 70.1807 34.1516 69.8826 33.9538C69.5846 33.7561 69.3428 33.4844 69.1807 33.1653Z" fill="white"/>
<path d="M72.4536 34.1059L71.5785 32.1753C71.5291 32.0714 71.5785 31.9922 71.6774 31.9922H72.7601C72.8156 31.9962 72.869 32.0148 72.915 32.0461C72.961 32.0774 72.998 32.1203 73.0221 32.1704C73.0716 32.2694 73.0221 32.3535 72.9233 32.3535H72.0185L72.2904 32.9525H73.0666C73.1226 32.9571 73.1764 32.9759 73.2231 33.0071C73.2698 33.0382 73.3078 33.0808 73.3336 33.1307C73.3781 33.2297 73.3336 33.3139 73.2347 33.3139H72.4536L72.7304 33.9128H73.6302C73.6863 33.917 73.7403 33.9356 73.7871 33.9668C73.8339 33.998 73.8718 34.0408 73.8972 34.091C73.9417 34.19 73.8972 34.2742 73.7983 34.2742H72.7156C72.6612 34.2711 72.6084 34.254 72.5625 34.2245C72.5166 34.195 72.4791 34.1541 72.4536 34.1059Z" fill="white"/>
<path d="M74.1592 33.6603C74.1889 33.586 74.2927 33.5761 74.3916 33.6306C74.6194 33.7692 74.8772 33.8507 75.1431 33.8682C75.2088 33.8719 75.2745 33.8624 75.3365 33.8403C75.3985 33.8182 75.4554 33.7839 75.504 33.7395C75.5344 33.7089 75.5546 33.6696 75.5616 33.627C75.5687 33.5844 75.5624 33.5407 75.5436 33.5019C75.5258 33.4614 75.4987 33.4258 75.4645 33.3979C75.4225 33.3585 75.374 33.3266 75.3211 33.3039C75.1533 33.2287 74.9748 33.1802 74.7921 33.1603C74.6243 33.1345 74.4589 33.0947 74.2977 33.0415C74.1413 32.9874 73.9968 32.9034 73.8725 32.794C73.7897 32.7188 73.7225 32.628 73.6747 32.5267C73.6294 32.4497 73.6097 32.3601 73.6186 32.2711C73.6275 32.1821 73.6645 32.0983 73.7242 32.0317C73.8579 31.9064 74.0355 31.8389 74.2186 31.8436C74.5154 31.8614 74.8044 31.946 75.064 32.0911C75.1629 32.1406 75.237 32.2446 75.2173 32.3188C75.1975 32.3931 75.1035 32.4277 74.9997 32.3733C74.8075 32.2627 74.5929 32.1968 74.3718 32.1802C74.3122 32.1762 74.2524 32.1847 74.1962 32.2052C74.14 32.2256 74.0887 32.2576 74.0455 32.299C74.0185 32.3256 74.001 32.3604 73.9957 32.398C73.9903 32.4355 73.9974 32.4738 74.0159 32.5069C74.0285 32.5421 74.0508 32.573 74.0801 32.596C74.1186 32.6303 74.1619 32.6587 74.2087 32.6802C74.3664 32.7478 74.5328 32.7928 74.7031 32.8138C74.8793 32.8405 75.0529 32.8819 75.2222 32.9376C75.3903 32.9982 75.5461 33.0888 75.682 33.2049C75.7674 33.2808 75.8364 33.3735 75.8847 33.4771C75.9252 33.5559 75.9417 33.6448 75.932 33.7328C75.9224 33.8209 75.887 33.9041 75.8303 33.9721C75.7589 34.039 75.6749 34.0909 75.5832 34.1249C75.4915 34.1589 75.394 34.1743 75.2964 34.1701C74.9465 34.1512 74.6068 34.0457 74.3076 33.8632C74.2136 33.8533 74.1592 33.7494 74.1592 33.6603Z" fill="white"/>
<path d="M106.369 64.2417L119.416 92.9272L112.564 93.0906L115.728 100.05L105.45 93.244L69.151 94.0261L56.0941 65.3307L106.369 64.2417Z" fill="#6E43C1"/>
<path d="M78.2528 79.3394C78.8412 80.6264 78.2528 81.6956 76.9328 81.7253C76.2048 81.6897 75.4997 81.4592 74.891 81.0578C74.2823 80.6564 73.7923 80.0989 73.472 79.4434C72.8837 78.1563 73.472 77.0921 74.7921 77.0624C75.52 77.096 76.2254 77.3251 76.8343 77.7258C77.4432 78.1264 77.9332 78.6838 78.2528 79.3394Z" fill="white"/>
<path d="M90.143 79.0869C90.7264 80.369 90.143 81.4382 88.8181 81.4679C88.0902 81.4317 87.3853 81.201 86.7767 80.7997C86.1681 80.3984 85.6779 79.8411 85.3573 79.1859C84.7739 77.8989 85.3573 76.8346 86.6823 76.8049C87.4104 76.84 88.1157 77.0703 88.7245 77.4718C89.3333 77.8732 89.8232 78.431 90.143 79.0869Z" fill="white"/>
<path d="M102.028 78.8295C102.617 80.1165 102.028 81.1807 100.708 81.2104C99.98 81.1759 99.2745 80.9458 98.6656 80.5443C98.0567 80.1428 97.5669 79.5847 97.2475 78.9285C96.6592 77.6414 97.2475 76.5772 98.5675 76.5475C99.2955 76.5831 100.001 76.8136 100.609 77.215C101.218 77.6164 101.708 78.1739 102.028 78.8295Z" fill="white"/>
<path d="M125.576 131.488L98.7653 132.067C96.4515 132.117 93.7373 130.32 92.704 128.053L90.9044 124.093C89.8711 121.826 90.9044 119.95 93.2281 119.9L120.019 119.296C122.338 119.247 125.047 121.044 126.081 123.311L127.885 127.271C128.913 129.558 127.87 131.439 125.576 131.488Z" fill="#ECECEC"/>
<path d="M124.667 129.528L97.8556 130.107C95.5369 130.157 92.8227 128.36 91.7943 126.093L89.9898 122.133C88.9614 119.865 89.9898 117.989 92.3184 117.94L119.149 117.356C121.463 117.306 124.177 119.103 125.21 121.37L127.01 125.33C128.048 127.602 126.98 129.478 124.667 129.528Z" fill="#6E43C1"/>
<path d="M98.1325 121.335C98.917 121.312 99.6975 121.458 100.421 121.761C101.076 122.017 101.653 122.44 102.093 122.989L100.244 123.023C100.02 122.82 99.7578 122.665 99.4723 122.568C99.1754 122.464 98.8623 122.414 98.5477 122.42C98.3449 122.404 98.1412 122.433 97.9502 122.503C97.7593 122.573 97.5854 122.683 97.4403 122.825C97.3311 122.973 97.2665 123.149 97.2542 123.333C97.242 123.516 97.2825 123.699 97.3711 123.86C97.5437 124.29 97.8576 124.648 98.261 124.875C98.6865 125.128 99.1755 125.253 99.67 125.236C99.9452 125.241 100.218 125.182 100.466 125.063C100.565 125.015 100.652 124.945 100.721 124.86C100.79 124.774 100.84 124.675 100.866 124.568L102.715 124.538C102.728 124.79 102.672 125.041 102.554 125.265C102.435 125.488 102.259 125.674 102.043 125.805C101.464 126.155 100.796 126.327 100.12 126.3C99.4689 126.313 98.8204 126.216 98.2017 126.013C97.6233 125.831 97.0848 125.54 96.6147 125.157C96.192 124.818 95.862 124.376 95.6555 123.875C95.4684 123.466 95.4419 123.001 95.5814 122.573C95.7487 122.169 96.066 121.846 96.4663 121.672C96.9901 121.438 97.5591 121.323 98.1325 121.335Z" fill="white"/>
<path d="M122.249 120.969L121.171 124.286L121.814 125.899L120.128 125.934L119.485 124.315L115.787 121.083L117.696 121.048L119.851 123.073L120.36 121.004L122.249 120.969Z" fill="white"/>
<path d="M115.476 121.855C115.744 122.068 115.953 122.346 116.084 122.662C116.195 122.909 116.208 123.189 116.119 123.444C115.997 123.713 115.775 123.922 115.501 124.028C115.078 124.196 114.625 124.277 114.171 124.266H113.127L113.829 126.023L112.144 126.053L110.166 121.162L112.89 121.113C113.391 121.096 113.891 121.156 114.373 121.291C114.775 121.403 115.15 121.595 115.476 121.855ZM114.319 123.152C114.376 123.091 114.412 123.014 114.422 122.931C114.431 122.848 114.414 122.764 114.373 122.692C114.295 122.495 114.144 122.336 113.953 122.246C113.709 122.133 113.441 122.082 113.172 122.098H112.262L112.757 123.325H113.666C113.898 123.349 114.131 123.289 114.324 123.157" fill="white"/>
<path d="M109.261 122.345C109.695 122.681 110.036 123.122 110.25 123.627C110.344 123.831 110.396 124.05 110.403 124.274C110.411 124.497 110.374 124.72 110.295 124.929C110.11 125.339 109.781 125.665 109.37 125.845C108.853 126.084 108.288 126.204 107.719 126.196C107.07 126.207 106.423 126.11 105.805 125.909C105.209 125.72 104.652 125.425 104.159 125.038C103.723 124.703 103.382 124.259 103.17 123.751C103.075 123.549 103.023 123.33 103.016 123.107C103.009 122.884 103.048 122.662 103.131 122.454C103.317 122.045 103.648 121.718 104.06 121.538C104.582 121.303 105.149 121.184 105.721 121.192C106.369 121.179 107.015 121.276 107.63 121.479C108.222 121.664 108.776 121.958 109.261 122.345ZM108.45 124.697C108.565 124.551 108.634 124.374 108.649 124.19C108.664 124.005 108.624 123.82 108.535 123.657C108.358 123.221 108.037 122.859 107.625 122.632C107.174 122.375 106.66 122.248 106.142 122.266C105.927 122.249 105.711 122.276 105.508 122.347C105.304 122.418 105.118 122.53 104.96 122.677C104.847 122.824 104.779 123.002 104.765 123.187C104.751 123.373 104.791 123.559 104.881 123.721C105.061 124.157 105.386 124.518 105.801 124.741C106.253 124.995 106.766 125.12 107.284 125.103C107.497 125.123 107.712 125.097 107.915 125.026C108.117 124.955 108.301 124.841 108.455 124.692" fill="white"/>
<path d="M117.429 183.83V183.86L58.0272 156.263C58.0272 156.263 41.4254 109.574 38.4738 96.2091C36.0464 85.2101 45.7217 83.438 54.5466 91.6056C56.381 93.3785 58.0614 95.3044 59.5697 97.3625C66.946 107.094 74.8465 121.954 78.5495 124.177C110.438 143.304 116.292 174.667 117.251 182.191C117.374 183.152 117.419 183.696 117.429 183.83Z" fill="#864240"/>
<path d="M50.7694 88.7296C47.5114 87.007 41.7072 84.7696 39.5763 89.0761C38.4194 91.4076 38.9336 93.9717 39.5763 96.3874C44.7971 115.747 52.5839 136.948 58.042 156.283C52.6036 143.413 47.897 130.275 43.6798 116.96C41.6132 110.272 39.5961 103.595 38.2415 96.6646C37.7174 94.0113 37.3911 91.1304 38.7853 88.6554C41.3117 84.037 47.4125 86.4378 50.7793 88.7247L50.7694 88.7296Z" fill="#1A2E35"/>
<path d="M182.521 96.9368C178.788 98.3773 167.956 109.055 168.065 110.045C169.281 121.118 166.863 132.28 161.366 133.953C154.301 136.126 152.387 111.485 153.139 105.931C153.871 100.486 165.222 83.4331 170.28 79.8987C175.337 76.3644 202.153 64.0586 202.153 64.0586L211.285 88.4128C211.285 88.4128 185.398 95.823 182.521 96.9368Z" fill="#864240"/>
<path opacity="0.2" d="M182.521 96.9368C178.788 98.3773 167.956 109.055 168.065 110.045C169.281 121.118 166.863 132.28 161.366 133.953C154.301 136.126 152.387 111.485 153.139 105.931C153.871 100.486 165.222 83.4331 170.28 79.8987C175.337 76.3644 202.153 64.0586 202.153 64.0586L211.285 88.4128C211.285 88.4128 185.398 95.823 182.521 96.9368Z" fill="black"/>
<path d="M161.044 96.5606C157.865 99.3079 150.929 113.688 151.384 114.628C156.496 125.113 158.043 136.978 153.198 140.581C146.974 145.22 136.389 121.628 135.187 115.886C133.996 110.277 139.187 89.4029 142.944 84.1162C146.702 78.8295 168.856 57.1731 168.856 57.1731L186.471 77.9385C186.471 77.9385 163.506 94.4321 161.044 96.5606Z" fill="#864240"/>
<path opacity="0.1" d="M161.044 96.5606C157.865 99.3079 150.929 113.688 151.384 114.628C156.496 125.113 158.043 136.978 153.198 140.581C146.974 145.22 136.389 121.628 135.187 115.886C133.996 110.277 139.187 89.4029 142.944 84.1162C146.702 78.8295 168.856 57.1731 168.856 57.1731L186.471 77.9385C186.471 77.9385 163.506 94.4321 161.044 96.5606Z" fill="black"/>
<path d="M227.456 129.167C226.078 129.464 224.673 129.617 223.264 129.622C216.975 129.647 198.697 129.157 182.768 123.187C182.768 123.187 158.236 128.008 145.169 124.622C133.521 121.603 139.098 112.663 149.228 107.753C155.374 104.783 172.386 99.4712 188.78 94.6598C184.187 88.6405 178.486 83.9924 167.521 83.9578C167.234 83.9578 154.217 92.7293 144.779 97.6199C144.779 97.6199 115.006 131.018 104.733 119.781C100.688 115.351 119.911 90.2493 126.98 80.3789C129.917 76.2605 165.736 51.3865 168.376 50.3915C177.424 46.9809 196.863 48.7382 210.538 50.6044C219.639 51.8507 228.54 54.2733 237.018 57.8116C240.119 59.1597 242.971 61.0224 245.452 63.321C268.664 84.1508 257.906 122.647 227.456 129.167Z" fill="#864240"/>
<path d="M150.672 125.528C144.981 125.404 135.074 123.053 138.683 115.346C140.853 111.277 145.164 108.911 148.981 106.837C155.225 103.51 162.038 101.54 168.757 99.4712C178.828 96.5012 188.973 93.8182 199.241 91.6155C189.694 94.8825 178.971 98.1891 169.31 101.273C161.089 103.906 152.694 106.401 145.293 110.936C142.143 112.916 137.625 116.287 139.36 120.45C141.338 123.915 146.974 124.994 150.662 125.528H150.672Z" fill="#1A2E35"/>
<path d="M113.291 129.77C149.381 140.012 145.921 195.606 171.595 187.24C189.076 181.558 178.432 155.451 161.38 164.668C144.329 173.885 138.248 195.032 111.862 193.715C85.4759 192.398 68.5429 137.804 43.5067 129.122" stroke="#1A2E35" stroke-width="0.75" stroke-miterlimit="10" stroke-dasharray="4 5"/>
<path d="M159.477 30.5072C111.936 77.5327 30.8948 105.139 17.4373 83.2252C12.2363 74.7458 27.0484 63.8557 36.0908 57.6384" stroke="#1A2E35" stroke-width="0.75" stroke-miterlimit="10" stroke-dasharray="4 5"/>
<path d="M155.917 20.0427L153.431 36.3185L163.205 24.9433L204.279 0L155.917 20.0427Z" fill="#6E43C1"/>
<path opacity="0.4" d="M155.917 20.0427L153.431 36.3185L163.205 24.9433L204.279 0L155.917 20.0427Z" fill="white"/>
<path d="M165.395 28.1806L153.431 36.3184L163.205 24.9432L165.395 28.1806Z" fill="#6E43C1"/>
<path opacity="0.1" d="M165.395 28.1806L153.431 36.3184L163.205 24.9432L165.395 28.1806Z" fill="black"/>
<path d="M163.205 24.9433L204.279 0L175.041 42.7585L163.205 24.9433Z" fill="#6E43C1"/>
<path opacity="0.7" d="M163.205 24.9433L204.279 0L175.041 42.7585L163.205 24.9433Z" fill="white"/>
<path d="M155.917 20.0427L135.138 11.8306L204.279 0L155.917 20.0427Z" fill="#6E43C1"/>
<path opacity="0.7" d="M155.917 20.0427L135.138 11.8306L204.279 0L155.917 20.0427Z" fill="white"/>
<path d="M42.518 119.266L48.3568 131.364L38.0091 124.84L0 115.252L42.518 119.266Z" fill="#6E43C1"/>
<path opacity="0.4" d="M42.518 119.266L48.3568 131.364L38.0091 124.84L0 115.252L42.518 119.266Z" fill="white"/>
<path d="M37.0747 127.889L48.3568 131.364L38.0091 124.84L37.0747 127.889Z" fill="#6E43C1"/>
<path opacity="0.1" d="M37.0747 127.889L48.3568 131.364L38.0091 124.84L37.0747 127.889Z" fill="black"/>
<path d="M38.0091 124.84L0 115.252L33.0454 141.576L38.0091 124.84Z" fill="#6E43C1"/>
<path opacity="0.7" d="M38.0091 124.84L0 115.252L33.0454 141.576L38.0091 124.84Z" fill="white"/>
<path d="M42.518 119.266L56.7516 107.871L0 115.252L42.518 119.266Z" fill="#6E43C1"/>
<path opacity="0.7" d="M42.518 119.266L56.7516 107.871L0 115.252L42.518 119.266Z" fill="white"/>
</g>
<defs>
<clipPath id="clip0_2637_692">
<rect width="258" height="219" fill="white"/>
</clipPath>
</defs>
</svg>
